G04 EAGLE Gerber RS-274X export*
G75*
%MOMM*%
%FSLAX34Y34*%
%LPD*%
%INTop Copper*%
%IPPOS*%
%AMOC8*
5,1,8,0,0,1.08239X$1,22.5*%
G01*
%ADD10R,1.524000X3.810000*%
%ADD11R,1.651000X3.048000*%
%ADD12R,1.700000X2.500000*%
%ADD13C,0.040638*%
%ADD14C,0.152400*%
%ADD15C,1.208000*%
%ADD16C,1.270000*%
%ADD17R,1.350000X0.600000*%
%ADD18R,2.000000X1.200000*%
%ADD19C,2.184400*%
%ADD20R,3.500000X4.000000*%
%ADD21R,0.889000X3.302000*%
%ADD22R,8.890000X9.144000*%
%ADD23C,0.222250*%
%ADD24C,0.158750*%
%ADD25R,2.325000X2.325000*%
%ADD26C,2.325000*%
%ADD27R,1.270000X1.524000*%
%ADD28R,1.524000X1.270000*%
%ADD29C,0.889000*%
%ADD30C,0.508000*%
%ADD31C,0.685800*%
%ADD32C,1.270000*%
%ADD33C,0.609600*%
%ADD34C,0.304800*%
%ADD35C,0.635000*%
%ADD36C,0.254000*%

G36*
X415393Y5212D02*
X415393Y5212D01*
X415428Y5210D01*
X415550Y5232D01*
X415673Y5248D01*
X415706Y5261D01*
X415741Y5267D01*
X415854Y5319D01*
X415969Y5365D01*
X415998Y5385D01*
X416030Y5400D01*
X416126Y5479D01*
X416226Y5551D01*
X416249Y5579D01*
X416276Y5601D01*
X416350Y5701D01*
X416429Y5796D01*
X416444Y5828D01*
X416465Y5857D01*
X416512Y5972D01*
X416565Y6084D01*
X416571Y6119D01*
X416585Y6152D01*
X416601Y6275D01*
X416625Y6396D01*
X416622Y6432D01*
X416627Y6467D01*
X416612Y6590D01*
X416605Y6714D01*
X416594Y6748D01*
X416590Y6783D01*
X416545Y6898D01*
X416507Y7016D01*
X416488Y7046D01*
X416475Y7079D01*
X416403Y7180D01*
X416337Y7285D01*
X416311Y7309D01*
X416290Y7338D01*
X416174Y7449D01*
X412849Y10239D01*
X407511Y19485D01*
X405657Y30000D01*
X407511Y40515D01*
X412849Y49761D01*
X421028Y56624D01*
X431062Y60276D01*
X441738Y60276D01*
X451772Y56624D01*
X459107Y50469D01*
X459178Y50423D01*
X459242Y50370D01*
X459311Y50338D01*
X459374Y50297D01*
X459454Y50270D01*
X459530Y50234D01*
X459604Y50220D01*
X459676Y50196D01*
X459760Y50190D01*
X459843Y50175D01*
X459918Y50179D01*
X459993Y50174D01*
X460076Y50189D01*
X460160Y50194D01*
X460232Y50218D01*
X460306Y50231D01*
X460383Y50267D01*
X460462Y50292D01*
X460526Y50333D01*
X460595Y50365D01*
X460660Y50418D01*
X460731Y50463D01*
X460783Y50518D01*
X460842Y50565D01*
X460891Y50633D01*
X460949Y50694D01*
X460986Y50760D01*
X461031Y50821D01*
X461062Y50899D01*
X461103Y50973D01*
X461121Y51046D01*
X461150Y51116D01*
X461161Y51199D01*
X461182Y51281D01*
X461191Y51423D01*
X461192Y51431D01*
X461192Y51435D01*
X461192Y51441D01*
X461192Y144190D01*
X461177Y144308D01*
X461170Y144427D01*
X461157Y144465D01*
X461152Y144506D01*
X461109Y144616D01*
X461072Y144729D01*
X461050Y144764D01*
X461035Y144801D01*
X460966Y144897D01*
X460902Y144998D01*
X460872Y145026D01*
X460849Y145059D01*
X460757Y145135D01*
X460670Y145216D01*
X460635Y145236D01*
X460604Y145261D01*
X460496Y145312D01*
X460392Y145370D01*
X460352Y145380D01*
X460316Y145397D01*
X460199Y145419D01*
X460084Y145449D01*
X460024Y145453D01*
X460004Y145457D01*
X459983Y145455D01*
X459923Y145459D01*
X453689Y145459D01*
X453689Y152730D01*
X453674Y152848D01*
X453667Y152967D01*
X453654Y153005D01*
X453649Y153045D01*
X453605Y153156D01*
X453569Y153269D01*
X453547Y153304D01*
X453532Y153341D01*
X453462Y153437D01*
X453399Y153538D01*
X453369Y153566D01*
X453345Y153598D01*
X453254Y153674D01*
X453167Y153756D01*
X453132Y153775D01*
X453100Y153801D01*
X452993Y153852D01*
X452889Y153909D01*
X452849Y153920D01*
X452813Y153937D01*
X452696Y153959D01*
X452581Y153989D01*
X452520Y153993D01*
X452500Y153997D01*
X452480Y153995D01*
X452420Y153999D01*
X451149Y153999D01*
X451149Y154001D01*
X452420Y154001D01*
X452538Y154016D01*
X452657Y154023D01*
X452695Y154036D01*
X452735Y154041D01*
X452846Y154085D01*
X452959Y154121D01*
X452994Y154143D01*
X453031Y154158D01*
X453127Y154228D01*
X453228Y154291D01*
X453256Y154321D01*
X453288Y154345D01*
X453364Y154436D01*
X453446Y154523D01*
X453465Y154558D01*
X453491Y154590D01*
X453542Y154697D01*
X453599Y154801D01*
X453610Y154841D01*
X453627Y154877D01*
X453649Y154994D01*
X453679Y155109D01*
X453683Y155170D01*
X453687Y155190D01*
X453685Y155210D01*
X453689Y155270D01*
X453689Y162541D01*
X459923Y162541D01*
X460041Y162556D01*
X460160Y162563D01*
X460198Y162576D01*
X460239Y162581D01*
X460349Y162624D01*
X460462Y162661D01*
X460497Y162683D01*
X460534Y162698D01*
X460630Y162767D01*
X460731Y162831D01*
X460759Y162861D01*
X460792Y162884D01*
X460867Y162976D01*
X460949Y163063D01*
X460969Y163098D01*
X460994Y163129D01*
X461045Y163237D01*
X461103Y163341D01*
X461113Y163380D01*
X461130Y163417D01*
X461152Y163534D01*
X461182Y163649D01*
X461186Y163709D01*
X461190Y163729D01*
X461188Y163750D01*
X461192Y163810D01*
X461192Y200190D01*
X461177Y200308D01*
X461170Y200427D01*
X461157Y200465D01*
X461152Y200506D01*
X461109Y200616D01*
X461072Y200729D01*
X461050Y200764D01*
X461035Y200801D01*
X460966Y200897D01*
X460902Y200998D01*
X460872Y201026D01*
X460849Y201059D01*
X460757Y201135D01*
X460670Y201216D01*
X460635Y201236D01*
X460604Y201261D01*
X460496Y201312D01*
X460392Y201370D01*
X460352Y201380D01*
X460316Y201397D01*
X460199Y201419D01*
X460084Y201449D01*
X460024Y201453D01*
X460004Y201457D01*
X459983Y201455D01*
X459923Y201459D01*
X453689Y201459D01*
X453689Y208730D01*
X453674Y208848D01*
X453667Y208967D01*
X453654Y209005D01*
X453649Y209045D01*
X453605Y209156D01*
X453569Y209269D01*
X453547Y209304D01*
X453532Y209341D01*
X453462Y209437D01*
X453399Y209538D01*
X453369Y209566D01*
X453345Y209598D01*
X453254Y209674D01*
X453167Y209756D01*
X453132Y209775D01*
X453100Y209801D01*
X452993Y209852D01*
X452889Y209909D01*
X452849Y209920D01*
X452813Y209937D01*
X452696Y209959D01*
X452581Y209989D01*
X452520Y209993D01*
X452500Y209997D01*
X452480Y209995D01*
X452420Y209999D01*
X449880Y209999D01*
X449762Y209984D01*
X449643Y209977D01*
X449605Y209964D01*
X449565Y209959D01*
X449454Y209915D01*
X449341Y209879D01*
X449306Y209857D01*
X449269Y209842D01*
X449173Y209772D01*
X449072Y209709D01*
X449044Y209679D01*
X449011Y209655D01*
X448936Y209564D01*
X448854Y209477D01*
X448834Y209442D01*
X448809Y209410D01*
X448758Y209303D01*
X448700Y209199D01*
X448690Y209159D01*
X448673Y209123D01*
X448651Y209006D01*
X448621Y208891D01*
X448617Y208830D01*
X448613Y208810D01*
X448615Y208790D01*
X448611Y208730D01*
X448611Y201459D01*
X440816Y201459D01*
X440169Y201632D01*
X439590Y201967D01*
X439117Y202440D01*
X438782Y203019D01*
X438743Y203165D01*
X438693Y203287D01*
X438649Y203412D01*
X438633Y203434D01*
X438623Y203459D01*
X438544Y203566D01*
X438470Y203675D01*
X438450Y203693D01*
X438434Y203715D01*
X438331Y203798D01*
X438232Y203886D01*
X438208Y203898D01*
X438187Y203915D01*
X438066Y203970D01*
X437948Y204030D01*
X437922Y204036D01*
X437898Y204047D01*
X437767Y204071D01*
X437638Y204100D01*
X437611Y204099D01*
X437585Y204104D01*
X437453Y204094D01*
X437320Y204090D01*
X437294Y204083D01*
X437267Y204081D01*
X437142Y204039D01*
X437015Y204002D01*
X436991Y203988D01*
X436966Y203980D01*
X436855Y203908D01*
X436741Y203840D01*
X436712Y203815D01*
X436699Y203807D01*
X436684Y203791D01*
X436620Y203734D01*
X435804Y202918D01*
X434030Y202183D01*
X432110Y202183D01*
X431524Y202426D01*
X431476Y202439D01*
X431431Y202460D01*
X431323Y202481D01*
X431217Y202510D01*
X431167Y202511D01*
X431118Y202520D01*
X431009Y202513D01*
X430899Y202515D01*
X430851Y202503D01*
X430801Y202500D01*
X430697Y202467D01*
X430590Y202441D01*
X430546Y202418D01*
X430499Y202402D01*
X430406Y202344D01*
X430309Y202292D01*
X430272Y202259D01*
X430230Y202232D01*
X430155Y202152D01*
X430073Y202078D01*
X430046Y202037D01*
X430012Y202001D01*
X429959Y201904D01*
X429899Y201813D01*
X429882Y201766D01*
X429858Y201722D01*
X429831Y201616D01*
X429795Y201512D01*
X429791Y201462D01*
X429779Y201414D01*
X429769Y201253D01*
X429769Y192688D01*
X423300Y186220D01*
X423240Y186141D01*
X423172Y186069D01*
X423143Y186016D01*
X423106Y185968D01*
X423066Y185877D01*
X423018Y185791D01*
X423003Y185732D01*
X422979Y185677D01*
X422964Y185579D01*
X422939Y185483D01*
X422933Y185383D01*
X422929Y185363D01*
X422931Y185350D01*
X422929Y185322D01*
X422929Y183263D01*
X422563Y182897D01*
X422490Y182803D01*
X422411Y182714D01*
X422393Y182678D01*
X422368Y182646D01*
X422321Y182537D01*
X422267Y182431D01*
X422258Y182392D01*
X422242Y182354D01*
X422223Y182237D01*
X422197Y182121D01*
X422198Y182080D01*
X422192Y182040D01*
X422203Y181922D01*
X422207Y181803D01*
X422218Y181764D01*
X422222Y181724D01*
X422262Y181612D01*
X422295Y181497D01*
X422316Y181462D01*
X422329Y181424D01*
X422396Y181326D01*
X422457Y181223D01*
X422496Y181178D01*
X422508Y181161D01*
X422523Y181148D01*
X422563Y181102D01*
X422929Y180737D01*
X422929Y173213D01*
X422907Y173185D01*
X422860Y173076D01*
X422805Y172970D01*
X422797Y172930D01*
X422781Y172893D01*
X422762Y172775D01*
X422736Y172659D01*
X422737Y172619D01*
X422731Y172579D01*
X422742Y172460D01*
X422745Y172341D01*
X422757Y172303D01*
X422760Y172262D01*
X422801Y172150D01*
X422834Y172036D01*
X422854Y172001D01*
X422868Y171963D01*
X422935Y171865D01*
X422995Y171762D01*
X423035Y171717D01*
X423047Y171700D01*
X423062Y171687D01*
X423102Y171641D01*
X423183Y171560D01*
X423518Y170981D01*
X423691Y170334D01*
X423691Y168499D01*
X414630Y168499D01*
X414512Y168484D01*
X414393Y168477D01*
X414386Y168475D01*
X414330Y168489D01*
X414270Y168493D01*
X414250Y168497D01*
X414230Y168495D01*
X414170Y168499D01*
X405109Y168499D01*
X405109Y170334D01*
X405140Y170448D01*
X405157Y170573D01*
X405181Y170697D01*
X405178Y170730D01*
X405183Y170764D01*
X405169Y170889D01*
X405161Y171014D01*
X405150Y171046D01*
X405147Y171079D01*
X405101Y171197D01*
X405063Y171316D01*
X405045Y171345D01*
X405033Y171376D01*
X404960Y171479D01*
X404893Y171585D01*
X404868Y171608D01*
X404849Y171636D01*
X404752Y171717D01*
X404661Y171803D01*
X404631Y171819D01*
X404606Y171841D01*
X404493Y171896D01*
X404382Y171957D01*
X404350Y171965D01*
X404320Y171980D01*
X404196Y172005D01*
X404075Y172036D01*
X404026Y172039D01*
X404008Y172043D01*
X403986Y172042D01*
X403914Y172046D01*
X371123Y172046D01*
X370958Y172115D01*
X370949Y172117D01*
X370940Y172122D01*
X370795Y172159D01*
X370651Y172199D01*
X370642Y172199D01*
X370633Y172201D01*
X370472Y172211D01*
X369327Y172211D01*
X369228Y172199D01*
X369129Y172196D01*
X369071Y172179D01*
X369011Y172171D01*
X368919Y172135D01*
X368824Y172107D01*
X368772Y172077D01*
X368715Y172054D01*
X368635Y171996D01*
X368550Y171946D01*
X368475Y171880D01*
X368458Y171868D01*
X368450Y171858D01*
X368429Y171840D01*
X363338Y166749D01*
X363278Y166671D01*
X363210Y166599D01*
X363181Y166546D01*
X363144Y166498D01*
X363104Y166407D01*
X363056Y166320D01*
X363041Y166261D01*
X363017Y166206D01*
X363002Y166108D01*
X362977Y166012D01*
X362971Y165912D01*
X362967Y165892D01*
X362969Y165879D01*
X362967Y165851D01*
X362967Y158242D01*
X362982Y158124D01*
X362989Y158005D01*
X363002Y157967D01*
X363007Y157926D01*
X363050Y157816D01*
X363087Y157703D01*
X363109Y157668D01*
X363124Y157631D01*
X363193Y157535D01*
X363257Y157434D01*
X363287Y157406D01*
X363310Y157373D01*
X363402Y157297D01*
X363489Y157216D01*
X363524Y157196D01*
X363555Y157171D01*
X363663Y157120D01*
X363767Y157062D01*
X363807Y157052D01*
X363843Y157035D01*
X363960Y157013D01*
X364075Y156983D01*
X364135Y156979D01*
X364155Y156975D01*
X364176Y156977D01*
X364236Y156973D01*
X369317Y156973D01*
X369317Y149352D01*
X369332Y149234D01*
X369339Y149115D01*
X369352Y149077D01*
X369357Y149037D01*
X369400Y148926D01*
X369437Y148813D01*
X369459Y148778D01*
X369474Y148741D01*
X369544Y148645D01*
X369607Y148544D01*
X369637Y148516D01*
X369661Y148484D01*
X369752Y148408D01*
X369839Y148326D01*
X369874Y148307D01*
X369905Y148281D01*
X370013Y148230D01*
X370117Y148173D01*
X370157Y148162D01*
X370193Y148145D01*
X370310Y148123D01*
X370425Y148093D01*
X370486Y148089D01*
X370506Y148085D01*
X370526Y148087D01*
X370586Y148083D01*
X371857Y148083D01*
X371857Y148081D01*
X370586Y148081D01*
X370468Y148066D01*
X370349Y148059D01*
X370311Y148046D01*
X370271Y148041D01*
X370160Y147997D01*
X370047Y147961D01*
X370012Y147939D01*
X369975Y147924D01*
X369879Y147854D01*
X369778Y147791D01*
X369750Y147761D01*
X369717Y147737D01*
X369642Y147646D01*
X369560Y147559D01*
X369540Y147524D01*
X369515Y147492D01*
X369464Y147385D01*
X369406Y147281D01*
X369396Y147241D01*
X369379Y147205D01*
X369357Y147088D01*
X369327Y146973D01*
X369323Y146912D01*
X369319Y146892D01*
X369321Y146872D01*
X369317Y146812D01*
X369317Y139191D01*
X364236Y139191D01*
X364118Y139176D01*
X363999Y139169D01*
X363961Y139156D01*
X363920Y139151D01*
X363810Y139108D01*
X363697Y139071D01*
X363662Y139049D01*
X363625Y139034D01*
X363529Y138965D01*
X363428Y138901D01*
X363400Y138871D01*
X363367Y138848D01*
X363291Y138756D01*
X363210Y138669D01*
X363190Y138634D01*
X363165Y138603D01*
X363114Y138495D01*
X363056Y138391D01*
X363046Y138351D01*
X363029Y138315D01*
X363007Y138198D01*
X362977Y138083D01*
X362973Y138023D01*
X362969Y138003D01*
X362971Y137982D01*
X362967Y137922D01*
X362967Y134885D01*
X362979Y134786D01*
X362982Y134687D01*
X362999Y134629D01*
X363007Y134569D01*
X363043Y134477D01*
X363071Y134382D01*
X363101Y134330D01*
X363124Y134273D01*
X363182Y134193D01*
X363232Y134108D01*
X363298Y134033D01*
X363310Y134016D01*
X363320Y134008D01*
X363338Y133987D01*
X364111Y133214D01*
X364189Y133154D01*
X364261Y133086D01*
X364314Y133057D01*
X364362Y133020D01*
X364453Y132980D01*
X364540Y132932D01*
X364599Y132917D01*
X364654Y132893D01*
X364752Y132878D01*
X364848Y132853D01*
X364948Y132847D01*
X364968Y132843D01*
X364981Y132845D01*
X365009Y132843D01*
X383025Y132843D01*
X412117Y103750D01*
X412195Y103690D01*
X412267Y103622D01*
X412320Y103593D01*
X412368Y103556D01*
X412459Y103516D01*
X412546Y103468D01*
X412605Y103453D01*
X412660Y103429D01*
X412758Y103414D01*
X412854Y103389D01*
X412954Y103383D01*
X412974Y103379D01*
X412987Y103381D01*
X413015Y103379D01*
X439667Y103379D01*
X447803Y95243D01*
X447803Y77223D01*
X439667Y69087D01*
X414789Y69087D01*
X412632Y71245D01*
X387538Y96338D01*
X387444Y96411D01*
X387355Y96490D01*
X387319Y96508D01*
X387287Y96533D01*
X387177Y96581D01*
X387072Y96635D01*
X387032Y96644D01*
X386995Y96660D01*
X386877Y96678D01*
X386761Y96704D01*
X386721Y96703D01*
X386681Y96709D01*
X386562Y96698D01*
X386443Y96695D01*
X386405Y96683D01*
X386364Y96680D01*
X386252Y96639D01*
X386138Y96606D01*
X386103Y96586D01*
X386065Y96572D01*
X385967Y96505D01*
X385864Y96445D01*
X385819Y96405D01*
X385802Y96393D01*
X385788Y96378D01*
X385743Y96338D01*
X367021Y77617D01*
X366961Y77538D01*
X366893Y77466D01*
X366864Y77413D01*
X366827Y77365D01*
X366787Y77274D01*
X366739Y77188D01*
X366724Y77129D01*
X366700Y77074D01*
X366685Y76976D01*
X366660Y76880D01*
X366654Y76780D01*
X366650Y76760D01*
X366652Y76747D01*
X366650Y76719D01*
X366650Y71161D01*
X364957Y69468D01*
X355895Y69468D01*
X354202Y71161D01*
X354202Y80223D01*
X355895Y81916D01*
X361453Y81916D01*
X361551Y81928D01*
X361650Y81931D01*
X361709Y81948D01*
X361769Y81956D01*
X361861Y81992D01*
X361956Y82020D01*
X362008Y82050D01*
X362064Y82073D01*
X362144Y82131D01*
X362230Y82181D01*
X362305Y82247D01*
X362322Y82259D01*
X362330Y82269D01*
X362351Y82287D01*
X381072Y101009D01*
X381145Y101103D01*
X381224Y101192D01*
X381242Y101228D01*
X381267Y101260D01*
X381315Y101370D01*
X381369Y101476D01*
X381378Y101515D01*
X381394Y101552D01*
X381412Y101670D01*
X381438Y101786D01*
X381437Y101826D01*
X381443Y101866D01*
X381432Y101985D01*
X381429Y102104D01*
X381417Y102143D01*
X381414Y102183D01*
X381373Y102295D01*
X381340Y102409D01*
X381320Y102444D01*
X381306Y102482D01*
X381239Y102581D01*
X381179Y102683D01*
X381139Y102728D01*
X381127Y102745D01*
X381112Y102759D01*
X381072Y102804D01*
X379601Y104276D01*
X379523Y104336D01*
X379451Y104404D01*
X379398Y104433D01*
X379350Y104470D01*
X379259Y104510D01*
X379172Y104558D01*
X379113Y104573D01*
X379058Y104597D01*
X378960Y104612D01*
X378864Y104637D01*
X378764Y104643D01*
X378744Y104647D01*
X378731Y104645D01*
X378703Y104647D01*
X369327Y104647D01*
X369228Y104635D01*
X369129Y104632D01*
X369071Y104615D01*
X369011Y104607D01*
X368919Y104571D01*
X368824Y104543D01*
X368772Y104513D01*
X368715Y104490D01*
X368635Y104432D01*
X368550Y104382D01*
X368475Y104316D01*
X368458Y104304D01*
X368450Y104294D01*
X368429Y104276D01*
X360927Y96773D01*
X321063Y96773D01*
X264667Y153169D01*
X264667Y188795D01*
X264650Y188933D01*
X264637Y189071D01*
X264630Y189090D01*
X264627Y189110D01*
X264576Y189240D01*
X264529Y189371D01*
X264518Y189387D01*
X264510Y189406D01*
X264429Y189519D01*
X264351Y189634D01*
X264335Y189647D01*
X264324Y189663D01*
X264216Y189752D01*
X264112Y189844D01*
X264094Y189853D01*
X264079Y189866D01*
X263953Y189925D01*
X263829Y189989D01*
X263809Y189993D01*
X263791Y190002D01*
X263655Y190028D01*
X263519Y190058D01*
X263498Y190058D01*
X263479Y190062D01*
X263340Y190053D01*
X263201Y190049D01*
X263181Y190043D01*
X263161Y190042D01*
X263029Y189999D01*
X262895Y189960D01*
X262878Y189950D01*
X262859Y189944D01*
X262741Y189870D01*
X262621Y189799D01*
X262600Y189780D01*
X262590Y189774D01*
X262576Y189759D01*
X262500Y189692D01*
X262291Y189483D01*
X261712Y189148D01*
X261065Y188975D01*
X258508Y188975D01*
X258508Y207073D01*
X258493Y207192D01*
X258485Y207310D01*
X258473Y207349D01*
X258468Y207389D01*
X258424Y207500D01*
X258387Y207613D01*
X258366Y207647D01*
X258351Y207685D01*
X258281Y207781D01*
X258217Y207881D01*
X258188Y207909D01*
X258164Y207942D01*
X258072Y208018D01*
X258068Y208022D01*
X258074Y208029D01*
X258107Y208053D01*
X258183Y208145D01*
X258265Y208232D01*
X258284Y208267D01*
X258310Y208298D01*
X258361Y208406D01*
X258418Y208510D01*
X258428Y208549D01*
X258445Y208586D01*
X258468Y208703D01*
X258498Y208818D01*
X258501Y208878D01*
X258505Y208898D01*
X258504Y208919D01*
X258508Y208979D01*
X258508Y227077D01*
X261065Y227077D01*
X261712Y226904D01*
X262291Y226569D01*
X262764Y226096D01*
X263099Y225517D01*
X263272Y224870D01*
X263272Y212655D01*
X263280Y212586D01*
X263279Y212516D01*
X263300Y212428D01*
X263312Y212339D01*
X263337Y212274D01*
X263354Y212206D01*
X263396Y212127D01*
X263429Y212044D01*
X263470Y211987D01*
X263502Y211925D01*
X263563Y211859D01*
X263615Y211786D01*
X263669Y211742D01*
X263716Y211690D01*
X263791Y211641D01*
X263860Y211583D01*
X263924Y211554D01*
X263982Y211515D01*
X264067Y211486D01*
X264148Y211448D01*
X264217Y211435D01*
X264283Y211412D01*
X264372Y211405D01*
X264460Y211388D01*
X264530Y211392D01*
X264600Y211387D01*
X264688Y211402D01*
X264778Y211408D01*
X264844Y211429D01*
X264913Y211441D01*
X264995Y211478D01*
X265080Y211506D01*
X265139Y211543D01*
X265203Y211572D01*
X265273Y211628D01*
X265349Y211676D01*
X265397Y211727D01*
X265451Y211770D01*
X265505Y211842D01*
X265567Y211908D01*
X265601Y211969D01*
X265643Y212025D01*
X265714Y212169D01*
X265905Y212631D01*
X266201Y212926D01*
X266261Y213005D01*
X266329Y213077D01*
X266358Y213130D01*
X266395Y213178D01*
X266435Y213269D01*
X266483Y213355D01*
X266498Y213414D01*
X266522Y213469D01*
X266537Y213567D01*
X266562Y213663D01*
X266568Y213763D01*
X266572Y213784D01*
X266570Y213796D01*
X266572Y213824D01*
X266572Y225273D01*
X267614Y226315D01*
X277978Y226315D01*
X279020Y225273D01*
X279020Y213824D01*
X279032Y213726D01*
X279035Y213627D01*
X279052Y213568D01*
X279060Y213508D01*
X279096Y213416D01*
X279124Y213321D01*
X279154Y213269D01*
X279177Y213213D01*
X279235Y213133D01*
X279285Y213047D01*
X279351Y212972D01*
X279363Y212955D01*
X279373Y212947D01*
X279391Y212926D01*
X279687Y212631D01*
X279878Y212169D01*
X279913Y212108D01*
X279939Y212044D01*
X279991Y211971D01*
X280036Y211893D01*
X280084Y211843D01*
X280125Y211786D01*
X280195Y211729D01*
X280257Y211664D01*
X280317Y211628D01*
X280370Y211583D01*
X280452Y211545D01*
X280528Y211498D01*
X280595Y211478D01*
X280658Y211448D01*
X280746Y211431D01*
X280832Y211404D01*
X280902Y211401D01*
X280971Y211388D01*
X281060Y211394D01*
X281150Y211389D01*
X281218Y211403D01*
X281288Y211408D01*
X281373Y211435D01*
X281461Y211454D01*
X281524Y211484D01*
X281590Y211506D01*
X281666Y211554D01*
X281747Y211593D01*
X281800Y211639D01*
X281859Y211676D01*
X281921Y211741D01*
X281989Y211800D01*
X282029Y211857D01*
X282077Y211908D01*
X282121Y211986D01*
X282172Y212060D01*
X282197Y212125D01*
X282231Y212186D01*
X282253Y212273D01*
X282285Y212357D01*
X282293Y212426D01*
X282310Y212494D01*
X282320Y212655D01*
X282320Y224870D01*
X282493Y225517D01*
X282828Y226096D01*
X283301Y226569D01*
X283880Y226904D01*
X284527Y227077D01*
X287084Y227077D01*
X287084Y208979D01*
X287099Y208860D01*
X287107Y208742D01*
X287119Y208703D01*
X287124Y208663D01*
X287168Y208552D01*
X287205Y208439D01*
X287226Y208405D01*
X287241Y208367D01*
X287311Y208271D01*
X287375Y208171D01*
X287404Y208143D01*
X287428Y208110D01*
X287520Y208034D01*
X287524Y208030D01*
X287518Y208023D01*
X287485Y207999D01*
X287409Y207907D01*
X287327Y207820D01*
X287308Y207785D01*
X287282Y207754D01*
X287231Y207646D01*
X287174Y207542D01*
X287164Y207503D01*
X287147Y207466D01*
X287124Y207349D01*
X287094Y207234D01*
X287091Y207174D01*
X287087Y207154D01*
X287088Y207133D01*
X287084Y207073D01*
X287084Y188975D01*
X284527Y188975D01*
X283880Y189148D01*
X283301Y189483D01*
X283092Y189692D01*
X282982Y189777D01*
X282875Y189866D01*
X282856Y189875D01*
X282840Y189887D01*
X282712Y189943D01*
X282587Y190002D01*
X282567Y190006D01*
X282548Y190014D01*
X282411Y190035D01*
X282274Y190062D01*
X282254Y190060D01*
X282234Y190064D01*
X282096Y190051D01*
X281957Y190042D01*
X281938Y190036D01*
X281918Y190034D01*
X281787Y189987D01*
X281655Y189944D01*
X281637Y189933D01*
X281618Y189926D01*
X281503Y189848D01*
X281386Y189774D01*
X281372Y189759D01*
X281355Y189748D01*
X281263Y189643D01*
X281168Y189542D01*
X281158Y189524D01*
X281145Y189509D01*
X281082Y189385D01*
X281014Y189264D01*
X281009Y189244D01*
X281000Y189226D01*
X280970Y189090D01*
X280935Y188956D01*
X280933Y188928D01*
X280930Y188916D01*
X280931Y188895D01*
X280925Y188795D01*
X280925Y188297D01*
X280937Y188199D01*
X280940Y188100D01*
X280957Y188041D01*
X280965Y187981D01*
X281001Y187889D01*
X281029Y187794D01*
X281059Y187742D01*
X281082Y187686D01*
X281140Y187606D01*
X281190Y187520D01*
X281256Y187445D01*
X281268Y187428D01*
X281278Y187420D01*
X281296Y187399D01*
X294587Y174108D01*
X294666Y174048D01*
X294738Y173980D01*
X294791Y173951D01*
X294839Y173914D01*
X294930Y173874D01*
X295016Y173826D01*
X295075Y173811D01*
X295130Y173787D01*
X295228Y173772D01*
X295324Y173747D01*
X295424Y173741D01*
X295445Y173737D01*
X295457Y173739D01*
X295485Y173737D01*
X318505Y173737D01*
X318604Y173749D01*
X318703Y173752D01*
X318761Y173769D01*
X318821Y173777D01*
X318913Y173813D01*
X319008Y173841D01*
X319060Y173871D01*
X319117Y173894D01*
X319197Y173952D01*
X319282Y174002D01*
X319357Y174068D01*
X319374Y174080D01*
X319382Y174090D01*
X319403Y174108D01*
X322970Y177675D01*
X323030Y177753D01*
X323098Y177825D01*
X323127Y177878D01*
X323164Y177926D01*
X323204Y178017D01*
X323252Y178104D01*
X323267Y178163D01*
X323291Y178218D01*
X323306Y178316D01*
X323331Y178412D01*
X323337Y178512D01*
X323341Y178532D01*
X323339Y178545D01*
X323341Y178573D01*
X323341Y215893D01*
X336049Y228601D01*
X348223Y228601D01*
X348322Y228613D01*
X348421Y228616D01*
X348479Y228633D01*
X348539Y228641D01*
X348631Y228677D01*
X348726Y228705D01*
X348778Y228735D01*
X348835Y228758D01*
X348915Y228816D01*
X349000Y228866D01*
X349075Y228932D01*
X349092Y228944D01*
X349100Y228954D01*
X349121Y228972D01*
X370976Y250827D01*
X371036Y250905D01*
X371104Y250977D01*
X371133Y251030D01*
X371170Y251078D01*
X371210Y251169D01*
X371258Y251256D01*
X371273Y251315D01*
X371297Y251370D01*
X371312Y251468D01*
X371337Y251564D01*
X371343Y251664D01*
X371347Y251684D01*
X371345Y251697D01*
X371347Y251725D01*
X371347Y267197D01*
X371335Y267296D01*
X371332Y267395D01*
X371315Y267453D01*
X371307Y267513D01*
X371271Y267605D01*
X371243Y267700D01*
X371213Y267752D01*
X371190Y267809D01*
X371132Y267889D01*
X371082Y267974D01*
X371016Y268049D01*
X371004Y268066D01*
X370994Y268074D01*
X370976Y268095D01*
X357377Y281693D01*
X357377Y297173D01*
X363481Y303277D01*
X379215Y303277D01*
X381372Y301119D01*
X397003Y285489D01*
X397003Y263547D01*
X397015Y263448D01*
X397018Y263349D01*
X397035Y263291D01*
X397043Y263231D01*
X397079Y263139D01*
X397107Y263044D01*
X397137Y262992D01*
X397160Y262935D01*
X397218Y262855D01*
X397268Y262770D01*
X397334Y262695D01*
X397346Y262678D01*
X397356Y262670D01*
X397374Y262649D01*
X399698Y260325D01*
X399776Y260265D01*
X399849Y260197D01*
X399902Y260168D01*
X399949Y260131D01*
X400040Y260091D01*
X400127Y260043D01*
X400186Y260028D01*
X400241Y260004D01*
X400339Y259989D01*
X400435Y259964D01*
X400535Y259958D01*
X400555Y259954D01*
X400568Y259956D01*
X400596Y259954D01*
X404602Y259954D01*
X404720Y259969D01*
X404839Y259976D01*
X404877Y259989D01*
X404918Y259994D01*
X405028Y260037D01*
X405141Y260074D01*
X405176Y260096D01*
X405213Y260111D01*
X405309Y260180D01*
X405410Y260244D01*
X405438Y260274D01*
X405471Y260297D01*
X405547Y260389D01*
X405628Y260476D01*
X405648Y260511D01*
X405673Y260542D01*
X405724Y260650D01*
X405782Y260754D01*
X405792Y260794D01*
X405809Y260830D01*
X405831Y260947D01*
X405861Y261062D01*
X405865Y261122D01*
X405869Y261142D01*
X405867Y261163D01*
X405871Y261223D01*
X405871Y268737D01*
X406237Y269102D01*
X406310Y269196D01*
X406389Y269286D01*
X406407Y269322D01*
X406432Y269354D01*
X406479Y269463D01*
X406533Y269569D01*
X406542Y269608D01*
X406558Y269646D01*
X406577Y269763D01*
X406603Y269879D01*
X406602Y269920D01*
X406608Y269960D01*
X406597Y270078D01*
X406593Y270197D01*
X406582Y270236D01*
X406578Y270276D01*
X406538Y270388D01*
X406505Y270503D01*
X406484Y270538D01*
X406471Y270576D01*
X406404Y270674D01*
X406343Y270777D01*
X406304Y270822D01*
X406292Y270839D01*
X406277Y270852D01*
X406237Y270897D01*
X405871Y271263D01*
X405871Y278737D01*
X406913Y279779D01*
X421887Y279779D01*
X422929Y278737D01*
X422929Y276958D01*
X422941Y276860D01*
X422944Y276761D01*
X422961Y276702D01*
X422969Y276642D01*
X423005Y276550D01*
X423033Y276455D01*
X423063Y276403D01*
X423086Y276347D01*
X423144Y276267D01*
X423194Y276181D01*
X423260Y276106D01*
X423272Y276089D01*
X423282Y276081D01*
X423300Y276060D01*
X436373Y262988D01*
X436373Y239544D01*
X436391Y239400D01*
X436406Y239254D01*
X436411Y239242D01*
X436413Y239228D01*
X436466Y239093D01*
X436517Y238956D01*
X436525Y238945D01*
X436530Y238933D01*
X436615Y238814D01*
X436698Y238695D01*
X436708Y238686D01*
X436716Y238675D01*
X436829Y238582D01*
X436939Y238487D01*
X436951Y238481D01*
X436961Y238472D01*
X437094Y238410D01*
X437224Y238345D01*
X437237Y238343D01*
X437249Y238337D01*
X437392Y238310D01*
X437535Y238279D01*
X437548Y238280D01*
X437561Y238277D01*
X437707Y238286D01*
X437853Y238292D01*
X437865Y238296D01*
X437879Y238297D01*
X438018Y238342D01*
X438157Y238384D01*
X438169Y238391D01*
X438181Y238395D01*
X438305Y238473D01*
X438429Y238548D01*
X438439Y238558D01*
X438450Y238565D01*
X438550Y238671D01*
X438652Y238775D01*
X438662Y238791D01*
X438668Y238797D01*
X438676Y238812D01*
X438741Y238909D01*
X439117Y239560D01*
X439590Y240033D01*
X440169Y240368D01*
X440816Y240541D01*
X448611Y240541D01*
X448611Y233270D01*
X448626Y233152D01*
X448633Y233033D01*
X448646Y232995D01*
X448651Y232955D01*
X448694Y232844D01*
X448731Y232731D01*
X448753Y232696D01*
X448768Y232659D01*
X448838Y232563D01*
X448901Y232462D01*
X448931Y232434D01*
X448955Y232402D01*
X449046Y232326D01*
X449133Y232244D01*
X449168Y232225D01*
X449199Y232199D01*
X449307Y232148D01*
X449411Y232091D01*
X449451Y232080D01*
X449487Y232063D01*
X449604Y232041D01*
X449719Y232011D01*
X449780Y232007D01*
X449800Y232003D01*
X449820Y232005D01*
X449880Y232001D01*
X452420Y232001D01*
X452538Y232016D01*
X452657Y232023D01*
X452695Y232036D01*
X452735Y232041D01*
X452846Y232085D01*
X452959Y232121D01*
X452994Y232143D01*
X453031Y232158D01*
X453127Y232228D01*
X453228Y232291D01*
X453256Y232321D01*
X453288Y232345D01*
X453364Y232436D01*
X453446Y232523D01*
X453465Y232558D01*
X453491Y232590D01*
X453542Y232697D01*
X453599Y232801D01*
X453610Y232841D01*
X453627Y232877D01*
X453649Y232994D01*
X453679Y233109D01*
X453683Y233170D01*
X453687Y233190D01*
X453685Y233210D01*
X453689Y233270D01*
X453689Y240541D01*
X459923Y240541D01*
X460041Y240556D01*
X460160Y240563D01*
X460198Y240575D01*
X460239Y240581D01*
X460349Y240624D01*
X460462Y240661D01*
X460497Y240683D01*
X460534Y240698D01*
X460630Y240767D01*
X460731Y240831D01*
X460759Y240861D01*
X460792Y240884D01*
X460868Y240976D01*
X460949Y241063D01*
X460969Y241098D01*
X460994Y241129D01*
X461045Y241237D01*
X461103Y241341D01*
X461113Y241381D01*
X461130Y241417D01*
X461152Y241534D01*
X461182Y241649D01*
X461186Y241709D01*
X461190Y241729D01*
X461188Y241750D01*
X461192Y241810D01*
X461192Y278190D01*
X461177Y278308D01*
X461170Y278427D01*
X461157Y278465D01*
X461152Y278506D01*
X461109Y278616D01*
X461072Y278729D01*
X461050Y278764D01*
X461035Y278801D01*
X460966Y278897D01*
X460902Y278998D01*
X460872Y279026D01*
X460849Y279059D01*
X460757Y279135D01*
X460670Y279216D01*
X460635Y279236D01*
X460604Y279261D01*
X460496Y279312D01*
X460392Y279370D01*
X460352Y279380D01*
X460316Y279397D01*
X460199Y279419D01*
X460084Y279449D01*
X460024Y279453D01*
X460004Y279457D01*
X459983Y279455D01*
X459923Y279459D01*
X453689Y279459D01*
X453689Y286730D01*
X453674Y286848D01*
X453667Y286967D01*
X453654Y287005D01*
X453649Y287045D01*
X453605Y287156D01*
X453569Y287269D01*
X453547Y287304D01*
X453532Y287341D01*
X453462Y287437D01*
X453399Y287538D01*
X453369Y287566D01*
X453345Y287598D01*
X453254Y287674D01*
X453167Y287756D01*
X453132Y287775D01*
X453100Y287801D01*
X452993Y287852D01*
X452889Y287909D01*
X452849Y287920D01*
X452813Y287937D01*
X452696Y287959D01*
X452581Y287989D01*
X452520Y287993D01*
X452500Y287997D01*
X452480Y287995D01*
X452420Y287999D01*
X451149Y287999D01*
X451149Y288001D01*
X452420Y288001D01*
X452538Y288016D01*
X452657Y288023D01*
X452695Y288036D01*
X452735Y288041D01*
X452846Y288085D01*
X452959Y288121D01*
X452994Y288143D01*
X453031Y288158D01*
X453127Y288228D01*
X453228Y288291D01*
X453256Y288321D01*
X453288Y288345D01*
X453364Y288436D01*
X453446Y288523D01*
X453465Y288558D01*
X453491Y288590D01*
X453542Y288697D01*
X453599Y288801D01*
X453610Y288841D01*
X453627Y288877D01*
X453649Y288994D01*
X453679Y289109D01*
X453683Y289170D01*
X453687Y289190D01*
X453685Y289210D01*
X453689Y289270D01*
X453689Y296541D01*
X459923Y296541D01*
X460041Y296556D01*
X460160Y296563D01*
X460198Y296575D01*
X460239Y296581D01*
X460349Y296624D01*
X460462Y296661D01*
X460497Y296683D01*
X460534Y296698D01*
X460630Y296767D01*
X460731Y296831D01*
X460759Y296861D01*
X460792Y296884D01*
X460868Y296976D01*
X460949Y297063D01*
X460969Y297098D01*
X460994Y297129D01*
X461045Y297237D01*
X461103Y297341D01*
X461113Y297381D01*
X461130Y297417D01*
X461152Y297534D01*
X461182Y297649D01*
X461186Y297709D01*
X461190Y297729D01*
X461188Y297750D01*
X461192Y297810D01*
X461192Y313359D01*
X461182Y313442D01*
X461181Y313526D01*
X461162Y313599D01*
X461152Y313674D01*
X461121Y313752D01*
X461100Y313834D01*
X461063Y313900D01*
X461035Y313970D01*
X460986Y314038D01*
X460945Y314111D01*
X460893Y314166D01*
X460849Y314227D01*
X460784Y314281D01*
X460726Y314342D01*
X460662Y314382D01*
X460604Y314430D01*
X460528Y314466D01*
X460456Y314510D01*
X460384Y314533D01*
X460316Y314566D01*
X460234Y314581D01*
X460153Y314607D01*
X460078Y314611D01*
X460004Y314625D01*
X459920Y314620D01*
X459836Y314625D01*
X459762Y314610D01*
X459686Y314606D01*
X459606Y314580D01*
X459524Y314563D01*
X459456Y314531D01*
X459384Y314508D01*
X459313Y314463D01*
X459237Y314426D01*
X459122Y314342D01*
X459115Y314337D01*
X459113Y314335D01*
X459107Y314331D01*
X451772Y308176D01*
X441738Y304524D01*
X431062Y304524D01*
X421028Y308176D01*
X412849Y315039D01*
X407511Y324285D01*
X405657Y334800D01*
X407511Y345315D01*
X412849Y354561D01*
X416174Y357351D01*
X416198Y357377D01*
X416226Y357397D01*
X416306Y357493D01*
X416390Y357584D01*
X416407Y357615D01*
X416429Y357642D01*
X416482Y357755D01*
X416541Y357864D01*
X416550Y357898D01*
X416565Y357930D01*
X416588Y358052D01*
X416618Y358172D01*
X416618Y358208D01*
X416625Y358243D01*
X416617Y358366D01*
X416616Y358490D01*
X416607Y358525D01*
X416605Y358560D01*
X416567Y358678D01*
X416535Y358798D01*
X416518Y358829D01*
X416507Y358862D01*
X416440Y358967D01*
X416380Y359076D01*
X416356Y359101D01*
X416337Y359131D01*
X416246Y359216D01*
X416161Y359306D01*
X416131Y359325D01*
X416105Y359349D01*
X415996Y359409D01*
X415891Y359475D01*
X415857Y359486D01*
X415826Y359503D01*
X415707Y359534D01*
X415588Y359571D01*
X415553Y359573D01*
X415519Y359582D01*
X415358Y359592D01*
X303784Y359592D01*
X303666Y359577D01*
X303547Y359570D01*
X303509Y359557D01*
X303468Y359552D01*
X303358Y359509D01*
X303245Y359472D01*
X303210Y359450D01*
X303173Y359435D01*
X303077Y359366D01*
X302976Y359302D01*
X302948Y359272D01*
X302915Y359249D01*
X302839Y359157D01*
X302758Y359070D01*
X302738Y359035D01*
X302713Y359004D01*
X302662Y358896D01*
X302604Y358792D01*
X302594Y358752D01*
X302577Y358716D01*
X302555Y358599D01*
X302525Y358484D01*
X302521Y358424D01*
X302517Y358404D01*
X302519Y358383D01*
X302515Y358323D01*
X302515Y265709D01*
X301473Y264667D01*
X211099Y264667D01*
X210057Y265709D01*
X210057Y358323D01*
X210042Y358441D01*
X210035Y358560D01*
X210022Y358598D01*
X210017Y358639D01*
X209974Y358749D01*
X209937Y358862D01*
X209915Y358897D01*
X209900Y358934D01*
X209831Y359030D01*
X209767Y359131D01*
X209737Y359159D01*
X209714Y359192D01*
X209622Y359268D01*
X209535Y359349D01*
X209500Y359369D01*
X209469Y359394D01*
X209361Y359445D01*
X209257Y359503D01*
X209217Y359513D01*
X209181Y359530D01*
X209064Y359552D01*
X208949Y359582D01*
X208889Y359586D01*
X208869Y359590D01*
X208848Y359588D01*
X208788Y359592D01*
X51042Y359592D01*
X51007Y359588D01*
X50972Y359590D01*
X50850Y359568D01*
X50727Y359552D01*
X50694Y359539D01*
X50659Y359533D01*
X50546Y359481D01*
X50431Y359435D01*
X50402Y359415D01*
X50370Y359400D01*
X50274Y359321D01*
X50174Y359249D01*
X50151Y359221D01*
X50124Y359199D01*
X50050Y359099D01*
X49971Y359004D01*
X49956Y358972D01*
X49935Y358943D01*
X49888Y358828D01*
X49835Y358716D01*
X49829Y358681D01*
X49815Y358648D01*
X49799Y358525D01*
X49775Y358404D01*
X49778Y358368D01*
X49773Y358333D01*
X49788Y358210D01*
X49795Y358086D01*
X49806Y358052D01*
X49810Y358017D01*
X49855Y357902D01*
X49893Y357784D01*
X49912Y357754D01*
X49925Y357721D01*
X49997Y357620D01*
X50063Y357515D01*
X50089Y357491D01*
X50110Y357462D01*
X50226Y357351D01*
X53551Y354561D01*
X58889Y345315D01*
X60743Y334800D01*
X58889Y324285D01*
X53551Y315039D01*
X45372Y308176D01*
X35338Y304524D01*
X24662Y304524D01*
X14628Y308176D01*
X7293Y314331D01*
X7222Y314377D01*
X7158Y314430D01*
X7089Y314462D01*
X7026Y314503D01*
X6946Y314530D01*
X6870Y314566D01*
X6796Y314580D01*
X6724Y314604D01*
X6640Y314610D01*
X6557Y314625D01*
X6482Y314621D01*
X6407Y314626D01*
X6324Y314611D01*
X6240Y314606D01*
X6168Y314582D01*
X6094Y314569D01*
X6017Y314533D01*
X5938Y314508D01*
X5874Y314467D01*
X5805Y314435D01*
X5740Y314382D01*
X5669Y314337D01*
X5617Y314282D01*
X5558Y314235D01*
X5509Y314167D01*
X5451Y314106D01*
X5414Y314040D01*
X5369Y313979D01*
X5338Y313901D01*
X5297Y313827D01*
X5279Y313754D01*
X5250Y313684D01*
X5239Y313601D01*
X5218Y313519D01*
X5209Y313377D01*
X5208Y313369D01*
X5208Y313365D01*
X5208Y313359D01*
X5208Y279362D01*
X5210Y279348D01*
X5208Y279333D01*
X5224Y279227D01*
X5230Y279129D01*
X5242Y279093D01*
X5248Y279047D01*
X5253Y279033D01*
X5255Y279018D01*
X5301Y278911D01*
X5328Y278826D01*
X5346Y278798D01*
X5365Y278751D01*
X5373Y278739D01*
X5379Y278726D01*
X5455Y278626D01*
X5498Y278558D01*
X5520Y278537D01*
X5551Y278494D01*
X5563Y278484D01*
X5572Y278473D01*
X5676Y278390D01*
X5730Y278340D01*
X5753Y278327D01*
X5796Y278291D01*
X5810Y278285D01*
X5821Y278275D01*
X5948Y278219D01*
X6008Y278186D01*
X6032Y278180D01*
X6084Y278155D01*
X6099Y278153D01*
X6112Y278147D01*
X6252Y278123D01*
X6316Y278107D01*
X6350Y278105D01*
X6396Y278096D01*
X6411Y278097D01*
X6426Y278094D01*
X6463Y278097D01*
X6477Y278096D01*
X6482Y278096D01*
X6542Y278104D01*
X6570Y278106D01*
X6714Y278115D01*
X6728Y278120D01*
X6743Y278121D01*
X6779Y278134D01*
X6798Y278136D01*
X6884Y278171D01*
X7016Y278213D01*
X7029Y278221D01*
X7043Y278226D01*
X7082Y278249D01*
X7093Y278253D01*
X7108Y278264D01*
X7182Y278307D01*
X7727Y278671D01*
X9345Y279341D01*
X10674Y279606D01*
X10719Y279577D01*
X10777Y279529D01*
X10854Y279493D01*
X10925Y279449D01*
X10997Y279426D01*
X11065Y279394D01*
X11148Y279378D01*
X11228Y279352D01*
X11304Y279348D01*
X11377Y279334D01*
X11462Y279339D01*
X11546Y279335D01*
X11686Y279353D01*
X11695Y279354D01*
X11698Y279355D01*
X11706Y279356D01*
X12666Y279547D01*
X12812Y279596D01*
X12957Y279643D01*
X12962Y279646D01*
X12967Y279648D01*
X12998Y279667D01*
X13002Y279667D01*
X13151Y279656D01*
X13160Y279658D01*
X13169Y279657D01*
X13191Y279660D01*
X13202Y279655D01*
X13341Y279588D01*
X13348Y279586D01*
X13351Y279585D01*
X13360Y279583D01*
X13496Y279547D01*
X14230Y279401D01*
X14240Y279400D01*
X14248Y279397D01*
X14397Y279389D01*
X14548Y279378D01*
X14557Y279380D01*
X14566Y279380D01*
X14726Y279401D01*
X14952Y279446D01*
X15098Y279495D01*
X15243Y279542D01*
X15248Y279545D01*
X15253Y279546D01*
X15379Y279628D01*
X15383Y279628D01*
X15392Y279625D01*
X15542Y279616D01*
X15691Y279606D01*
X15700Y279607D01*
X15709Y279607D01*
X15848Y279626D01*
X15848Y279625D01*
X15853Y279623D01*
X15857Y279619D01*
X15995Y279555D01*
X16135Y279487D01*
X16142Y279485D01*
X16145Y279484D01*
X16154Y279482D01*
X16290Y279446D01*
X16817Y279341D01*
X17012Y279260D01*
X17060Y279247D01*
X17105Y279226D01*
X17213Y279205D01*
X17319Y279176D01*
X17369Y279176D01*
X17418Y279166D01*
X17527Y279173D01*
X17637Y279171D01*
X17685Y279183D01*
X17735Y279186D01*
X17839Y279220D01*
X17946Y279245D01*
X17990Y279269D01*
X18037Y279284D01*
X18130Y279343D01*
X18227Y279394D01*
X18264Y279428D01*
X18306Y279454D01*
X18381Y279534D01*
X18428Y279576D01*
X19611Y279341D01*
X21229Y278671D01*
X22686Y277698D01*
X23924Y276460D01*
X24897Y275003D01*
X25567Y273385D01*
X25735Y272541D01*
X17498Y272541D01*
X17380Y272526D01*
X17261Y272519D01*
X17223Y272506D01*
X17183Y272501D01*
X17072Y272458D01*
X17024Y272442D01*
X17006Y272452D01*
X16967Y272462D01*
X16931Y272479D01*
X16814Y272501D01*
X16698Y272531D01*
X16638Y272535D01*
X16618Y272539D01*
X16598Y272537D01*
X16538Y272541D01*
X14704Y272541D01*
X14586Y272526D01*
X14467Y272519D01*
X14429Y272506D01*
X14389Y272501D01*
X14278Y272458D01*
X14230Y272442D01*
X14212Y272452D01*
X14173Y272462D01*
X14137Y272479D01*
X14020Y272501D01*
X13904Y272531D01*
X13844Y272535D01*
X13824Y272539D01*
X13804Y272537D01*
X13744Y272541D01*
X12418Y272541D01*
X12300Y272526D01*
X12181Y272519D01*
X12143Y272506D01*
X12103Y272501D01*
X11992Y272458D01*
X11944Y272442D01*
X11926Y272452D01*
X11887Y272462D01*
X11851Y272479D01*
X11734Y272501D01*
X11618Y272531D01*
X11558Y272535D01*
X11538Y272539D01*
X11518Y272537D01*
X11458Y272541D01*
X6477Y272541D01*
X6359Y272526D01*
X6240Y272519D01*
X6202Y272506D01*
X6161Y272501D01*
X6051Y272458D01*
X5938Y272421D01*
X5903Y272399D01*
X5866Y272384D01*
X5770Y272315D01*
X5669Y272251D01*
X5641Y272221D01*
X5608Y272198D01*
X5532Y272106D01*
X5451Y272019D01*
X5431Y271984D01*
X5406Y271953D01*
X5355Y271845D01*
X5297Y271741D01*
X5287Y271701D01*
X5270Y271665D01*
X5248Y271548D01*
X5218Y271433D01*
X5214Y271373D01*
X5210Y271353D01*
X5212Y271332D01*
X5208Y271272D01*
X5208Y270312D01*
X5223Y270194D01*
X5230Y270075D01*
X5243Y270037D01*
X5248Y269996D01*
X5291Y269886D01*
X5328Y269773D01*
X5350Y269738D01*
X5365Y269701D01*
X5434Y269604D01*
X5498Y269504D01*
X5528Y269476D01*
X5551Y269443D01*
X5643Y269367D01*
X5730Y269286D01*
X5765Y269266D01*
X5796Y269241D01*
X5904Y269190D01*
X6008Y269132D01*
X6048Y269122D01*
X6084Y269105D01*
X6201Y269083D01*
X6316Y269053D01*
X6376Y269049D01*
X6396Y269045D01*
X6417Y269047D01*
X6477Y269043D01*
X11458Y269043D01*
X11576Y269058D01*
X11695Y269065D01*
X11733Y269077D01*
X11773Y269083D01*
X11884Y269126D01*
X11932Y269142D01*
X11950Y269132D01*
X11989Y269122D01*
X12025Y269105D01*
X12142Y269083D01*
X12258Y269053D01*
X12318Y269049D01*
X12338Y269045D01*
X12358Y269047D01*
X12418Y269043D01*
X13744Y269043D01*
X13862Y269058D01*
X13981Y269065D01*
X14019Y269077D01*
X14059Y269083D01*
X14170Y269126D01*
X14218Y269142D01*
X14236Y269132D01*
X14275Y269122D01*
X14311Y269105D01*
X14428Y269083D01*
X14544Y269053D01*
X14604Y269049D01*
X14624Y269045D01*
X14644Y269047D01*
X14704Y269043D01*
X16538Y269043D01*
X16656Y269058D01*
X16775Y269065D01*
X16813Y269077D01*
X16853Y269083D01*
X16964Y269126D01*
X17012Y269142D01*
X17030Y269132D01*
X17069Y269122D01*
X17105Y269105D01*
X17222Y269083D01*
X17338Y269053D01*
X17398Y269049D01*
X17418Y269045D01*
X17438Y269047D01*
X17498Y269043D01*
X25735Y269043D01*
X25567Y268199D01*
X24897Y266581D01*
X23924Y265124D01*
X22686Y263886D01*
X21229Y262913D01*
X19611Y262243D01*
X18432Y262008D01*
X18424Y262020D01*
X18385Y262051D01*
X18353Y262089D01*
X18263Y262152D01*
X18179Y262222D01*
X18134Y262244D01*
X18093Y262272D01*
X17990Y262311D01*
X17891Y262358D01*
X17842Y262367D01*
X17796Y262385D01*
X17686Y262397D01*
X17579Y262418D01*
X17529Y262415D01*
X17480Y262420D01*
X17371Y262405D01*
X17261Y262398D01*
X17214Y262383D01*
X17165Y262376D01*
X17012Y262324D01*
X16817Y262243D01*
X16290Y262138D01*
X16143Y262089D01*
X15999Y262042D01*
X15994Y262039D01*
X15989Y262037D01*
X15863Y261956D01*
X15859Y261956D01*
X15850Y261959D01*
X15700Y261968D01*
X15551Y261978D01*
X15542Y261977D01*
X15533Y261977D01*
X15394Y261958D01*
X15394Y261959D01*
X15389Y261961D01*
X15385Y261965D01*
X15246Y262030D01*
X15107Y262097D01*
X15100Y262099D01*
X15097Y262100D01*
X15088Y262102D01*
X14952Y262138D01*
X14726Y262183D01*
X14716Y262184D01*
X14708Y262187D01*
X14559Y262195D01*
X14408Y262206D01*
X14399Y262204D01*
X14390Y262204D01*
X14230Y262183D01*
X13496Y262037D01*
X13349Y261988D01*
X13205Y261941D01*
X13200Y261938D01*
X13195Y261936D01*
X13164Y261917D01*
X13161Y261917D01*
X13011Y261928D01*
X13002Y261926D01*
X12993Y261927D01*
X12971Y261924D01*
X12961Y261928D01*
X12821Y261996D01*
X12814Y261998D01*
X12811Y261999D01*
X12802Y262001D01*
X12666Y262037D01*
X11706Y262228D01*
X11621Y262234D01*
X11538Y262250D01*
X11463Y262245D01*
X11388Y262251D01*
X11305Y262235D01*
X11221Y262230D01*
X11150Y262207D01*
X11075Y262193D01*
X10999Y262158D01*
X10919Y262132D01*
X10855Y262092D01*
X10787Y262060D01*
X10721Y262007D01*
X10676Y261978D01*
X9345Y262243D01*
X7727Y262913D01*
X7182Y263277D01*
X7169Y263284D01*
X7158Y263293D01*
X7027Y263354D01*
X6898Y263419D01*
X6883Y263422D01*
X6870Y263429D01*
X6729Y263456D01*
X6587Y263486D01*
X6572Y263486D01*
X6557Y263488D01*
X6414Y263479D01*
X6269Y263474D01*
X6255Y263469D01*
X6240Y263469D01*
X6102Y263424D01*
X5964Y263383D01*
X5952Y263375D01*
X5938Y263371D01*
X5815Y263293D01*
X5692Y263219D01*
X5681Y263208D01*
X5669Y263200D01*
X5570Y263095D01*
X5469Y262992D01*
X5461Y262980D01*
X5451Y262969D01*
X5381Y262843D01*
X5309Y262717D01*
X5305Y262703D01*
X5297Y262690D01*
X5261Y262551D01*
X5222Y262411D01*
X5222Y262397D01*
X5218Y262382D01*
X5208Y262222D01*
X5208Y257185D01*
X5223Y257060D01*
X5233Y256935D01*
X5243Y256903D01*
X5248Y256869D01*
X5294Y256753D01*
X5334Y256633D01*
X5352Y256605D01*
X5365Y256574D01*
X5438Y256472D01*
X5507Y256367D01*
X5532Y256344D01*
X5551Y256316D01*
X5648Y256236D01*
X5741Y256151D01*
X5770Y256135D01*
X5796Y256114D01*
X5910Y256060D01*
X6021Y256001D01*
X6054Y255992D01*
X6084Y255978D01*
X6208Y255954D01*
X6330Y255924D01*
X6363Y255925D01*
X6396Y255918D01*
X6522Y255926D01*
X6648Y255927D01*
X6696Y255937D01*
X6714Y255938D01*
X6734Y255945D01*
X6806Y255959D01*
X7185Y256061D01*
X11939Y256061D01*
X11939Y247170D01*
X11954Y247052D01*
X11961Y246933D01*
X11974Y246895D01*
X11979Y246855D01*
X12022Y246744D01*
X12059Y246631D01*
X12081Y246596D01*
X12096Y246559D01*
X12166Y246463D01*
X12229Y246362D01*
X12259Y246334D01*
X12283Y246302D01*
X12374Y246226D01*
X12461Y246144D01*
X12496Y246125D01*
X12527Y246099D01*
X12635Y246048D01*
X12739Y245991D01*
X12779Y245980D01*
X12815Y245963D01*
X12932Y245941D01*
X13047Y245911D01*
X13108Y245907D01*
X13128Y245903D01*
X13148Y245905D01*
X13208Y245901D01*
X14479Y245901D01*
X14479Y245899D01*
X13208Y245899D01*
X13090Y245884D01*
X12971Y245877D01*
X12933Y245864D01*
X12893Y245859D01*
X12782Y245815D01*
X12669Y245779D01*
X12634Y245757D01*
X12597Y245742D01*
X12501Y245672D01*
X12400Y245609D01*
X12372Y245579D01*
X12339Y245555D01*
X12264Y245464D01*
X12182Y245377D01*
X12162Y245342D01*
X12137Y245310D01*
X12086Y245203D01*
X12028Y245099D01*
X12018Y245059D01*
X12001Y245023D01*
X11979Y244906D01*
X11949Y244791D01*
X11945Y244730D01*
X11941Y244710D01*
X11943Y244690D01*
X11939Y244630D01*
X11939Y226850D01*
X11954Y226732D01*
X11961Y226613D01*
X11974Y226575D01*
X11979Y226535D01*
X12022Y226424D01*
X12059Y226311D01*
X12081Y226276D01*
X12096Y226239D01*
X12166Y226143D01*
X12229Y226042D01*
X12259Y226014D01*
X12283Y225982D01*
X12374Y225906D01*
X12461Y225824D01*
X12496Y225805D01*
X12527Y225779D01*
X12635Y225728D01*
X12739Y225671D01*
X12779Y225660D01*
X12815Y225643D01*
X12932Y225621D01*
X13047Y225591D01*
X13108Y225587D01*
X13128Y225583D01*
X13148Y225585D01*
X13208Y225581D01*
X14479Y225581D01*
X14479Y225579D01*
X13208Y225579D01*
X13090Y225564D01*
X12971Y225557D01*
X12933Y225544D01*
X12893Y225539D01*
X12782Y225495D01*
X12669Y225459D01*
X12634Y225437D01*
X12597Y225422D01*
X12501Y225352D01*
X12400Y225289D01*
X12372Y225259D01*
X12339Y225235D01*
X12264Y225144D01*
X12182Y225057D01*
X12162Y225022D01*
X12137Y224990D01*
X12086Y224883D01*
X12028Y224779D01*
X12018Y224739D01*
X12001Y224703D01*
X11979Y224586D01*
X11949Y224471D01*
X11945Y224410D01*
X11941Y224390D01*
X11943Y224370D01*
X11939Y224310D01*
X11939Y215419D01*
X7185Y215419D01*
X6806Y215521D01*
X6681Y215538D01*
X6557Y215562D01*
X6524Y215560D01*
X6490Y215564D01*
X6365Y215550D01*
X6240Y215542D01*
X6208Y215532D01*
X6175Y215528D01*
X6057Y215483D01*
X5938Y215444D01*
X5909Y215426D01*
X5878Y215414D01*
X5775Y215341D01*
X5669Y215274D01*
X5646Y215249D01*
X5618Y215230D01*
X5537Y215134D01*
X5451Y215042D01*
X5435Y215013D01*
X5413Y214987D01*
X5358Y214874D01*
X5297Y214764D01*
X5289Y214731D01*
X5274Y214701D01*
X5249Y214577D01*
X5218Y214456D01*
X5215Y214407D01*
X5211Y214389D01*
X5212Y214367D01*
X5208Y214295D01*
X5208Y209258D01*
X5210Y209244D01*
X5208Y209229D01*
X5229Y209086D01*
X5248Y208943D01*
X5253Y208929D01*
X5255Y208914D01*
X5311Y208782D01*
X5365Y208647D01*
X5373Y208635D01*
X5379Y208622D01*
X5466Y208507D01*
X5551Y208390D01*
X5563Y208380D01*
X5572Y208369D01*
X5685Y208279D01*
X5796Y208187D01*
X5810Y208181D01*
X5821Y208171D01*
X5954Y208113D01*
X6084Y208051D01*
X6099Y208049D01*
X6112Y208043D01*
X6255Y208019D01*
X6396Y207992D01*
X6411Y207993D01*
X6426Y207990D01*
X6570Y208002D01*
X6714Y208011D01*
X6728Y208016D01*
X6743Y208017D01*
X6879Y208065D01*
X7016Y208109D01*
X7029Y208117D01*
X7043Y208122D01*
X7182Y208203D01*
X7727Y208567D01*
X9345Y209237D01*
X10613Y209489D01*
X10693Y209433D01*
X10777Y209363D01*
X10822Y209342D01*
X10863Y209313D01*
X10966Y209274D01*
X11065Y209227D01*
X11114Y209218D01*
X11161Y209200D01*
X11270Y209188D01*
X11377Y209167D01*
X11427Y209171D01*
X11477Y209165D01*
X11586Y209180D01*
X11695Y209187D01*
X11742Y209203D01*
X11792Y209210D01*
X11855Y209231D01*
X12666Y209392D01*
X12813Y209442D01*
X12957Y209488D01*
X12962Y209491D01*
X12967Y209493D01*
X13044Y209542D01*
X13128Y209538D01*
X13277Y209527D01*
X13287Y209529D01*
X13296Y209528D01*
X13375Y209539D01*
X13454Y209501D01*
X13595Y209434D01*
X13602Y209432D01*
X13605Y209430D01*
X13614Y209429D01*
X13750Y209392D01*
X14230Y209297D01*
X14240Y209296D01*
X14249Y209293D01*
X14397Y209285D01*
X14548Y209274D01*
X14557Y209276D01*
X14566Y209276D01*
X14726Y209297D01*
X15206Y209392D01*
X15353Y209442D01*
X15497Y209488D01*
X15502Y209491D01*
X15507Y209493D01*
X15584Y209542D01*
X15668Y209538D01*
X15818Y209527D01*
X15827Y209529D01*
X15836Y209528D01*
X15915Y209539D01*
X15996Y209501D01*
X16135Y209434D01*
X16142Y209432D01*
X16145Y209430D01*
X16154Y209429D01*
X16290Y209392D01*
X17094Y209233D01*
X17105Y209227D01*
X17213Y209207D01*
X17318Y209178D01*
X17369Y209177D01*
X17418Y209167D01*
X17527Y209174D01*
X17636Y209172D01*
X17685Y209184D01*
X17735Y209187D01*
X17839Y209221D01*
X17946Y209246D01*
X17990Y209270D01*
X18037Y209285D01*
X18130Y209344D01*
X18227Y209395D01*
X18264Y209429D01*
X18306Y209455D01*
X18339Y209490D01*
X19611Y209237D01*
X21229Y208567D01*
X22686Y207594D01*
X23924Y206356D01*
X24897Y204899D01*
X25567Y203281D01*
X25735Y202437D01*
X17498Y202437D01*
X17380Y202422D01*
X17261Y202415D01*
X17223Y202402D01*
X17183Y202397D01*
X17072Y202354D01*
X17024Y202338D01*
X17006Y202348D01*
X16967Y202358D01*
X16931Y202375D01*
X16814Y202397D01*
X16698Y202427D01*
X16638Y202431D01*
X16618Y202435D01*
X16598Y202433D01*
X16538Y202437D01*
X14958Y202437D01*
X14840Y202422D01*
X14721Y202415D01*
X14683Y202402D01*
X14643Y202397D01*
X14532Y202354D01*
X14484Y202338D01*
X14466Y202348D01*
X14427Y202358D01*
X14391Y202375D01*
X14274Y202397D01*
X14158Y202427D01*
X14098Y202431D01*
X14078Y202435D01*
X14058Y202433D01*
X13998Y202437D01*
X12418Y202437D01*
X12300Y202422D01*
X12181Y202415D01*
X12143Y202402D01*
X12103Y202397D01*
X11992Y202354D01*
X11944Y202338D01*
X11926Y202348D01*
X11887Y202358D01*
X11851Y202375D01*
X11734Y202397D01*
X11618Y202427D01*
X11558Y202431D01*
X11538Y202435D01*
X11518Y202433D01*
X11458Y202437D01*
X6477Y202437D01*
X6359Y202422D01*
X6240Y202415D01*
X6202Y202402D01*
X6161Y202397D01*
X6051Y202354D01*
X5938Y202317D01*
X5903Y202295D01*
X5866Y202280D01*
X5770Y202211D01*
X5669Y202147D01*
X5641Y202117D01*
X5608Y202094D01*
X5532Y202002D01*
X5451Y201915D01*
X5431Y201880D01*
X5406Y201849D01*
X5355Y201741D01*
X5297Y201637D01*
X5287Y201597D01*
X5270Y201561D01*
X5248Y201444D01*
X5218Y201329D01*
X5214Y201269D01*
X5210Y201249D01*
X5212Y201228D01*
X5208Y201168D01*
X5208Y200208D01*
X5223Y200090D01*
X5230Y199971D01*
X5243Y199933D01*
X5248Y199892D01*
X5291Y199782D01*
X5328Y199669D01*
X5350Y199634D01*
X5365Y199597D01*
X5434Y199500D01*
X5498Y199400D01*
X5528Y199372D01*
X5551Y199339D01*
X5643Y199263D01*
X5730Y199182D01*
X5765Y199162D01*
X5796Y199137D01*
X5904Y199086D01*
X6008Y199028D01*
X6048Y199018D01*
X6084Y199001D01*
X6201Y198979D01*
X6316Y198949D01*
X6376Y198945D01*
X6396Y198941D01*
X6417Y198943D01*
X6477Y198939D01*
X11458Y198939D01*
X11576Y198954D01*
X11695Y198961D01*
X11733Y198973D01*
X11773Y198979D01*
X11884Y199022D01*
X11932Y199038D01*
X11950Y199028D01*
X11989Y199018D01*
X12025Y199001D01*
X12142Y198979D01*
X12258Y198949D01*
X12318Y198945D01*
X12338Y198941D01*
X12358Y198943D01*
X12418Y198939D01*
X13998Y198939D01*
X14116Y198954D01*
X14235Y198961D01*
X14273Y198973D01*
X14313Y198979D01*
X14424Y199022D01*
X14472Y199038D01*
X14490Y199028D01*
X14529Y199018D01*
X14565Y199001D01*
X14682Y198979D01*
X14798Y198949D01*
X14858Y198945D01*
X14878Y198941D01*
X14898Y198943D01*
X14958Y198939D01*
X16538Y198939D01*
X16656Y198954D01*
X16775Y198961D01*
X16813Y198973D01*
X16853Y198979D01*
X16964Y199022D01*
X17012Y199038D01*
X17030Y199028D01*
X17069Y199018D01*
X17105Y199001D01*
X17222Y198979D01*
X17338Y198949D01*
X17398Y198945D01*
X17418Y198941D01*
X17438Y198943D01*
X17498Y198939D01*
X25735Y198939D01*
X25567Y198095D01*
X24897Y196477D01*
X23924Y195020D01*
X22686Y193782D01*
X21229Y192809D01*
X19611Y192139D01*
X18343Y191887D01*
X18263Y191943D01*
X18179Y192013D01*
X18133Y192035D01*
X18093Y192063D01*
X17990Y192102D01*
X17891Y192149D01*
X17842Y192158D01*
X17795Y192176D01*
X17686Y192188D01*
X17579Y192209D01*
X17529Y192205D01*
X17479Y192211D01*
X17371Y192196D01*
X17261Y192189D01*
X17214Y192173D01*
X17164Y192166D01*
X17101Y192145D01*
X16290Y191984D01*
X16143Y191934D01*
X15999Y191888D01*
X15994Y191885D01*
X15989Y191883D01*
X15912Y191834D01*
X15828Y191838D01*
X15679Y191849D01*
X15669Y191847D01*
X15660Y191848D01*
X15581Y191837D01*
X15500Y191875D01*
X15361Y191942D01*
X15354Y191944D01*
X15351Y191946D01*
X15342Y191947D01*
X15206Y191984D01*
X14726Y192079D01*
X14716Y192080D01*
X14708Y192083D01*
X14559Y192091D01*
X14408Y192102D01*
X14399Y192100D01*
X14390Y192100D01*
X14230Y192079D01*
X13750Y191984D01*
X13604Y191935D01*
X13459Y191888D01*
X13454Y191885D01*
X13449Y191883D01*
X13372Y191834D01*
X13288Y191838D01*
X13138Y191849D01*
X13129Y191847D01*
X13120Y191848D01*
X13041Y191837D01*
X12960Y191875D01*
X12821Y191942D01*
X12814Y191944D01*
X12811Y191946D01*
X12802Y191947D01*
X12666Y191984D01*
X11862Y192143D01*
X11851Y192149D01*
X11743Y192169D01*
X11637Y192198D01*
X11587Y192199D01*
X11538Y192209D01*
X11429Y192202D01*
X11319Y192204D01*
X11271Y192192D01*
X11221Y192189D01*
X11117Y192155D01*
X11010Y192129D01*
X10966Y192106D01*
X10919Y192091D01*
X10826Y192032D01*
X10729Y191981D01*
X10692Y191947D01*
X10650Y191921D01*
X10617Y191886D01*
X9345Y192139D01*
X7727Y192809D01*
X7182Y193173D01*
X7169Y193180D01*
X7158Y193189D01*
X7027Y193250D01*
X6898Y193315D01*
X6883Y193318D01*
X6870Y193325D01*
X6729Y193352D01*
X6587Y193382D01*
X6572Y193382D01*
X6557Y193384D01*
X6414Y193375D01*
X6269Y193370D01*
X6255Y193365D01*
X6240Y193365D01*
X6102Y193320D01*
X5964Y193279D01*
X5952Y193271D01*
X5938Y193267D01*
X5815Y193189D01*
X5692Y193115D01*
X5681Y193104D01*
X5669Y193096D01*
X5570Y192991D01*
X5469Y192888D01*
X5461Y192876D01*
X5451Y192865D01*
X5381Y192739D01*
X5309Y192613D01*
X5305Y192599D01*
X5297Y192586D01*
X5261Y192447D01*
X5222Y192307D01*
X5222Y192293D01*
X5218Y192278D01*
X5208Y192118D01*
X5208Y51441D01*
X5218Y51358D01*
X5219Y51274D01*
X5238Y51201D01*
X5248Y51126D01*
X5279Y51048D01*
X5300Y50966D01*
X5337Y50900D01*
X5365Y50830D01*
X5414Y50762D01*
X5455Y50689D01*
X5507Y50634D01*
X5551Y50573D01*
X5616Y50519D01*
X5674Y50458D01*
X5738Y50418D01*
X5796Y50370D01*
X5872Y50334D01*
X5944Y50290D01*
X6016Y50267D01*
X6084Y50234D01*
X6166Y50219D01*
X6247Y50193D01*
X6322Y50189D01*
X6396Y50175D01*
X6480Y50180D01*
X6564Y50175D01*
X6638Y50190D01*
X6714Y50194D01*
X6794Y50220D01*
X6876Y50237D01*
X6944Y50269D01*
X7016Y50292D01*
X7087Y50337D01*
X7163Y50374D01*
X7278Y50458D01*
X7285Y50463D01*
X7287Y50465D01*
X7293Y50469D01*
X14628Y56624D01*
X24662Y60276D01*
X35338Y60276D01*
X45372Y56624D01*
X53551Y49761D01*
X58083Y41911D01*
X58171Y41796D01*
X58256Y41677D01*
X58267Y41669D01*
X58275Y41658D01*
X58389Y41568D01*
X58501Y41475D01*
X58514Y41469D01*
X58524Y41460D01*
X58658Y41401D01*
X58789Y41339D01*
X58802Y41337D01*
X58815Y41331D01*
X58959Y41306D01*
X59102Y41279D01*
X59115Y41280D01*
X59128Y41278D01*
X59274Y41290D01*
X59419Y41299D01*
X59432Y41303D01*
X59445Y41304D01*
X59583Y41352D01*
X59721Y41397D01*
X59733Y41404D01*
X59746Y41409D01*
X59867Y41489D01*
X59990Y41567D01*
X59999Y41577D01*
X60011Y41585D01*
X60108Y41693D01*
X60208Y41799D01*
X60215Y41811D01*
X60224Y41821D01*
X60291Y41950D01*
X60362Y42077D01*
X60365Y42090D01*
X60371Y42102D01*
X60405Y42244D01*
X60441Y42385D01*
X60442Y42404D01*
X60444Y42412D01*
X60444Y42429D01*
X60451Y42546D01*
X60451Y71363D01*
X60439Y71462D01*
X60436Y71561D01*
X60419Y71619D01*
X60411Y71679D01*
X60375Y71771D01*
X60347Y71866D01*
X60317Y71918D01*
X60294Y71975D01*
X60236Y72055D01*
X60186Y72140D01*
X60120Y72216D01*
X60108Y72232D01*
X60098Y72240D01*
X60080Y72261D01*
X21207Y111134D01*
X19049Y113291D01*
X19049Y139693D01*
X27439Y148083D01*
X38597Y148083D01*
X38696Y148095D01*
X38795Y148098D01*
X38853Y148115D01*
X38913Y148123D01*
X39005Y148159D01*
X39100Y148187D01*
X39152Y148217D01*
X39209Y148240D01*
X39289Y148298D01*
X39374Y148348D01*
X39449Y148414D01*
X39466Y148426D01*
X39474Y148436D01*
X39495Y148454D01*
X51952Y160911D01*
X52012Y160989D01*
X52080Y161061D01*
X52109Y161114D01*
X52146Y161162D01*
X52186Y161253D01*
X52234Y161340D01*
X52249Y161399D01*
X52273Y161454D01*
X52288Y161552D01*
X52313Y161648D01*
X52319Y161748D01*
X52323Y161768D01*
X52321Y161781D01*
X52323Y161809D01*
X52323Y192017D01*
X59445Y199138D01*
X59505Y199216D01*
X59573Y199288D01*
X59602Y199341D01*
X59639Y199389D01*
X59679Y199480D01*
X59727Y199567D01*
X59742Y199626D01*
X59766Y199681D01*
X59781Y199779D01*
X59806Y199875D01*
X59812Y199975D01*
X59816Y199995D01*
X59814Y200008D01*
X59816Y200036D01*
X59816Y237942D01*
X59804Y238040D01*
X59801Y238140D01*
X59784Y238198D01*
X59776Y238258D01*
X59740Y238350D01*
X59712Y238445D01*
X59682Y238497D01*
X59659Y238554D01*
X59601Y238634D01*
X59551Y238719D01*
X59485Y238794D01*
X59473Y238811D01*
X59463Y238819D01*
X59445Y238840D01*
X54027Y244258D01*
X53949Y244318D01*
X53876Y244386D01*
X53823Y244415D01*
X53776Y244452D01*
X53685Y244492D01*
X53598Y244540D01*
X53539Y244555D01*
X53484Y244579D01*
X53386Y244594D01*
X53290Y244619D01*
X53190Y244625D01*
X53170Y244629D01*
X53157Y244627D01*
X53129Y244629D01*
X51181Y244629D01*
X51063Y244614D01*
X50944Y244607D01*
X50906Y244594D01*
X50865Y244589D01*
X50755Y244546D01*
X50642Y244509D01*
X50607Y244487D01*
X50570Y244472D01*
X50474Y244403D01*
X50373Y244339D01*
X50345Y244309D01*
X50312Y244286D01*
X50236Y244194D01*
X50155Y244107D01*
X50135Y244072D01*
X50110Y244041D01*
X50059Y243933D01*
X50001Y243829D01*
X49991Y243789D01*
X49974Y243753D01*
X49952Y243636D01*
X49922Y243521D01*
X49918Y243461D01*
X49914Y243441D01*
X49916Y243420D01*
X49912Y243360D01*
X49912Y239573D01*
X49861Y239473D01*
X49852Y239434D01*
X49836Y239397D01*
X49817Y239279D01*
X49791Y239163D01*
X49792Y239122D01*
X49786Y239082D01*
X49797Y238964D01*
X49801Y238845D01*
X49812Y238806D01*
X49816Y238766D01*
X49856Y238654D01*
X49889Y238539D01*
X49910Y238505D01*
X49912Y238498D01*
X49912Y232969D01*
X49861Y232869D01*
X49852Y232830D01*
X49836Y232793D01*
X49817Y232675D01*
X49791Y232559D01*
X49792Y232518D01*
X49786Y232478D01*
X49797Y232360D01*
X49801Y232241D01*
X49812Y232202D01*
X49816Y232162D01*
X49856Y232050D01*
X49889Y231935D01*
X49910Y231901D01*
X49912Y231894D01*
X49912Y226756D01*
X49923Y226664D01*
X49925Y226572D01*
X49943Y226507D01*
X49952Y226440D01*
X49986Y226355D01*
X50010Y226266D01*
X50062Y226160D01*
X50069Y226145D01*
X50074Y226138D01*
X50082Y226121D01*
X50487Y225420D01*
X50674Y224722D01*
X50674Y223801D01*
X41402Y223801D01*
X32130Y223801D01*
X32130Y224722D01*
X32317Y225420D01*
X32722Y226121D01*
X32758Y226206D01*
X32803Y226287D01*
X32819Y226352D01*
X32845Y226414D01*
X32859Y226506D01*
X32882Y226595D01*
X32889Y226712D01*
X32892Y226729D01*
X32891Y226738D01*
X32892Y226756D01*
X32892Y231907D01*
X32943Y232007D01*
X32952Y232047D01*
X32968Y232084D01*
X32987Y232201D01*
X33013Y232318D01*
X33012Y232358D01*
X33018Y232398D01*
X33007Y232516D01*
X33003Y232635D01*
X32992Y232674D01*
X32988Y232714D01*
X32948Y232827D01*
X32915Y232941D01*
X32894Y232976D01*
X32892Y232982D01*
X32892Y238511D01*
X32943Y238611D01*
X32952Y238651D01*
X32968Y238688D01*
X32987Y238805D01*
X33013Y238922D01*
X33012Y238962D01*
X33018Y239002D01*
X33007Y239120D01*
X33003Y239239D01*
X32992Y239278D01*
X32988Y239318D01*
X32948Y239430D01*
X32915Y239545D01*
X32894Y239580D01*
X32892Y239586D01*
X32892Y245115D01*
X32943Y245215D01*
X32952Y245255D01*
X32968Y245292D01*
X32987Y245409D01*
X33013Y245526D01*
X33012Y245566D01*
X33018Y245606D01*
X33007Y245724D01*
X33003Y245843D01*
X32992Y245882D01*
X32988Y245922D01*
X32948Y246035D01*
X32915Y246149D01*
X32894Y246184D01*
X32892Y246190D01*
X32892Y251598D01*
X34180Y252886D01*
X34276Y253009D01*
X34370Y253128D01*
X34372Y253133D01*
X34375Y253137D01*
X34437Y253279D01*
X34499Y253419D01*
X34500Y253424D01*
X34502Y253429D01*
X34526Y253582D01*
X34551Y253732D01*
X34551Y253738D01*
X34552Y253743D01*
X34537Y253898D01*
X34524Y254049D01*
X34522Y254054D01*
X34522Y254060D01*
X34470Y254204D01*
X34419Y254349D01*
X34415Y254356D01*
X34414Y254359D01*
X34409Y254366D01*
X34338Y254489D01*
X33798Y255298D01*
X33151Y256859D01*
X32856Y258344D01*
X32859Y258349D01*
X32882Y258421D01*
X32914Y258489D01*
X32930Y258572D01*
X32956Y258653D01*
X32960Y258728D01*
X32974Y258801D01*
X32969Y258886D01*
X32973Y258970D01*
X32955Y259110D01*
X32954Y259119D01*
X32953Y259122D01*
X32952Y259130D01*
X32821Y259787D01*
X32821Y260207D01*
X32857Y260384D01*
X32857Y260394D01*
X32860Y260403D01*
X32868Y260553D01*
X32879Y260702D01*
X32877Y260711D01*
X32878Y260720D01*
X32857Y260880D01*
X32821Y261057D01*
X32821Y261477D01*
X32952Y262134D01*
X32958Y262219D01*
X32974Y262302D01*
X32969Y262377D01*
X32975Y262452D01*
X32959Y262535D01*
X32954Y262619D01*
X32931Y262690D01*
X32917Y262764D01*
X32882Y262841D01*
X32856Y262921D01*
X32856Y262922D01*
X33151Y264405D01*
X33798Y265966D01*
X34737Y267372D01*
X35932Y268567D01*
X37338Y269506D01*
X38899Y270153D01*
X39653Y270303D01*
X39653Y262382D01*
X39668Y262264D01*
X39675Y262145D01*
X39687Y262107D01*
X39693Y262067D01*
X39736Y261956D01*
X39752Y261908D01*
X39742Y261890D01*
X39732Y261851D01*
X39715Y261815D01*
X39693Y261698D01*
X39663Y261582D01*
X39659Y261522D01*
X39655Y261502D01*
X39657Y261482D01*
X39653Y261422D01*
X39653Y261112D01*
X39668Y260994D01*
X39675Y260875D01*
X39687Y260837D01*
X39693Y260797D01*
X39736Y260686D01*
X39752Y260638D01*
X39742Y260620D01*
X39732Y260581D01*
X39715Y260545D01*
X39693Y260428D01*
X39663Y260312D01*
X39659Y260252D01*
X39655Y260232D01*
X39657Y260212D01*
X39653Y260152D01*
X39653Y259842D01*
X39668Y259724D01*
X39675Y259605D01*
X39687Y259567D01*
X39693Y259527D01*
X39736Y259416D01*
X39752Y259368D01*
X39742Y259350D01*
X39732Y259311D01*
X39715Y259275D01*
X39693Y259158D01*
X39663Y259042D01*
X39659Y258982D01*
X39655Y258962D01*
X39657Y258942D01*
X39653Y258882D01*
X39653Y254536D01*
X39668Y254418D01*
X39675Y254299D01*
X39687Y254261D01*
X39693Y254220D01*
X39736Y254110D01*
X39773Y253997D01*
X39795Y253962D01*
X39810Y253925D01*
X39879Y253829D01*
X39943Y253728D01*
X39973Y253700D01*
X39996Y253667D01*
X40088Y253591D01*
X40175Y253510D01*
X40210Y253490D01*
X40241Y253465D01*
X40349Y253414D01*
X40453Y253356D01*
X40493Y253346D01*
X40529Y253329D01*
X40646Y253307D01*
X40761Y253277D01*
X40821Y253273D01*
X40841Y253269D01*
X40862Y253271D01*
X40922Y253267D01*
X41882Y253267D01*
X42000Y253282D01*
X42119Y253289D01*
X42157Y253302D01*
X42198Y253307D01*
X42308Y253350D01*
X42421Y253387D01*
X42456Y253409D01*
X42493Y253424D01*
X42589Y253493D01*
X42690Y253557D01*
X42718Y253587D01*
X42751Y253610D01*
X42827Y253702D01*
X42908Y253789D01*
X42928Y253824D01*
X42953Y253855D01*
X43004Y253963D01*
X43062Y254067D01*
X43072Y254107D01*
X43089Y254143D01*
X43111Y254260D01*
X43141Y254375D01*
X43145Y254435D01*
X43149Y254455D01*
X43147Y254476D01*
X43151Y254536D01*
X43151Y258882D01*
X43136Y259000D01*
X43129Y259119D01*
X43116Y259157D01*
X43111Y259197D01*
X43068Y259308D01*
X43052Y259356D01*
X43062Y259374D01*
X43072Y259413D01*
X43089Y259449D01*
X43111Y259566D01*
X43141Y259682D01*
X43145Y259742D01*
X43149Y259762D01*
X43147Y259782D01*
X43151Y259842D01*
X43151Y260152D01*
X43136Y260270D01*
X43129Y260389D01*
X43116Y260427D01*
X43111Y260467D01*
X43068Y260578D01*
X43052Y260626D01*
X43062Y260644D01*
X43072Y260683D01*
X43089Y260719D01*
X43111Y260836D01*
X43141Y260952D01*
X43145Y261012D01*
X43149Y261032D01*
X43147Y261052D01*
X43151Y261112D01*
X43151Y261422D01*
X43136Y261540D01*
X43129Y261659D01*
X43116Y261697D01*
X43111Y261737D01*
X43068Y261848D01*
X43052Y261896D01*
X43062Y261914D01*
X43072Y261953D01*
X43089Y261989D01*
X43111Y262106D01*
X43141Y262222D01*
X43145Y262282D01*
X43149Y262302D01*
X43147Y262322D01*
X43151Y262382D01*
X43151Y270303D01*
X43905Y270153D01*
X45466Y269506D01*
X46872Y268567D01*
X48067Y267372D01*
X49006Y265966D01*
X49653Y264405D01*
X49948Y262920D01*
X49945Y262915D01*
X49922Y262843D01*
X49890Y262775D01*
X49874Y262692D01*
X49848Y262611D01*
X49844Y262536D01*
X49830Y262463D01*
X49835Y262378D01*
X49831Y262294D01*
X49849Y262154D01*
X49850Y262145D01*
X49851Y262142D01*
X49852Y262134D01*
X49983Y261477D01*
X49983Y261057D01*
X49947Y260880D01*
X49947Y260870D01*
X49944Y260861D01*
X49936Y260712D01*
X49925Y260562D01*
X49927Y260553D01*
X49926Y260544D01*
X49947Y260384D01*
X49983Y260207D01*
X49983Y259787D01*
X49852Y259130D01*
X49846Y259045D01*
X49830Y258962D01*
X49835Y258887D01*
X49829Y258812D01*
X49845Y258729D01*
X49850Y258645D01*
X49873Y258573D01*
X49887Y258500D01*
X49922Y258423D01*
X49948Y258343D01*
X49948Y258342D01*
X49653Y256859D01*
X49006Y255298D01*
X48969Y255241D01*
X48962Y255228D01*
X48952Y255217D01*
X48891Y255086D01*
X48826Y254957D01*
X48823Y254942D01*
X48817Y254929D01*
X48790Y254787D01*
X48759Y254646D01*
X48760Y254631D01*
X48757Y254616D01*
X48766Y254473D01*
X48772Y254328D01*
X48776Y254314D01*
X48777Y254299D01*
X48821Y254162D01*
X48863Y254023D01*
X48870Y254011D01*
X48875Y253997D01*
X48952Y253875D01*
X49027Y253751D01*
X49037Y253740D01*
X49045Y253728D01*
X49151Y253629D01*
X49253Y253528D01*
X49266Y253520D01*
X49277Y253510D01*
X49403Y253440D01*
X49528Y253368D01*
X49542Y253364D01*
X49555Y253356D01*
X49695Y253320D01*
X49834Y253281D01*
X49849Y253281D01*
X49863Y253277D01*
X50024Y253267D01*
X53129Y253267D01*
X53227Y253279D01*
X53327Y253282D01*
X53385Y253299D01*
X53445Y253307D01*
X53537Y253343D01*
X53632Y253371D01*
X53684Y253401D01*
X53741Y253424D01*
X53821Y253482D01*
X53906Y253532D01*
X53981Y253598D01*
X53998Y253610D01*
X54006Y253620D01*
X54027Y253638D01*
X54613Y254224D01*
X56900Y255172D01*
X59376Y255172D01*
X61663Y254224D01*
X71316Y244571D01*
X72264Y242284D01*
X72264Y199782D01*
X72276Y199683D01*
X72279Y199584D01*
X72296Y199526D01*
X72304Y199466D01*
X72340Y199374D01*
X72368Y199279D01*
X72398Y199227D01*
X72421Y199170D01*
X72479Y199090D01*
X72529Y199005D01*
X72595Y198930D01*
X72607Y198913D01*
X72617Y198905D01*
X72635Y198884D01*
X78995Y192525D01*
X78995Y153931D01*
X63872Y138809D01*
X63812Y138731D01*
X63744Y138659D01*
X63715Y138606D01*
X63678Y138558D01*
X63638Y138467D01*
X63590Y138380D01*
X63575Y138321D01*
X63551Y138266D01*
X63536Y138168D01*
X63511Y138072D01*
X63505Y137972D01*
X63501Y137952D01*
X63503Y137939D01*
X63501Y137911D01*
X63501Y122185D01*
X63513Y122086D01*
X63516Y121987D01*
X63533Y121929D01*
X63541Y121869D01*
X63577Y121777D01*
X63605Y121682D01*
X63635Y121630D01*
X63658Y121573D01*
X63716Y121493D01*
X63766Y121408D01*
X63832Y121333D01*
X63844Y121316D01*
X63854Y121308D01*
X63872Y121287D01*
X85981Y99178D01*
X86059Y99118D01*
X86131Y99050D01*
X86184Y99021D01*
X86232Y98984D01*
X86323Y98944D01*
X86410Y98896D01*
X86469Y98881D01*
X86524Y98857D01*
X86622Y98842D01*
X86718Y98817D01*
X86818Y98811D01*
X86838Y98807D01*
X86851Y98809D01*
X86879Y98807D01*
X137915Y98807D01*
X175515Y61207D01*
X175515Y22867D01*
X169411Y16763D01*
X148343Y16763D01*
X137921Y27185D01*
X137921Y47741D01*
X137909Y47840D01*
X137906Y47939D01*
X137889Y47997D01*
X137881Y48057D01*
X137845Y48149D01*
X137817Y48244D01*
X137787Y48296D01*
X137764Y48353D01*
X137706Y48433D01*
X137656Y48518D01*
X137590Y48593D01*
X137578Y48610D01*
X137568Y48618D01*
X137550Y48639D01*
X129665Y56524D01*
X129587Y56584D01*
X129515Y56652D01*
X129462Y56681D01*
X129414Y56718D01*
X129323Y56758D01*
X129236Y56806D01*
X129177Y56821D01*
X129122Y56845D01*
X129024Y56860D01*
X128928Y56885D01*
X128828Y56891D01*
X128808Y56895D01*
X128795Y56893D01*
X128767Y56895D01*
X100595Y56895D01*
X100496Y56883D01*
X100397Y56880D01*
X100339Y56863D01*
X100279Y56855D01*
X100187Y56819D01*
X100092Y56791D01*
X100040Y56761D01*
X99983Y56738D01*
X99903Y56680D01*
X99818Y56630D01*
X99743Y56564D01*
X99726Y56552D01*
X99718Y56542D01*
X99697Y56524D01*
X98416Y55243D01*
X98356Y55165D01*
X98288Y55093D01*
X98259Y55040D01*
X98222Y54992D01*
X98182Y54901D01*
X98134Y54814D01*
X98119Y54755D01*
X98095Y54700D01*
X98080Y54602D01*
X98055Y54506D01*
X98049Y54406D01*
X98045Y54386D01*
X98047Y54373D01*
X98045Y54345D01*
X98045Y23629D01*
X90925Y16509D01*
X69349Y16509D01*
X61735Y24123D01*
X61712Y24141D01*
X61694Y24163D01*
X61587Y24238D01*
X61484Y24318D01*
X61457Y24330D01*
X61434Y24346D01*
X61312Y24393D01*
X61192Y24445D01*
X61163Y24449D01*
X61137Y24459D01*
X61007Y24474D01*
X60878Y24495D01*
X60849Y24492D01*
X60821Y24495D01*
X60692Y24477D01*
X60561Y24465D01*
X60534Y24455D01*
X60506Y24451D01*
X60385Y24401D01*
X60262Y24357D01*
X60238Y24341D01*
X60212Y24330D01*
X60107Y24252D01*
X59999Y24179D01*
X59980Y24157D01*
X59957Y24140D01*
X59875Y24038D01*
X59788Y23940D01*
X59775Y23915D01*
X59757Y23892D01*
X59703Y23774D01*
X59644Y23657D01*
X59637Y23629D01*
X59626Y23603D01*
X59588Y23446D01*
X58889Y19485D01*
X53551Y10239D01*
X50226Y7449D01*
X50202Y7423D01*
X50174Y7403D01*
X50094Y7307D01*
X50010Y7216D01*
X49993Y7185D01*
X49971Y7158D01*
X49918Y7045D01*
X49859Y6936D01*
X49850Y6902D01*
X49835Y6870D01*
X49812Y6748D01*
X49782Y6628D01*
X49782Y6592D01*
X49775Y6557D01*
X49783Y6434D01*
X49784Y6310D01*
X49793Y6275D01*
X49795Y6240D01*
X49833Y6122D01*
X49865Y6002D01*
X49882Y5971D01*
X49893Y5938D01*
X49960Y5833D01*
X50020Y5724D01*
X50044Y5699D01*
X50063Y5669D01*
X50154Y5584D01*
X50239Y5494D01*
X50269Y5475D01*
X50295Y5451D01*
X50404Y5391D01*
X50509Y5325D01*
X50543Y5314D01*
X50574Y5297D01*
X50693Y5266D01*
X50812Y5229D01*
X50847Y5227D01*
X50881Y5218D01*
X51042Y5208D01*
X415358Y5208D01*
X415393Y5212D01*
G37*
%LPC*%
G36*
X201937Y96519D02*
X201937Y96519D01*
X196849Y101607D01*
X196849Y123179D01*
X196837Y123278D01*
X196834Y123377D01*
X196817Y123435D01*
X196809Y123495D01*
X196773Y123587D01*
X196745Y123682D01*
X196715Y123734D01*
X196692Y123791D01*
X196634Y123871D01*
X196584Y123956D01*
X196518Y124031D01*
X196506Y124048D01*
X196496Y124056D01*
X196478Y124077D01*
X191261Y129293D01*
X191152Y129378D01*
X191045Y129467D01*
X191026Y129475D01*
X191010Y129488D01*
X190882Y129543D01*
X190757Y129602D01*
X190737Y129606D01*
X190718Y129614D01*
X190580Y129636D01*
X190444Y129662D01*
X190424Y129661D01*
X190404Y129664D01*
X190265Y129651D01*
X190127Y129642D01*
X190108Y129636D01*
X190088Y129634D01*
X189956Y129587D01*
X189825Y129544D01*
X189807Y129534D01*
X189788Y129527D01*
X189673Y129449D01*
X189556Y129374D01*
X189542Y129359D01*
X189525Y129348D01*
X189433Y129244D01*
X189338Y129143D01*
X189328Y129125D01*
X189315Y129110D01*
X189251Y128986D01*
X189184Y128864D01*
X189179Y128845D01*
X189170Y128826D01*
X189140Y128691D01*
X189105Y128556D01*
X189103Y128528D01*
X189100Y128516D01*
X189101Y128496D01*
X189095Y128395D01*
X189095Y119445D01*
X180593Y119445D01*
X180593Y131947D01*
X185543Y131947D01*
X185681Y131964D01*
X185820Y131977D01*
X185839Y131984D01*
X185859Y131987D01*
X185988Y132038D01*
X186119Y132085D01*
X186136Y132096D01*
X186155Y132104D01*
X186267Y132185D01*
X186382Y132263D01*
X186396Y132279D01*
X186412Y132290D01*
X186501Y132398D01*
X186593Y132502D01*
X186602Y132520D01*
X186615Y132535D01*
X186674Y132661D01*
X186737Y132785D01*
X186742Y132805D01*
X186750Y132823D01*
X186776Y132959D01*
X186807Y133095D01*
X186806Y133116D01*
X186810Y133135D01*
X186802Y133274D01*
X186797Y133413D01*
X186792Y133433D01*
X186790Y133453D01*
X186748Y133585D01*
X186709Y133719D01*
X186699Y133736D01*
X186692Y133755D01*
X186618Y133873D01*
X186547Y133993D01*
X186529Y134014D01*
X186522Y134024D01*
X186507Y134038D01*
X186441Y134113D01*
X182497Y138058D01*
X182419Y138118D01*
X182347Y138186D01*
X182294Y138215D01*
X182246Y138252D01*
X182155Y138292D01*
X182068Y138340D01*
X182009Y138355D01*
X181954Y138379D01*
X181856Y138394D01*
X181760Y138419D01*
X181660Y138425D01*
X181640Y138429D01*
X181627Y138427D01*
X181599Y138429D01*
X168663Y138429D01*
X162051Y145041D01*
X162051Y169665D01*
X164209Y171823D01*
X165478Y173092D01*
X165479Y173092D01*
X166252Y173865D01*
X168409Y176023D01*
X187953Y176023D01*
X194819Y169157D01*
X194819Y160793D01*
X194831Y160694D01*
X194834Y160595D01*
X194851Y160537D01*
X194859Y160477D01*
X194895Y160385D01*
X194923Y160290D01*
X194953Y160238D01*
X194976Y160181D01*
X195034Y160101D01*
X195084Y160016D01*
X195150Y159941D01*
X195162Y159924D01*
X195172Y159916D01*
X195190Y159895D01*
X201805Y153280D01*
X201883Y153220D01*
X201955Y153152D01*
X202008Y153123D01*
X202056Y153086D01*
X202147Y153046D01*
X202234Y152998D01*
X202293Y152983D01*
X202348Y152959D01*
X202446Y152944D01*
X202542Y152919D01*
X202642Y152913D01*
X202662Y152909D01*
X202675Y152911D01*
X202703Y152909D01*
X218937Y152909D01*
X219036Y152921D01*
X219135Y152924D01*
X219193Y152941D01*
X219253Y152949D01*
X219345Y152985D01*
X219440Y153013D01*
X219492Y153043D01*
X219549Y153066D01*
X219629Y153124D01*
X219714Y153174D01*
X219789Y153240D01*
X219806Y153252D01*
X219814Y153262D01*
X219835Y153280D01*
X228736Y162181D01*
X228796Y162259D01*
X228864Y162331D01*
X228893Y162384D01*
X228930Y162432D01*
X228970Y162523D01*
X229018Y162610D01*
X229033Y162669D01*
X229057Y162724D01*
X229072Y162822D01*
X229097Y162918D01*
X229103Y163018D01*
X229107Y163038D01*
X229105Y163051D01*
X229107Y163079D01*
X229107Y182619D01*
X233181Y186692D01*
X233241Y186770D01*
X233309Y186842D01*
X233338Y186895D01*
X233375Y186943D01*
X233415Y187034D01*
X233463Y187121D01*
X233478Y187180D01*
X233502Y187235D01*
X233517Y187333D01*
X233542Y187429D01*
X233548Y187529D01*
X233552Y187549D01*
X233550Y187562D01*
X233552Y187590D01*
X233552Y189600D01*
X233535Y189738D01*
X233522Y189877D01*
X233515Y189896D01*
X233512Y189916D01*
X233461Y190045D01*
X233414Y190176D01*
X233403Y190193D01*
X233395Y190212D01*
X233314Y190324D01*
X233236Y190439D01*
X233220Y190453D01*
X233209Y190469D01*
X233101Y190558D01*
X232997Y190650D01*
X232979Y190659D01*
X232964Y190672D01*
X232838Y190731D01*
X232714Y190794D01*
X232694Y190799D01*
X232676Y190807D01*
X232540Y190833D01*
X232404Y190864D01*
X232383Y190863D01*
X232364Y190867D01*
X232225Y190859D01*
X232086Y190854D01*
X232066Y190849D01*
X232046Y190847D01*
X231914Y190805D01*
X231780Y190766D01*
X231763Y190756D01*
X231744Y190749D01*
X231626Y190675D01*
X231506Y190604D01*
X231485Y190586D01*
X231475Y190579D01*
X231461Y190564D01*
X231386Y190498D01*
X227702Y186815D01*
X225545Y184657D01*
X162063Y184657D01*
X161964Y184645D01*
X161865Y184642D01*
X161807Y184625D01*
X161747Y184617D01*
X161655Y184581D01*
X161560Y184553D01*
X161508Y184523D01*
X161451Y184500D01*
X161371Y184442D01*
X161286Y184392D01*
X161211Y184326D01*
X161194Y184314D01*
X161186Y184304D01*
X161165Y184286D01*
X115180Y138301D01*
X115120Y138223D01*
X115052Y138151D01*
X115023Y138098D01*
X114986Y138050D01*
X114946Y137959D01*
X114898Y137872D01*
X114883Y137813D01*
X114859Y137758D01*
X114844Y137660D01*
X114819Y137564D01*
X114813Y137464D01*
X114809Y137444D01*
X114811Y137431D01*
X114809Y137403D01*
X114809Y130309D01*
X94989Y110489D01*
X78747Y110489D01*
X70229Y119008D01*
X68071Y121165D01*
X68071Y136645D01*
X118500Y187073D01*
X118560Y187151D01*
X118628Y187223D01*
X118657Y187276D01*
X118694Y187324D01*
X118734Y187415D01*
X118782Y187502D01*
X118797Y187561D01*
X118799Y187566D01*
X118809Y187587D01*
X118810Y187590D01*
X118821Y187616D01*
X118836Y187714D01*
X118861Y187810D01*
X118866Y187884D01*
X118869Y187899D01*
X118868Y187913D01*
X118871Y187930D01*
X118869Y187943D01*
X118871Y187971D01*
X118871Y226307D01*
X128277Y235713D01*
X148075Y235713D01*
X162943Y220844D01*
X163021Y220784D01*
X163093Y220716D01*
X163146Y220687D01*
X163194Y220650D01*
X163285Y220610D01*
X163372Y220562D01*
X163431Y220547D01*
X163486Y220523D01*
X163584Y220508D01*
X163680Y220483D01*
X163780Y220477D01*
X163800Y220473D01*
X163813Y220475D01*
X163841Y220473D01*
X206237Y220473D01*
X206336Y220485D01*
X206435Y220488D01*
X206493Y220505D01*
X206553Y220513D01*
X206645Y220549D01*
X206740Y220577D01*
X206792Y220607D01*
X206849Y220630D01*
X206929Y220688D01*
X207014Y220738D01*
X207089Y220804D01*
X207106Y220816D01*
X207114Y220826D01*
X207135Y220844D01*
X215399Y229109D01*
X228339Y229109D01*
X231966Y225482D01*
X232060Y225408D01*
X232149Y225330D01*
X232185Y225311D01*
X232217Y225287D01*
X232327Y225239D01*
X232433Y225185D01*
X232472Y225176D01*
X232509Y225160D01*
X232627Y225142D01*
X232743Y225116D01*
X232783Y225117D01*
X232823Y225110D01*
X232942Y225122D01*
X233061Y225125D01*
X233100Y225136D01*
X233140Y225140D01*
X233252Y225180D01*
X233366Y225214D01*
X233401Y225234D01*
X233439Y225248D01*
X233538Y225315D01*
X233640Y225375D01*
X233685Y225415D01*
X233702Y225426D01*
X233716Y225442D01*
X233761Y225482D01*
X234594Y226315D01*
X244958Y226315D01*
X246000Y225273D01*
X246000Y187336D01*
X246012Y187237D01*
X246015Y187138D01*
X246032Y187080D01*
X246040Y187020D01*
X246076Y186928D01*
X246104Y186833D01*
X246134Y186780D01*
X246157Y186724D01*
X246215Y186644D01*
X246265Y186559D01*
X246331Y186484D01*
X246343Y186467D01*
X246353Y186459D01*
X246372Y186438D01*
X246753Y186057D01*
X250191Y182619D01*
X250191Y109481D01*
X237229Y96519D01*
X201937Y96519D01*
G37*
%LPD*%
G36*
X438502Y70879D02*
X438502Y70879D01*
X438601Y70882D01*
X438659Y70899D01*
X438720Y70907D01*
X438812Y70943D01*
X438907Y70971D01*
X438959Y71001D01*
X439015Y71024D01*
X439095Y71082D01*
X439181Y71132D01*
X439256Y71198D01*
X439273Y71210D01*
X439280Y71220D01*
X439302Y71239D01*
X445652Y77589D01*
X445712Y77667D01*
X445780Y77739D01*
X445801Y77777D01*
X445822Y77802D01*
X445829Y77817D01*
X445846Y77840D01*
X445886Y77931D01*
X445934Y78017D01*
X445946Y78066D01*
X445957Y78089D01*
X445959Y78100D01*
X445973Y78132D01*
X445988Y78230D01*
X446013Y78325D01*
X446019Y78425D01*
X446023Y78446D01*
X446021Y78458D01*
X446023Y78486D01*
X446023Y93980D01*
X446011Y94078D01*
X446008Y94177D01*
X445991Y94235D01*
X445983Y94296D01*
X445947Y94388D01*
X445919Y94483D01*
X445889Y94535D01*
X445866Y94591D01*
X445808Y94671D01*
X445758Y94757D01*
X445692Y94832D01*
X445680Y94849D01*
X445670Y94856D01*
X445652Y94878D01*
X439302Y101228D01*
X439223Y101288D01*
X439151Y101356D01*
X439098Y101385D01*
X439050Y101422D01*
X438959Y101462D01*
X438873Y101510D01*
X438814Y101525D01*
X438758Y101549D01*
X438660Y101564D01*
X438565Y101589D01*
X438465Y101595D01*
X438444Y101599D01*
X438432Y101597D01*
X438404Y101599D01*
X411752Y101599D01*
X382660Y130692D01*
X382581Y130752D01*
X382509Y130820D01*
X382456Y130849D01*
X382408Y130886D01*
X382317Y130926D01*
X382231Y130974D01*
X382172Y130989D01*
X382116Y131013D01*
X382018Y131028D01*
X381923Y131053D01*
X381823Y131059D01*
X381802Y131063D01*
X381790Y131061D01*
X381762Y131063D01*
X363746Y131063D01*
X361187Y133622D01*
X361187Y167114D01*
X368064Y173991D01*
X379476Y173991D01*
X379574Y174003D01*
X379673Y174006D01*
X379731Y174023D01*
X379792Y174031D01*
X379884Y174067D01*
X379979Y174095D01*
X380031Y174125D01*
X380087Y174148D01*
X380167Y174206D01*
X380253Y174256D01*
X380328Y174322D01*
X380345Y174334D01*
X380352Y174344D01*
X380374Y174363D01*
X381898Y175887D01*
X381958Y175965D01*
X382026Y176037D01*
X382055Y176090D01*
X382092Y176138D01*
X382132Y176229D01*
X382180Y176315D01*
X382195Y176374D01*
X382219Y176430D01*
X382234Y176528D01*
X382259Y176623D01*
X382265Y176723D01*
X382269Y176744D01*
X382267Y176756D01*
X382269Y176784D01*
X382269Y178816D01*
X382257Y178914D01*
X382254Y179013D01*
X382237Y179071D01*
X382229Y179132D01*
X382193Y179224D01*
X382165Y179319D01*
X382135Y179371D01*
X382112Y179427D01*
X382054Y179507D01*
X382004Y179593D01*
X381938Y179668D01*
X381926Y179685D01*
X381916Y179692D01*
X381898Y179714D01*
X377951Y183660D01*
X377951Y233408D01*
X396884Y252341D01*
X396944Y252419D01*
X397012Y252491D01*
X397041Y252544D01*
X397078Y252592D01*
X397118Y252683D01*
X397166Y252769D01*
X397181Y252828D01*
X397205Y252884D01*
X397220Y252982D01*
X397245Y253077D01*
X397251Y253177D01*
X397255Y253198D01*
X397253Y253210D01*
X397255Y253238D01*
X397255Y259588D01*
X397243Y259686D01*
X397240Y259785D01*
X397223Y259843D01*
X397215Y259904D01*
X397179Y259996D01*
X397151Y260091D01*
X397121Y260143D01*
X397098Y260199D01*
X397040Y260279D01*
X396990Y260365D01*
X396924Y260440D01*
X396912Y260457D01*
X396902Y260464D01*
X396884Y260486D01*
X395223Y262146D01*
X395223Y284226D01*
X395211Y284324D01*
X395208Y284423D01*
X395191Y284481D01*
X395183Y284542D01*
X395147Y284634D01*
X395119Y284729D01*
X395089Y284781D01*
X395066Y284837D01*
X395008Y284917D01*
X394958Y285003D01*
X394892Y285078D01*
X394880Y285095D01*
X394870Y285102D01*
X394852Y285124D01*
X378850Y301126D01*
X378771Y301186D01*
X378699Y301254D01*
X378646Y301283D01*
X378598Y301320D01*
X378507Y301360D01*
X378421Y301408D01*
X378362Y301423D01*
X378306Y301447D01*
X378208Y301462D01*
X378113Y301487D01*
X378013Y301493D01*
X377992Y301497D01*
X377980Y301495D01*
X377952Y301497D01*
X364744Y301497D01*
X364646Y301485D01*
X364547Y301482D01*
X364489Y301465D01*
X364428Y301457D01*
X364336Y301421D01*
X364241Y301393D01*
X364189Y301363D01*
X364133Y301340D01*
X364053Y301282D01*
X363967Y301232D01*
X363892Y301166D01*
X363875Y301154D01*
X363868Y301144D01*
X363847Y301126D01*
X359529Y296808D01*
X359468Y296729D01*
X359400Y296657D01*
X359371Y296604D01*
X359334Y296556D01*
X359294Y296465D01*
X359246Y296379D01*
X359231Y296320D01*
X359207Y296264D01*
X359192Y296166D01*
X359167Y296071D01*
X359161Y295971D01*
X359157Y295950D01*
X359159Y295938D01*
X359157Y295910D01*
X359157Y282956D01*
X359169Y282858D01*
X359172Y282759D01*
X359189Y282701D01*
X359197Y282640D01*
X359233Y282548D01*
X359261Y282453D01*
X359291Y282401D01*
X359314Y282345D01*
X359372Y282265D01*
X359422Y282179D01*
X359488Y282104D01*
X359500Y282087D01*
X359510Y282080D01*
X359529Y282059D01*
X373127Y268460D01*
X373127Y250462D01*
X349486Y226821D01*
X337312Y226821D01*
X337214Y226809D01*
X337115Y226806D01*
X337057Y226789D01*
X336996Y226781D01*
X336904Y226745D01*
X336809Y226717D01*
X336757Y226687D01*
X336701Y226664D01*
X336621Y226606D01*
X336535Y226556D01*
X336460Y226490D01*
X336443Y226478D01*
X336436Y226468D01*
X336415Y226450D01*
X325493Y215528D01*
X325432Y215449D01*
X325364Y215377D01*
X325335Y215324D01*
X325298Y215276D01*
X325258Y215185D01*
X325210Y215099D01*
X325195Y215040D01*
X325171Y214984D01*
X325156Y214886D01*
X325131Y214791D01*
X325125Y214691D01*
X325121Y214670D01*
X325123Y214658D01*
X325121Y214630D01*
X325121Y177310D01*
X319768Y171957D01*
X294150Y171957D01*
X279028Y187080D01*
X278949Y187140D01*
X278877Y187208D01*
X278824Y187237D01*
X278776Y187274D01*
X278685Y187314D01*
X278599Y187362D01*
X278540Y187377D01*
X278484Y187401D01*
X278386Y187416D01*
X278291Y187441D01*
X278191Y187447D01*
X278170Y187451D01*
X278158Y187449D01*
X278130Y187451D01*
X267716Y187451D01*
X267598Y187436D01*
X267479Y187429D01*
X267441Y187416D01*
X267400Y187411D01*
X267290Y187368D01*
X267177Y187331D01*
X267142Y187309D01*
X267105Y187294D01*
X267009Y187225D01*
X266908Y187161D01*
X266880Y187131D01*
X266847Y187108D01*
X266772Y187016D01*
X266690Y186929D01*
X266670Y186894D01*
X266645Y186863D01*
X266594Y186755D01*
X266536Y186651D01*
X266526Y186611D01*
X266509Y186575D01*
X266487Y186458D01*
X266457Y186343D01*
X266453Y186283D01*
X266449Y186263D01*
X266451Y186242D01*
X266447Y186182D01*
X266447Y154432D01*
X266459Y154334D01*
X266462Y154235D01*
X266479Y154177D01*
X266487Y154116D01*
X266523Y154024D01*
X266551Y153929D01*
X266581Y153877D01*
X266604Y153821D01*
X266662Y153741D01*
X266712Y153655D01*
X266778Y153580D01*
X266790Y153563D01*
X266800Y153556D01*
X266819Y153535D01*
X321429Y98925D01*
X321507Y98864D01*
X321579Y98796D01*
X321632Y98767D01*
X321680Y98730D01*
X321771Y98690D01*
X321857Y98642D01*
X321916Y98627D01*
X321972Y98603D01*
X322070Y98588D01*
X322165Y98563D01*
X322265Y98557D01*
X322286Y98553D01*
X322298Y98555D01*
X322326Y98553D01*
X359664Y98553D01*
X359762Y98565D01*
X359861Y98568D01*
X359919Y98585D01*
X359980Y98593D01*
X360072Y98629D01*
X360167Y98657D01*
X360219Y98687D01*
X360275Y98710D01*
X360355Y98768D01*
X360441Y98818D01*
X360516Y98884D01*
X360533Y98896D01*
X360540Y98906D01*
X360562Y98925D01*
X368064Y106427D01*
X379966Y106427D01*
X415155Y71239D01*
X415233Y71178D01*
X415305Y71110D01*
X415358Y71081D01*
X415406Y71044D01*
X415497Y71004D01*
X415583Y70956D01*
X415642Y70941D01*
X415698Y70917D01*
X415796Y70902D01*
X415891Y70877D01*
X415991Y70871D01*
X416012Y70867D01*
X416024Y70869D01*
X416052Y70867D01*
X438404Y70867D01*
X438502Y70879D01*
G37*
G36*
X89760Y18301D02*
X89760Y18301D01*
X89859Y18304D01*
X89917Y18321D01*
X89978Y18329D01*
X90070Y18365D01*
X90165Y18393D01*
X90217Y18423D01*
X90273Y18446D01*
X90353Y18504D01*
X90439Y18554D01*
X90514Y18620D01*
X90531Y18632D01*
X90538Y18642D01*
X90560Y18661D01*
X95894Y23995D01*
X95954Y24073D01*
X96022Y24145D01*
X96051Y24198D01*
X96088Y24246D01*
X96128Y24337D01*
X96176Y24423D01*
X96191Y24482D01*
X96215Y24538D01*
X96230Y24636D01*
X96255Y24731D01*
X96261Y24831D01*
X96265Y24852D01*
X96263Y24864D01*
X96265Y24892D01*
X96265Y55608D01*
X99332Y58675D01*
X130030Y58675D01*
X139701Y49004D01*
X139701Y28448D01*
X139713Y28350D01*
X139716Y28251D01*
X139728Y28210D01*
X139728Y28206D01*
X139733Y28191D01*
X139741Y28132D01*
X139777Y28040D01*
X139805Y27945D01*
X139823Y27914D01*
X139826Y27903D01*
X139840Y27882D01*
X139858Y27837D01*
X139916Y27757D01*
X139966Y27671D01*
X139992Y27642D01*
X139997Y27635D01*
X140008Y27624D01*
X140032Y27596D01*
X140044Y27579D01*
X140054Y27572D01*
X140073Y27551D01*
X148709Y18915D01*
X148787Y18854D01*
X148859Y18786D01*
X148912Y18757D01*
X148960Y18720D01*
X149051Y18680D01*
X149137Y18632D01*
X149196Y18617D01*
X149252Y18593D01*
X149350Y18578D01*
X149445Y18553D01*
X149545Y18547D01*
X149566Y18543D01*
X149578Y18545D01*
X149606Y18543D01*
X168148Y18543D01*
X168246Y18555D01*
X168345Y18558D01*
X168403Y18575D01*
X168464Y18583D01*
X168556Y18619D01*
X168651Y18647D01*
X168703Y18677D01*
X168759Y18700D01*
X168839Y18758D01*
X168925Y18808D01*
X169000Y18874D01*
X169017Y18886D01*
X169024Y18896D01*
X169046Y18915D01*
X173364Y23233D01*
X173424Y23311D01*
X173492Y23383D01*
X173521Y23436D01*
X173558Y23484D01*
X173598Y23575D01*
X173646Y23661D01*
X173661Y23720D01*
X173685Y23776D01*
X173700Y23874D01*
X173725Y23969D01*
X173731Y24069D01*
X173735Y24090D01*
X173733Y24102D01*
X173735Y24130D01*
X173735Y59944D01*
X173723Y60042D01*
X173720Y60141D01*
X173703Y60199D01*
X173695Y60260D01*
X173659Y60352D01*
X173631Y60447D01*
X173601Y60499D01*
X173578Y60555D01*
X173520Y60635D01*
X173470Y60721D01*
X173404Y60796D01*
X173392Y60813D01*
X173382Y60820D01*
X173364Y60842D01*
X137550Y96656D01*
X137471Y96716D01*
X137399Y96784D01*
X137346Y96813D01*
X137298Y96850D01*
X137207Y96890D01*
X137121Y96938D01*
X137062Y96953D01*
X137006Y96977D01*
X136908Y96992D01*
X136813Y97017D01*
X136713Y97023D01*
X136692Y97027D01*
X136680Y97025D01*
X136652Y97027D01*
X85616Y97027D01*
X61721Y120922D01*
X61721Y139174D01*
X76844Y154297D01*
X76904Y154375D01*
X76972Y154447D01*
X77001Y154500D01*
X77038Y154548D01*
X77078Y154639D01*
X77126Y154725D01*
X77141Y154784D01*
X77165Y154840D01*
X77180Y154938D01*
X77205Y155033D01*
X77211Y155133D01*
X77215Y155154D01*
X77213Y155166D01*
X77215Y155194D01*
X77215Y191262D01*
X77203Y191360D01*
X77200Y191459D01*
X77183Y191517D01*
X77175Y191578D01*
X77139Y191670D01*
X77111Y191765D01*
X77081Y191817D01*
X77058Y191873D01*
X77000Y191953D01*
X76950Y192039D01*
X76884Y192114D01*
X76872Y192131D01*
X76862Y192138D01*
X76844Y192160D01*
X69732Y199272D01*
X69653Y199332D01*
X69581Y199400D01*
X69528Y199429D01*
X69480Y199466D01*
X69389Y199506D01*
X69303Y199554D01*
X69244Y199569D01*
X69188Y199593D01*
X69090Y199608D01*
X68995Y199633D01*
X68895Y199639D01*
X68874Y199643D01*
X68862Y199641D01*
X68834Y199643D01*
X62992Y199643D01*
X62894Y199631D01*
X62795Y199628D01*
X62737Y199611D01*
X62676Y199603D01*
X62584Y199567D01*
X62489Y199539D01*
X62437Y199509D01*
X62381Y199486D01*
X62301Y199428D01*
X62215Y199378D01*
X62140Y199312D01*
X62123Y199300D01*
X62116Y199290D01*
X62095Y199272D01*
X54475Y191652D01*
X54414Y191573D01*
X54346Y191501D01*
X54317Y191448D01*
X54280Y191400D01*
X54240Y191309D01*
X54192Y191223D01*
X54177Y191164D01*
X54153Y191108D01*
X54138Y191010D01*
X54113Y190915D01*
X54107Y190815D01*
X54103Y190794D01*
X54105Y190782D01*
X54103Y190754D01*
X54103Y160546D01*
X39860Y146303D01*
X28702Y146303D01*
X28604Y146291D01*
X28505Y146288D01*
X28447Y146271D01*
X28386Y146263D01*
X28294Y146227D01*
X28199Y146199D01*
X28147Y146169D01*
X28091Y146146D01*
X28011Y146088D01*
X27925Y146038D01*
X27850Y145972D01*
X27833Y145960D01*
X27826Y145950D01*
X27805Y145932D01*
X21201Y139328D01*
X21140Y139249D01*
X21072Y139177D01*
X21043Y139124D01*
X21006Y139076D01*
X20966Y138985D01*
X20918Y138899D01*
X20903Y138840D01*
X20879Y138784D01*
X20864Y138686D01*
X20839Y138591D01*
X20833Y138491D01*
X20829Y138470D01*
X20831Y138458D01*
X20829Y138430D01*
X20829Y114554D01*
X20841Y114456D01*
X20844Y114357D01*
X20861Y114299D01*
X20869Y114238D01*
X20905Y114146D01*
X20933Y114051D01*
X20963Y113999D01*
X20986Y113943D01*
X21044Y113863D01*
X21094Y113777D01*
X21160Y113702D01*
X21172Y113685D01*
X21182Y113678D01*
X21201Y113657D01*
X62231Y72626D01*
X62231Y26670D01*
X62243Y26572D01*
X62246Y26473D01*
X62263Y26415D01*
X62271Y26354D01*
X62307Y26262D01*
X62335Y26167D01*
X62365Y26115D01*
X62388Y26059D01*
X62446Y25979D01*
X62496Y25893D01*
X62562Y25818D01*
X62574Y25801D01*
X62584Y25794D01*
X62603Y25773D01*
X69715Y18661D01*
X69793Y18600D01*
X69865Y18532D01*
X69918Y18503D01*
X69966Y18466D01*
X70057Y18426D01*
X70143Y18378D01*
X70202Y18363D01*
X70258Y18339D01*
X70356Y18324D01*
X70451Y18299D01*
X70551Y18293D01*
X70572Y18289D01*
X70584Y18291D01*
X70612Y18289D01*
X89662Y18289D01*
X89760Y18301D01*
G37*
G36*
X93824Y112281D02*
X93824Y112281D01*
X93923Y112284D01*
X93981Y112301D01*
X94042Y112309D01*
X94134Y112345D01*
X94229Y112373D01*
X94281Y112403D01*
X94337Y112426D01*
X94417Y112484D01*
X94503Y112534D01*
X94578Y112600D01*
X94595Y112612D01*
X94602Y112622D01*
X94624Y112641D01*
X112658Y130675D01*
X112718Y130753D01*
X112786Y130825D01*
X112815Y130878D01*
X112852Y130926D01*
X112892Y131017D01*
X112940Y131103D01*
X112955Y131162D01*
X112979Y131218D01*
X112994Y131316D01*
X113019Y131411D01*
X113025Y131511D01*
X113029Y131532D01*
X113027Y131544D01*
X113029Y131572D01*
X113029Y138666D01*
X160800Y186437D01*
X224282Y186437D01*
X224380Y186449D01*
X224479Y186452D01*
X224537Y186469D01*
X224598Y186477D01*
X224690Y186513D01*
X224785Y186541D01*
X224837Y186571D01*
X224893Y186594D01*
X224973Y186652D01*
X225059Y186702D01*
X225134Y186768D01*
X225151Y186780D01*
X225158Y186790D01*
X225180Y186809D01*
X229498Y191127D01*
X229558Y191205D01*
X229626Y191277D01*
X229655Y191330D01*
X229692Y191378D01*
X229732Y191469D01*
X229780Y191555D01*
X229795Y191614D01*
X229819Y191670D01*
X229834Y191768D01*
X229859Y191863D01*
X229865Y191963D01*
X229869Y191984D01*
X229867Y191996D01*
X229869Y192024D01*
X229869Y224536D01*
X229857Y224634D01*
X229854Y224733D01*
X229837Y224791D01*
X229829Y224852D01*
X229793Y224944D01*
X229765Y225039D01*
X229735Y225091D01*
X229712Y225147D01*
X229654Y225227D01*
X229604Y225313D01*
X229538Y225388D01*
X229526Y225405D01*
X229516Y225412D01*
X229498Y225434D01*
X227974Y226958D01*
X227895Y227018D01*
X227823Y227086D01*
X227770Y227115D01*
X227722Y227152D01*
X227631Y227192D01*
X227545Y227240D01*
X227486Y227255D01*
X227430Y227279D01*
X227332Y227294D01*
X227237Y227319D01*
X227137Y227325D01*
X227116Y227329D01*
X227104Y227327D01*
X227076Y227329D01*
X216662Y227329D01*
X216564Y227317D01*
X216465Y227314D01*
X216407Y227297D01*
X216346Y227289D01*
X216254Y227253D01*
X216159Y227225D01*
X216107Y227195D01*
X216051Y227172D01*
X215971Y227114D01*
X215885Y227064D01*
X215810Y226998D01*
X215793Y226986D01*
X215786Y226976D01*
X215765Y226958D01*
X207500Y218693D01*
X162578Y218693D01*
X147710Y233562D01*
X147631Y233622D01*
X147559Y233690D01*
X147506Y233719D01*
X147458Y233756D01*
X147367Y233796D01*
X147281Y233844D01*
X147222Y233859D01*
X147166Y233883D01*
X147068Y233898D01*
X146973Y233923D01*
X146873Y233929D01*
X146852Y233933D01*
X146840Y233931D01*
X146812Y233933D01*
X129540Y233933D01*
X129442Y233921D01*
X129343Y233918D01*
X129285Y233901D01*
X129224Y233893D01*
X129132Y233857D01*
X129037Y233829D01*
X128985Y233799D01*
X128929Y233776D01*
X128849Y233718D01*
X128763Y233668D01*
X128688Y233602D01*
X128671Y233590D01*
X128664Y233580D01*
X128643Y233562D01*
X121023Y225942D01*
X120962Y225863D01*
X120894Y225791D01*
X120865Y225738D01*
X120828Y225690D01*
X120788Y225599D01*
X120740Y225513D01*
X120725Y225454D01*
X120701Y225398D01*
X120686Y225300D01*
X120661Y225205D01*
X120655Y225105D01*
X120651Y225084D01*
X120653Y225072D01*
X120651Y225044D01*
X120651Y186708D01*
X70223Y136280D01*
X70162Y136201D01*
X70094Y136129D01*
X70065Y136076D01*
X70028Y136028D01*
X69988Y135937D01*
X69940Y135851D01*
X69925Y135792D01*
X69901Y135736D01*
X69886Y135638D01*
X69861Y135543D01*
X69855Y135443D01*
X69851Y135422D01*
X69853Y135410D01*
X69851Y135382D01*
X69851Y122428D01*
X69863Y122330D01*
X69866Y122231D01*
X69878Y122190D01*
X69878Y122186D01*
X69883Y122171D01*
X69891Y122112D01*
X69927Y122020D01*
X69955Y121925D01*
X69973Y121894D01*
X69976Y121883D01*
X69990Y121862D01*
X70008Y121817D01*
X70066Y121737D01*
X70116Y121651D01*
X70142Y121622D01*
X70147Y121615D01*
X70158Y121604D01*
X70182Y121576D01*
X70194Y121559D01*
X70204Y121552D01*
X70223Y121531D01*
X79113Y112641D01*
X79191Y112580D01*
X79263Y112512D01*
X79316Y112483D01*
X79364Y112446D01*
X79455Y112406D01*
X79541Y112358D01*
X79600Y112343D01*
X79656Y112319D01*
X79754Y112304D01*
X79849Y112279D01*
X79949Y112273D01*
X79970Y112269D01*
X79982Y112271D01*
X80010Y112269D01*
X93726Y112269D01*
X93824Y112281D01*
G37*
G36*
X236064Y98311D02*
X236064Y98311D01*
X236163Y98314D01*
X236221Y98331D01*
X236282Y98339D01*
X236374Y98375D01*
X236469Y98403D01*
X236521Y98433D01*
X236577Y98456D01*
X236657Y98514D01*
X236743Y98564D01*
X236818Y98630D01*
X236835Y98642D01*
X236842Y98652D01*
X236864Y98671D01*
X248040Y109847D01*
X248100Y109925D01*
X248168Y109997D01*
X248197Y110050D01*
X248234Y110098D01*
X248274Y110189D01*
X248322Y110275D01*
X248337Y110334D01*
X248361Y110390D01*
X248376Y110488D01*
X248401Y110583D01*
X248407Y110683D01*
X248411Y110704D01*
X248409Y110716D01*
X248411Y110744D01*
X248411Y181356D01*
X248399Y181454D01*
X248396Y181553D01*
X248379Y181611D01*
X248371Y181672D01*
X248335Y181764D01*
X248307Y181859D01*
X248277Y181911D01*
X248254Y181967D01*
X248196Y182047D01*
X248146Y182133D01*
X248080Y182208D01*
X248068Y182225D01*
X248058Y182232D01*
X248040Y182254D01*
X243722Y186572D01*
X243643Y186632D01*
X243571Y186700D01*
X243518Y186729D01*
X243470Y186766D01*
X243379Y186806D01*
X243293Y186854D01*
X243234Y186869D01*
X243178Y186893D01*
X243080Y186908D01*
X242985Y186933D01*
X242885Y186939D01*
X242864Y186943D01*
X242852Y186941D01*
X242824Y186943D01*
X236474Y186943D01*
X236376Y186931D01*
X236277Y186928D01*
X236219Y186911D01*
X236158Y186903D01*
X236066Y186867D01*
X235971Y186839D01*
X235919Y186809D01*
X235863Y186786D01*
X235783Y186728D01*
X235697Y186678D01*
X235622Y186612D01*
X235605Y186600D01*
X235598Y186590D01*
X235577Y186572D01*
X231259Y182254D01*
X231198Y182175D01*
X231130Y182103D01*
X231101Y182050D01*
X231064Y182002D01*
X231024Y181911D01*
X230976Y181825D01*
X230961Y181766D01*
X230937Y181710D01*
X230922Y181612D01*
X230897Y181517D01*
X230891Y181417D01*
X230887Y181396D01*
X230889Y181384D01*
X230887Y181356D01*
X230887Y161816D01*
X220200Y151129D01*
X201440Y151129D01*
X193039Y159530D01*
X193039Y167894D01*
X193027Y167992D01*
X193024Y168091D01*
X193007Y168149D01*
X192999Y168210D01*
X192963Y168302D01*
X192935Y168397D01*
X192905Y168449D01*
X192882Y168505D01*
X192824Y168585D01*
X192774Y168671D01*
X192708Y168746D01*
X192696Y168763D01*
X192686Y168770D01*
X192668Y168792D01*
X187588Y173872D01*
X187509Y173932D01*
X187437Y174000D01*
X187384Y174029D01*
X187336Y174066D01*
X187245Y174106D01*
X187159Y174154D01*
X187100Y174169D01*
X187044Y174193D01*
X186946Y174208D01*
X186851Y174233D01*
X186751Y174239D01*
X186730Y174243D01*
X186718Y174241D01*
X186690Y174243D01*
X169672Y174243D01*
X169574Y174231D01*
X169475Y174228D01*
X169417Y174211D01*
X169356Y174203D01*
X169264Y174167D01*
X169169Y174139D01*
X169117Y174109D01*
X169061Y174086D01*
X168981Y174028D01*
X168895Y173978D01*
X168820Y173912D01*
X168803Y173900D01*
X168796Y173890D01*
X168775Y173872D01*
X164203Y169300D01*
X164142Y169221D01*
X164074Y169149D01*
X164045Y169096D01*
X164008Y169048D01*
X163968Y168957D01*
X163920Y168871D01*
X163905Y168812D01*
X163881Y168756D01*
X163866Y168658D01*
X163841Y168563D01*
X163835Y168463D01*
X163831Y168442D01*
X163833Y168430D01*
X163831Y168402D01*
X163831Y146304D01*
X163843Y146206D01*
X163846Y146107D01*
X163863Y146049D01*
X163871Y145988D01*
X163907Y145896D01*
X163935Y145801D01*
X163965Y145749D01*
X163988Y145693D01*
X164046Y145613D01*
X164096Y145527D01*
X164162Y145452D01*
X164174Y145435D01*
X164184Y145428D01*
X164203Y145407D01*
X169029Y140581D01*
X169107Y140520D01*
X169179Y140452D01*
X169232Y140423D01*
X169280Y140386D01*
X169371Y140346D01*
X169457Y140298D01*
X169516Y140283D01*
X169572Y140259D01*
X169670Y140244D01*
X169765Y140219D01*
X169865Y140213D01*
X169886Y140209D01*
X169898Y140211D01*
X169926Y140209D01*
X182862Y140209D01*
X198629Y124442D01*
X198629Y102870D01*
X198641Y102772D01*
X198644Y102673D01*
X198661Y102615D01*
X198669Y102554D01*
X198705Y102462D01*
X198733Y102367D01*
X198763Y102315D01*
X198786Y102259D01*
X198844Y102179D01*
X198894Y102093D01*
X198960Y102018D01*
X198972Y102001D01*
X198982Y101994D01*
X199001Y101973D01*
X202303Y98671D01*
X202381Y98610D01*
X202453Y98542D01*
X202506Y98513D01*
X202554Y98476D01*
X202645Y98436D01*
X202731Y98388D01*
X202790Y98373D01*
X202846Y98349D01*
X202944Y98334D01*
X203039Y98309D01*
X203139Y98303D01*
X203160Y98299D01*
X203172Y98301D01*
X203200Y98299D01*
X235966Y98299D01*
X236064Y98311D01*
G37*
G36*
X404720Y181969D02*
X404720Y181969D01*
X404839Y181976D01*
X404877Y181989D01*
X404918Y181994D01*
X405028Y182037D01*
X405141Y182074D01*
X405176Y182096D01*
X405213Y182111D01*
X405309Y182180D01*
X405410Y182244D01*
X405438Y182274D01*
X405471Y182297D01*
X405547Y182389D01*
X405628Y182476D01*
X405648Y182511D01*
X405673Y182542D01*
X405724Y182650D01*
X405782Y182754D01*
X405792Y182794D01*
X405809Y182830D01*
X405831Y182947D01*
X405861Y183062D01*
X405865Y183122D01*
X405869Y183142D01*
X405867Y183163D01*
X405871Y183223D01*
X405871Y190737D01*
X406237Y191102D01*
X406310Y191196D01*
X406389Y191286D01*
X406407Y191322D01*
X406432Y191354D01*
X406479Y191463D01*
X406533Y191569D01*
X406542Y191608D01*
X406558Y191646D01*
X406577Y191763D01*
X406603Y191879D01*
X406602Y191920D01*
X406608Y191960D01*
X406597Y192078D01*
X406593Y192197D01*
X406582Y192236D01*
X406578Y192276D01*
X406538Y192388D01*
X406505Y192503D01*
X406484Y192538D01*
X406471Y192576D01*
X406404Y192674D01*
X406343Y192777D01*
X406304Y192822D01*
X406292Y192839D01*
X406277Y192852D01*
X406237Y192897D01*
X405871Y193263D01*
X405871Y200737D01*
X406913Y201779D01*
X409615Y201779D01*
X409753Y201796D01*
X409891Y201809D01*
X409910Y201816D01*
X409931Y201819D01*
X410060Y201870D01*
X410191Y201917D01*
X410207Y201928D01*
X410226Y201936D01*
X410339Y202017D01*
X410454Y202095D01*
X410467Y202111D01*
X410484Y202122D01*
X410573Y202230D01*
X410664Y202334D01*
X410673Y202352D01*
X410686Y202367D01*
X410746Y202493D01*
X410809Y202617D01*
X410813Y202637D01*
X410822Y202655D01*
X410848Y202791D01*
X410879Y202927D01*
X410878Y202948D01*
X410882Y202967D01*
X410873Y203106D01*
X410869Y203245D01*
X410863Y203265D01*
X410862Y203285D01*
X410819Y203417D01*
X410780Y203551D01*
X410770Y203568D01*
X410764Y203587D01*
X410690Y203705D01*
X410619Y203825D01*
X410600Y203846D01*
X410594Y203856D01*
X410579Y203870D01*
X410512Y203946D01*
X410182Y204276D01*
X409447Y206050D01*
X409447Y207970D01*
X410182Y209744D01*
X411540Y211102D01*
X413314Y211837D01*
X415234Y211837D01*
X417008Y211102D01*
X418366Y209744D01*
X419101Y207970D01*
X419101Y206050D01*
X418366Y204276D01*
X418036Y203946D01*
X417950Y203836D01*
X417862Y203729D01*
X417853Y203710D01*
X417841Y203694D01*
X417785Y203566D01*
X417726Y203441D01*
X417722Y203421D01*
X417714Y203402D01*
X417692Y203264D01*
X417666Y203128D01*
X417668Y203108D01*
X417664Y203088D01*
X417677Y202949D01*
X417686Y202811D01*
X417692Y202792D01*
X417694Y202772D01*
X417741Y202641D01*
X417784Y202509D01*
X417795Y202491D01*
X417802Y202472D01*
X417880Y202358D01*
X417954Y202240D01*
X417969Y202226D01*
X417980Y202209D01*
X418084Y202117D01*
X418186Y202022D01*
X418204Y202012D01*
X418219Y201999D01*
X418343Y201936D01*
X418464Y201868D01*
X418484Y201863D01*
X418502Y201854D01*
X418638Y201824D01*
X418772Y201789D01*
X418800Y201787D01*
X418812Y201784D01*
X418833Y201785D01*
X418933Y201779D01*
X421894Y201779D01*
X422012Y201794D01*
X422131Y201801D01*
X422169Y201814D01*
X422210Y201819D01*
X422320Y201862D01*
X422433Y201899D01*
X422468Y201921D01*
X422505Y201936D01*
X422601Y202005D01*
X422702Y202069D01*
X422730Y202099D01*
X422763Y202122D01*
X422839Y202214D01*
X422920Y202301D01*
X422940Y202336D01*
X422965Y202367D01*
X423016Y202475D01*
X423074Y202579D01*
X423084Y202619D01*
X423101Y202655D01*
X423123Y202772D01*
X423153Y202887D01*
X423157Y202947D01*
X423161Y202967D01*
X423159Y202988D01*
X423163Y203048D01*
X423163Y238255D01*
X423147Y238380D01*
X423138Y238505D01*
X423128Y238537D01*
X423123Y238571D01*
X423077Y238688D01*
X423037Y238807D01*
X423019Y238835D01*
X423006Y238866D01*
X422933Y238968D01*
X422864Y239073D01*
X422839Y239096D01*
X422820Y239124D01*
X422723Y239204D01*
X422630Y239289D01*
X422601Y239305D01*
X422575Y239326D01*
X422461Y239380D01*
X422350Y239439D01*
X422317Y239448D01*
X422287Y239462D01*
X422164Y239485D01*
X422041Y239516D01*
X422008Y239515D01*
X421975Y239522D01*
X421849Y239514D01*
X421723Y239513D01*
X421675Y239503D01*
X421657Y239502D01*
X421637Y239495D01*
X421565Y239481D01*
X421485Y239459D01*
X415899Y239459D01*
X415899Y244770D01*
X415884Y244888D01*
X415877Y245007D01*
X415864Y245045D01*
X415859Y245085D01*
X415816Y245196D01*
X415779Y245309D01*
X415757Y245343D01*
X415742Y245381D01*
X415673Y245477D01*
X415609Y245578D01*
X415579Y245606D01*
X415556Y245638D01*
X415464Y245714D01*
X415377Y245796D01*
X415342Y245815D01*
X415311Y245841D01*
X415267Y245861D01*
X415212Y245937D01*
X415149Y246038D01*
X415119Y246066D01*
X415095Y246099D01*
X415004Y246175D01*
X414917Y246256D01*
X414882Y246276D01*
X414850Y246301D01*
X414743Y246352D01*
X414638Y246410D01*
X414599Y246420D01*
X414563Y246437D01*
X414446Y246459D01*
X414330Y246489D01*
X414270Y246493D01*
X414250Y246497D01*
X414230Y246495D01*
X414170Y246499D01*
X405109Y246499D01*
X405109Y248334D01*
X405140Y248448D01*
X405157Y248573D01*
X405181Y248697D01*
X405178Y248730D01*
X405183Y248764D01*
X405169Y248889D01*
X405161Y249014D01*
X405150Y249046D01*
X405147Y249079D01*
X405101Y249197D01*
X405063Y249316D01*
X405045Y249345D01*
X405033Y249376D01*
X404960Y249479D01*
X404893Y249585D01*
X404868Y249608D01*
X404849Y249636D01*
X404752Y249717D01*
X404661Y249803D01*
X404631Y249819D01*
X404606Y249841D01*
X404493Y249896D01*
X404382Y249957D01*
X404350Y249965D01*
X404320Y249980D01*
X404196Y250005D01*
X404075Y250036D01*
X404026Y250039D01*
X404008Y250043D01*
X403986Y250042D01*
X403914Y250046D01*
X397632Y250046D01*
X397533Y250034D01*
X397434Y250031D01*
X397376Y250014D01*
X397316Y250006D01*
X397224Y249970D01*
X397129Y249942D01*
X397077Y249912D01*
X397020Y249889D01*
X396940Y249831D01*
X396855Y249781D01*
X396780Y249715D01*
X396763Y249703D01*
X396755Y249693D01*
X396734Y249675D01*
X380102Y233043D01*
X380042Y232965D01*
X379974Y232893D01*
X379945Y232840D01*
X379908Y232792D01*
X379868Y232701D01*
X379820Y232614D01*
X379805Y232555D01*
X379781Y232500D01*
X379766Y232402D01*
X379741Y232306D01*
X379735Y232206D01*
X379731Y232186D01*
X379733Y232173D01*
X379731Y232145D01*
X379731Y184923D01*
X379743Y184824D01*
X379746Y184725D01*
X379763Y184667D01*
X379771Y184607D01*
X379807Y184515D01*
X379835Y184420D01*
X379865Y184368D01*
X379888Y184311D01*
X379946Y184231D01*
X379996Y184146D01*
X380062Y184071D01*
X380074Y184054D01*
X380084Y184046D01*
X380102Y184025D01*
X381802Y182325D01*
X381880Y182265D01*
X381952Y182197D01*
X382005Y182168D01*
X382053Y182131D01*
X382144Y182091D01*
X382231Y182043D01*
X382290Y182028D01*
X382345Y182004D01*
X382443Y181989D01*
X382539Y181964D01*
X382639Y181958D01*
X382659Y181954D01*
X382672Y181956D01*
X382700Y181954D01*
X404602Y181954D01*
X404720Y181969D01*
G37*
%LPC*%
G36*
X130186Y114612D02*
X130186Y114612D01*
X125259Y116653D01*
X121489Y120423D01*
X119448Y125350D01*
X119448Y130682D01*
X121489Y135609D01*
X125259Y139379D01*
X130186Y141420D01*
X135518Y141420D01*
X140445Y139379D01*
X144215Y135609D01*
X146256Y130682D01*
X146256Y125350D01*
X144215Y120423D01*
X140445Y116653D01*
X135518Y114612D01*
X130186Y114612D01*
G37*
%LPD*%
%LPC*%
G36*
X356154Y36575D02*
X356154Y36575D01*
X354647Y38082D01*
X354647Y44976D01*
X356160Y46489D01*
X356226Y46498D01*
X356345Y46505D01*
X356383Y46518D01*
X356424Y46523D01*
X356534Y46566D01*
X356647Y46603D01*
X356682Y46625D01*
X356719Y46640D01*
X356815Y46709D01*
X356916Y46773D01*
X356944Y46803D01*
X356977Y46826D01*
X357053Y46918D01*
X357134Y47005D01*
X357154Y47040D01*
X357179Y47071D01*
X357230Y47179D01*
X357288Y47283D01*
X357298Y47323D01*
X357315Y47359D01*
X357337Y47476D01*
X357367Y47591D01*
X357371Y47651D01*
X357375Y47671D01*
X357373Y47692D01*
X357377Y47752D01*
X357377Y52959D01*
X357362Y53077D01*
X357355Y53196D01*
X357342Y53234D01*
X357337Y53275D01*
X357294Y53385D01*
X357257Y53498D01*
X357235Y53533D01*
X357220Y53570D01*
X357151Y53666D01*
X357087Y53767D01*
X357057Y53795D01*
X357034Y53828D01*
X356942Y53904D01*
X356855Y53985D01*
X356820Y54005D01*
X356789Y54030D01*
X356681Y54081D01*
X356577Y54139D01*
X356537Y54149D01*
X356501Y54166D01*
X356384Y54188D01*
X356269Y54218D01*
X356209Y54222D01*
X356189Y54226D01*
X356168Y54224D01*
X356108Y54228D01*
X355895Y54228D01*
X354202Y55921D01*
X354202Y64983D01*
X355895Y66676D01*
X364957Y66676D01*
X366650Y64983D01*
X366650Y55921D01*
X364957Y54228D01*
X364744Y54228D01*
X364626Y54213D01*
X364507Y54206D01*
X364469Y54193D01*
X364428Y54188D01*
X364318Y54145D01*
X364205Y54108D01*
X364170Y54086D01*
X364133Y54071D01*
X364037Y54002D01*
X363936Y53938D01*
X363908Y53908D01*
X363875Y53885D01*
X363799Y53793D01*
X363718Y53706D01*
X363698Y53671D01*
X363673Y53640D01*
X363622Y53532D01*
X363564Y53428D01*
X363554Y53388D01*
X363537Y53352D01*
X363515Y53235D01*
X363485Y53120D01*
X363481Y53060D01*
X363477Y53040D01*
X363479Y53019D01*
X363475Y52959D01*
X363475Y47752D01*
X363490Y47634D01*
X363497Y47515D01*
X363510Y47477D01*
X363515Y47436D01*
X363558Y47326D01*
X363595Y47213D01*
X363617Y47178D01*
X363632Y47141D01*
X363701Y47045D01*
X363765Y46944D01*
X363795Y46916D01*
X363818Y46883D01*
X363910Y46807D01*
X363997Y46726D01*
X364032Y46706D01*
X364063Y46681D01*
X364171Y46630D01*
X364275Y46572D01*
X364315Y46562D01*
X364351Y46545D01*
X364468Y46523D01*
X364583Y46493D01*
X364643Y46489D01*
X364663Y46485D01*
X364684Y46487D01*
X364695Y46486D01*
X366205Y44976D01*
X366205Y38082D01*
X364698Y36575D01*
X356154Y36575D01*
G37*
%LPD*%
G36*
X452538Y210016D02*
X452538Y210016D01*
X452657Y210023D01*
X452695Y210036D01*
X452735Y210041D01*
X452846Y210085D01*
X452959Y210121D01*
X452994Y210143D01*
X453031Y210158D01*
X453127Y210228D01*
X453228Y210291D01*
X453256Y210321D01*
X453288Y210345D01*
X453364Y210436D01*
X453446Y210523D01*
X453465Y210558D01*
X453491Y210590D01*
X453542Y210697D01*
X453599Y210801D01*
X453610Y210841D01*
X453627Y210877D01*
X453649Y210994D01*
X453679Y211109D01*
X453683Y211170D01*
X453687Y211190D01*
X453685Y211210D01*
X453689Y211270D01*
X453689Y218541D01*
X459923Y218541D01*
X460041Y218556D01*
X460160Y218563D01*
X460198Y218576D01*
X460239Y218581D01*
X460349Y218624D01*
X460462Y218661D01*
X460497Y218683D01*
X460534Y218698D01*
X460630Y218767D01*
X460731Y218831D01*
X460759Y218861D01*
X460792Y218884D01*
X460867Y218976D01*
X460949Y219063D01*
X460969Y219098D01*
X460994Y219129D01*
X461045Y219237D01*
X461103Y219341D01*
X461113Y219380D01*
X461130Y219417D01*
X461152Y219534D01*
X461182Y219649D01*
X461186Y219709D01*
X461190Y219729D01*
X461188Y219750D01*
X461192Y219810D01*
X461192Y222190D01*
X461177Y222308D01*
X461170Y222427D01*
X461157Y222465D01*
X461152Y222506D01*
X461109Y222616D01*
X461072Y222729D01*
X461050Y222764D01*
X461035Y222801D01*
X460966Y222897D01*
X460902Y222998D01*
X460872Y223026D01*
X460849Y223059D01*
X460757Y223135D01*
X460670Y223216D01*
X460635Y223236D01*
X460604Y223261D01*
X460496Y223312D01*
X460392Y223370D01*
X460352Y223380D01*
X460316Y223397D01*
X460199Y223419D01*
X460084Y223449D01*
X460024Y223453D01*
X460004Y223457D01*
X459983Y223455D01*
X459923Y223459D01*
X453689Y223459D01*
X453689Y230730D01*
X453674Y230848D01*
X453667Y230967D01*
X453654Y231005D01*
X453649Y231045D01*
X453605Y231156D01*
X453569Y231269D01*
X453547Y231304D01*
X453532Y231341D01*
X453462Y231437D01*
X453399Y231538D01*
X453369Y231566D01*
X453345Y231598D01*
X453254Y231674D01*
X453167Y231756D01*
X453132Y231775D01*
X453100Y231801D01*
X452993Y231852D01*
X452889Y231909D01*
X452849Y231920D01*
X452813Y231937D01*
X452696Y231959D01*
X452581Y231989D01*
X452520Y231993D01*
X452500Y231997D01*
X452480Y231995D01*
X452420Y231999D01*
X449880Y231999D01*
X449762Y231984D01*
X449643Y231977D01*
X449605Y231964D01*
X449565Y231959D01*
X449454Y231915D01*
X449341Y231879D01*
X449306Y231857D01*
X449269Y231842D01*
X449173Y231772D01*
X449072Y231709D01*
X449044Y231679D01*
X449011Y231655D01*
X448936Y231564D01*
X448854Y231477D01*
X448834Y231442D01*
X448809Y231410D01*
X448758Y231303D01*
X448700Y231199D01*
X448690Y231159D01*
X448673Y231123D01*
X448651Y231006D01*
X448621Y230891D01*
X448617Y230830D01*
X448613Y230810D01*
X448615Y230790D01*
X448611Y230730D01*
X448611Y223459D01*
X440816Y223459D01*
X440169Y223632D01*
X439590Y223967D01*
X439117Y224440D01*
X438741Y225091D01*
X438653Y225207D01*
X438568Y225325D01*
X438557Y225333D01*
X438549Y225344D01*
X438435Y225434D01*
X438323Y225528D01*
X438310Y225533D01*
X438300Y225542D01*
X438167Y225601D01*
X438035Y225663D01*
X438022Y225666D01*
X438009Y225671D01*
X437865Y225696D01*
X437722Y225723D01*
X437709Y225722D01*
X437696Y225724D01*
X437550Y225712D01*
X437405Y225703D01*
X437392Y225699D01*
X437379Y225698D01*
X437241Y225650D01*
X437103Y225605D01*
X437091Y225598D01*
X437078Y225593D01*
X436957Y225513D01*
X436834Y225435D01*
X436825Y225425D01*
X436813Y225418D01*
X436716Y225310D01*
X436616Y225203D01*
X436609Y225191D01*
X436600Y225181D01*
X436533Y225053D01*
X436462Y224925D01*
X436459Y224912D01*
X436453Y224900D01*
X436419Y224757D01*
X436383Y224617D01*
X436382Y224599D01*
X436380Y224590D01*
X436380Y224573D01*
X436373Y224456D01*
X436373Y217544D01*
X436391Y217400D01*
X436406Y217254D01*
X436411Y217242D01*
X436413Y217228D01*
X436466Y217094D01*
X436517Y216956D01*
X436525Y216945D01*
X436530Y216933D01*
X436615Y216815D01*
X436698Y216695D01*
X436708Y216686D01*
X436716Y216675D01*
X436829Y216582D01*
X436939Y216487D01*
X436951Y216481D01*
X436961Y216472D01*
X437093Y216410D01*
X437224Y216346D01*
X437237Y216343D01*
X437249Y216337D01*
X437392Y216310D01*
X437535Y216279D01*
X437548Y216280D01*
X437561Y216277D01*
X437706Y216286D01*
X437852Y216292D01*
X437866Y216296D01*
X437879Y216297D01*
X438017Y216342D01*
X438157Y216384D01*
X438169Y216391D01*
X438181Y216395D01*
X438305Y216473D01*
X438429Y216548D01*
X438439Y216558D01*
X438450Y216565D01*
X438550Y216672D01*
X438652Y216775D01*
X438662Y216791D01*
X438668Y216797D01*
X438676Y216812D01*
X438741Y216909D01*
X439117Y217560D01*
X439590Y218033D01*
X440169Y218368D01*
X440816Y218541D01*
X448611Y218541D01*
X448611Y211270D01*
X448626Y211152D01*
X448633Y211033D01*
X448646Y210995D01*
X448651Y210955D01*
X448694Y210844D01*
X448731Y210731D01*
X448753Y210696D01*
X448768Y210659D01*
X448838Y210563D01*
X448901Y210462D01*
X448931Y210434D01*
X448955Y210402D01*
X449046Y210326D01*
X449133Y210244D01*
X449168Y210225D01*
X449199Y210199D01*
X449307Y210148D01*
X449411Y210091D01*
X449451Y210080D01*
X449487Y210063D01*
X449604Y210041D01*
X449719Y210011D01*
X449780Y210007D01*
X449800Y210003D01*
X449820Y210005D01*
X449880Y210001D01*
X452420Y210001D01*
X452538Y210016D01*
G37*
%LPC*%
G36*
X143763Y294131D02*
X143763Y294131D01*
X143763Y313183D01*
X149178Y313183D01*
X149825Y313010D01*
X150404Y312675D01*
X150877Y312202D01*
X151212Y311623D01*
X151385Y310976D01*
X151385Y294131D01*
X143763Y294131D01*
G37*
%LPD*%
%LPC*%
G36*
X143763Y270001D02*
X143763Y270001D01*
X143763Y289053D01*
X151385Y289053D01*
X151385Y272208D01*
X151212Y271561D01*
X150877Y270982D01*
X150404Y270509D01*
X149825Y270174D01*
X149178Y270001D01*
X143763Y270001D01*
G37*
%LPD*%
%LPC*%
G36*
X131063Y294131D02*
X131063Y294131D01*
X131063Y310976D01*
X131236Y311623D01*
X131571Y312202D01*
X132044Y312675D01*
X132623Y313010D01*
X133270Y313183D01*
X138685Y313183D01*
X138685Y294131D01*
X131063Y294131D01*
G37*
%LPD*%
%LPC*%
G36*
X133270Y270001D02*
X133270Y270001D01*
X132623Y270174D01*
X132044Y270509D01*
X131571Y270982D01*
X131236Y271561D01*
X131063Y272208D01*
X131063Y289053D01*
X138685Y289053D01*
X138685Y270001D01*
X133270Y270001D01*
G37*
%LPD*%
%LPC*%
G36*
X347725Y261873D02*
X347725Y261873D01*
X347725Y277115D01*
X353775Y277115D01*
X354422Y276942D01*
X355001Y276607D01*
X355474Y276134D01*
X355809Y275555D01*
X355982Y274908D01*
X355982Y261873D01*
X347725Y261873D01*
G37*
%LPD*%
%LPC*%
G36*
X347725Y241553D02*
X347725Y241553D01*
X347725Y256795D01*
X355982Y256795D01*
X355982Y243760D01*
X355809Y243113D01*
X355474Y242534D01*
X355001Y242061D01*
X354422Y241726D01*
X353775Y241553D01*
X347725Y241553D01*
G37*
%LPD*%
%LPC*%
G36*
X334390Y261873D02*
X334390Y261873D01*
X334390Y274908D01*
X334563Y275555D01*
X334898Y276134D01*
X335371Y276607D01*
X335950Y276942D01*
X336597Y277115D01*
X342647Y277115D01*
X342647Y261873D01*
X334390Y261873D01*
G37*
%LPD*%
%LPC*%
G36*
X336597Y241553D02*
X336597Y241553D01*
X335950Y241726D01*
X335371Y242061D01*
X334898Y242534D01*
X334563Y243113D01*
X334390Y243760D01*
X334390Y256795D01*
X342647Y256795D01*
X342647Y241553D01*
X336597Y241553D01*
G37*
%LPD*%
%LPC*%
G36*
X43151Y209098D02*
X43151Y209098D01*
X43136Y209216D01*
X43129Y209335D01*
X43116Y209373D01*
X43111Y209413D01*
X43068Y209524D01*
X43052Y209572D01*
X43062Y209590D01*
X43072Y209629D01*
X43089Y209665D01*
X43111Y209782D01*
X43141Y209898D01*
X43145Y209958D01*
X43149Y209978D01*
X43147Y209998D01*
X43151Y210058D01*
X43151Y210622D01*
X43136Y210740D01*
X43129Y210859D01*
X43116Y210897D01*
X43111Y210937D01*
X43068Y211048D01*
X43052Y211096D01*
X43062Y211114D01*
X43072Y211153D01*
X43089Y211189D01*
X43111Y211306D01*
X43141Y211422D01*
X43145Y211482D01*
X43149Y211502D01*
X43147Y211522D01*
X43151Y211582D01*
X43151Y211638D01*
X43136Y211756D01*
X43129Y211875D01*
X43116Y211913D01*
X43111Y211953D01*
X43068Y212064D01*
X43052Y212112D01*
X43062Y212130D01*
X43072Y212169D01*
X43089Y212205D01*
X43111Y212322D01*
X43141Y212438D01*
X43145Y212498D01*
X43149Y212518D01*
X43147Y212538D01*
X43151Y212598D01*
X43151Y216690D01*
X43136Y216808D01*
X43129Y216927D01*
X43116Y216965D01*
X43111Y217006D01*
X43068Y217116D01*
X43031Y217229D01*
X43009Y217264D01*
X42994Y217301D01*
X42925Y217397D01*
X42861Y217498D01*
X42831Y217526D01*
X42808Y217559D01*
X42716Y217635D01*
X42671Y217676D01*
X42671Y221263D01*
X50674Y221263D01*
X50674Y220342D01*
X50487Y219644D01*
X50126Y219018D01*
X49615Y218507D01*
X49228Y218284D01*
X49227Y218284D01*
X49226Y218283D01*
X49096Y218184D01*
X48975Y218092D01*
X48974Y218091D01*
X48973Y218090D01*
X48875Y217967D01*
X48777Y217843D01*
X48777Y217842D01*
X48776Y217841D01*
X48712Y217697D01*
X48648Y217552D01*
X48648Y217551D01*
X48647Y217550D01*
X48621Y217397D01*
X48595Y217239D01*
X48595Y217237D01*
X48594Y217236D01*
X48608Y217078D01*
X48621Y216922D01*
X48621Y216921D01*
X48622Y216919D01*
X48676Y216764D01*
X48725Y216622D01*
X48726Y216620D01*
X48727Y216619D01*
X48807Y216480D01*
X49006Y216183D01*
X49653Y214621D01*
X49966Y213046D01*
X49940Y212991D01*
X49925Y212908D01*
X49899Y212827D01*
X49895Y212752D01*
X49881Y212679D01*
X49886Y212594D01*
X49881Y212510D01*
X49900Y212370D01*
X49900Y212361D01*
X49902Y212358D01*
X49903Y212350D01*
X49983Y211947D01*
X49983Y211273D01*
X49947Y211096D01*
X49947Y211086D01*
X49944Y211077D01*
X49936Y210939D01*
X49930Y210907D01*
X49932Y210876D01*
X49925Y210778D01*
X49927Y210769D01*
X49926Y210760D01*
X49947Y210600D01*
X49983Y210423D01*
X49983Y210257D01*
X49801Y209346D01*
X49795Y209261D01*
X49780Y209178D01*
X49784Y209103D01*
X49779Y209028D01*
X49794Y208945D01*
X49799Y208861D01*
X49823Y208790D01*
X49836Y208715D01*
X49871Y208639D01*
X49897Y208559D01*
X49936Y208498D01*
X49653Y207075D01*
X49006Y205514D01*
X48067Y204108D01*
X46872Y202913D01*
X45466Y201974D01*
X43905Y201327D01*
X43151Y201177D01*
X43151Y209098D01*
G37*
%LPD*%
%LPC*%
G36*
X38899Y201327D02*
X38899Y201327D01*
X37338Y201974D01*
X35932Y202913D01*
X34737Y204108D01*
X33798Y205514D01*
X33151Y207075D01*
X32868Y208498D01*
X32910Y208565D01*
X32933Y208637D01*
X32965Y208705D01*
X32980Y208788D01*
X33006Y208868D01*
X33010Y208944D01*
X33024Y209017D01*
X33019Y209102D01*
X33024Y209186D01*
X33005Y209326D01*
X33005Y209335D01*
X33004Y209338D01*
X33003Y209346D01*
X32821Y210257D01*
X32821Y210423D01*
X32857Y210600D01*
X32857Y210610D01*
X32860Y210619D01*
X32864Y210695D01*
X32874Y210746D01*
X32871Y210800D01*
X32879Y210918D01*
X32877Y210927D01*
X32878Y210936D01*
X32857Y211096D01*
X32821Y211273D01*
X32821Y211947D01*
X32901Y212350D01*
X32907Y212435D01*
X32923Y212518D01*
X32919Y212593D01*
X32924Y212668D01*
X32909Y212751D01*
X32904Y212835D01*
X32880Y212906D01*
X32867Y212980D01*
X32837Y213044D01*
X33151Y214621D01*
X33798Y216183D01*
X33997Y216480D01*
X33997Y216481D01*
X33998Y216482D01*
X34001Y216488D01*
X34004Y216492D01*
X34027Y216541D01*
X34071Y216629D01*
X34139Y216764D01*
X34139Y216766D01*
X34140Y216767D01*
X34173Y216922D01*
X34206Y217075D01*
X34206Y217077D01*
X34206Y217078D01*
X34200Y217236D01*
X34193Y217393D01*
X34193Y217394D01*
X34193Y217396D01*
X34148Y217545D01*
X34102Y217698D01*
X34102Y217699D01*
X34101Y217700D01*
X34020Y217835D01*
X33939Y217970D01*
X33938Y217971D01*
X33937Y217972D01*
X33821Y218086D01*
X33712Y218194D01*
X33711Y218194D01*
X33710Y218195D01*
X33576Y218284D01*
X33189Y218507D01*
X32678Y219018D01*
X32317Y219644D01*
X32130Y220342D01*
X32130Y221263D01*
X40133Y221263D01*
X40133Y217681D01*
X40114Y217669D01*
X40086Y217639D01*
X40053Y217616D01*
X39977Y217524D01*
X39896Y217437D01*
X39876Y217402D01*
X39851Y217371D01*
X39800Y217263D01*
X39742Y217159D01*
X39732Y217119D01*
X39715Y217083D01*
X39693Y216966D01*
X39663Y216851D01*
X39659Y216791D01*
X39655Y216771D01*
X39657Y216750D01*
X39653Y216690D01*
X39653Y212598D01*
X39668Y212480D01*
X39675Y212361D01*
X39687Y212323D01*
X39693Y212283D01*
X39736Y212172D01*
X39752Y212124D01*
X39742Y212106D01*
X39732Y212067D01*
X39715Y212031D01*
X39693Y211914D01*
X39663Y211798D01*
X39659Y211738D01*
X39655Y211718D01*
X39657Y211698D01*
X39653Y211638D01*
X39653Y211582D01*
X39668Y211464D01*
X39675Y211345D01*
X39687Y211307D01*
X39693Y211267D01*
X39736Y211156D01*
X39752Y211108D01*
X39742Y211090D01*
X39732Y211051D01*
X39715Y211015D01*
X39693Y210898D01*
X39663Y210782D01*
X39659Y210722D01*
X39655Y210702D01*
X39657Y210682D01*
X39653Y210622D01*
X39653Y210058D01*
X39668Y209940D01*
X39675Y209821D01*
X39687Y209783D01*
X39693Y209743D01*
X39736Y209632D01*
X39752Y209584D01*
X39742Y209566D01*
X39732Y209527D01*
X39715Y209491D01*
X39693Y209374D01*
X39663Y209258D01*
X39659Y209198D01*
X39655Y209178D01*
X39657Y209158D01*
X39653Y209098D01*
X39653Y201177D01*
X38899Y201327D01*
G37*
%LPD*%
%LPC*%
G36*
X17017Y228119D02*
X17017Y228119D01*
X17017Y243361D01*
X24639Y243361D01*
X24639Y238607D01*
X24414Y237767D01*
X23979Y237014D01*
X23602Y236638D01*
X23529Y236543D01*
X23451Y236454D01*
X23432Y236418D01*
X23407Y236386D01*
X23360Y236277D01*
X23306Y236171D01*
X23297Y236132D01*
X23281Y236094D01*
X23262Y235977D01*
X23236Y235861D01*
X23237Y235820D01*
X23231Y235780D01*
X23242Y235662D01*
X23246Y235543D01*
X23257Y235504D01*
X23261Y235464D01*
X23301Y235352D01*
X23334Y235237D01*
X23355Y235202D01*
X23369Y235164D01*
X23435Y235066D01*
X23496Y234963D01*
X23536Y234918D01*
X23547Y234901D01*
X23562Y234888D01*
X23602Y234843D01*
X23979Y234466D01*
X24414Y233713D01*
X24639Y232873D01*
X24639Y228119D01*
X17017Y228119D01*
G37*
%LPD*%
%LPC*%
G36*
X167013Y119445D02*
X167013Y119445D01*
X167013Y129740D01*
X167186Y130387D01*
X167521Y130966D01*
X167994Y131439D01*
X168573Y131774D01*
X169220Y131947D01*
X175515Y131947D01*
X175515Y119445D01*
X167013Y119445D01*
G37*
%LPD*%
%LPC*%
G36*
X180593Y101865D02*
X180593Y101865D01*
X180593Y114367D01*
X189095Y114367D01*
X189095Y104072D01*
X188922Y103425D01*
X188587Y102846D01*
X188114Y102373D01*
X187535Y102038D01*
X186888Y101865D01*
X180593Y101865D01*
G37*
%LPD*%
%LPC*%
G36*
X169220Y101865D02*
X169220Y101865D01*
X168573Y102038D01*
X167994Y102373D01*
X167521Y102846D01*
X167186Y103425D01*
X167013Y104072D01*
X167013Y114367D01*
X175515Y114367D01*
X175515Y101865D01*
X169220Y101865D01*
G37*
%LPD*%
%LPC*%
G36*
X117730Y40244D02*
X117730Y40244D01*
X117730Y50979D01*
X118384Y50876D01*
X120399Y50221D01*
X122287Y49259D01*
X124002Y48013D01*
X125500Y46515D01*
X126746Y44800D01*
X127708Y42912D01*
X128362Y40897D01*
X128466Y40244D01*
X117730Y40244D01*
G37*
%LPD*%
%LPC*%
G36*
X195454Y40244D02*
X195454Y40244D01*
X195454Y50979D01*
X196108Y50876D01*
X198123Y50221D01*
X200011Y49259D01*
X201726Y48013D01*
X203224Y46515D01*
X204470Y44800D01*
X205432Y42912D01*
X206086Y40897D01*
X206190Y40244D01*
X195454Y40244D01*
G37*
%LPD*%
%LPC*%
G36*
X430489Y122607D02*
X430489Y122607D01*
X430489Y133343D01*
X431143Y133239D01*
X433158Y132584D01*
X435046Y131622D01*
X436760Y130377D01*
X438259Y128878D01*
X439504Y127164D01*
X440466Y125276D01*
X441121Y123261D01*
X441225Y122607D01*
X430489Y122607D01*
G37*
%LPD*%
%LPC*%
G36*
X430489Y117609D02*
X430489Y117609D01*
X441225Y117609D01*
X441121Y116955D01*
X440466Y114940D01*
X439504Y113052D01*
X438259Y111338D01*
X436760Y109839D01*
X435046Y108594D01*
X433158Y107632D01*
X431143Y106977D01*
X430489Y106873D01*
X430489Y117609D01*
G37*
%LPD*%
%LPC*%
G36*
X179720Y40244D02*
X179720Y40244D01*
X179824Y40897D01*
X180479Y42912D01*
X181441Y44800D01*
X182686Y46515D01*
X184185Y48013D01*
X185899Y49259D01*
X187787Y50221D01*
X189803Y50876D01*
X190456Y50979D01*
X190456Y40244D01*
X179720Y40244D01*
G37*
%LPD*%
%LPC*%
G36*
X101996Y40244D02*
X101996Y40244D01*
X102100Y40897D01*
X102755Y42912D01*
X103717Y44800D01*
X104962Y46515D01*
X106461Y48013D01*
X108175Y49259D01*
X110063Y50221D01*
X112079Y50876D01*
X112732Y50979D01*
X112732Y40244D01*
X101996Y40244D01*
G37*
%LPD*%
%LPC*%
G36*
X117730Y35245D02*
X117730Y35245D01*
X128466Y35245D01*
X128362Y34592D01*
X127708Y32576D01*
X126746Y30688D01*
X125500Y28974D01*
X124002Y27476D01*
X122287Y26230D01*
X120399Y25268D01*
X118384Y24613D01*
X117730Y24510D01*
X117730Y35245D01*
G37*
%LPD*%
%LPC*%
G36*
X195454Y35245D02*
X195454Y35245D01*
X206190Y35245D01*
X206086Y34592D01*
X205432Y32576D01*
X204470Y30688D01*
X203224Y28974D01*
X201726Y27476D01*
X200011Y26230D01*
X198123Y25268D01*
X196108Y24613D01*
X195454Y24510D01*
X195454Y35245D01*
G37*
%LPD*%
%LPC*%
G36*
X414755Y122607D02*
X414755Y122607D01*
X414859Y123261D01*
X415514Y125276D01*
X416476Y127164D01*
X417721Y128878D01*
X419220Y130377D01*
X420934Y131622D01*
X422822Y132584D01*
X424837Y133239D01*
X425491Y133343D01*
X425491Y122607D01*
X414755Y122607D01*
G37*
%LPD*%
%LPC*%
G36*
X424837Y106977D02*
X424837Y106977D01*
X422822Y107632D01*
X420934Y108594D01*
X419220Y109839D01*
X417721Y111338D01*
X416476Y113052D01*
X415514Y114940D01*
X414859Y116955D01*
X414755Y117609D01*
X425491Y117609D01*
X425491Y106873D01*
X424837Y106977D01*
G37*
%LPD*%
%LPC*%
G36*
X189803Y24613D02*
X189803Y24613D01*
X187787Y25268D01*
X185899Y26230D01*
X184185Y27476D01*
X182686Y28974D01*
X181441Y30688D01*
X180479Y32576D01*
X179824Y34592D01*
X179720Y35245D01*
X190456Y35245D01*
X190456Y24510D01*
X189803Y24613D01*
G37*
%LPD*%
%LPC*%
G36*
X112079Y24613D02*
X112079Y24613D01*
X110063Y25268D01*
X108175Y26230D01*
X106461Y27476D01*
X104962Y28974D01*
X103717Y30688D01*
X102755Y32576D01*
X102100Y34592D01*
X101996Y35245D01*
X112732Y35245D01*
X112732Y24510D01*
X112079Y24613D01*
G37*
%LPD*%
%LPC*%
G36*
X291528Y210248D02*
X291528Y210248D01*
X291528Y227077D01*
X294085Y227077D01*
X294732Y226904D01*
X295311Y226569D01*
X295784Y226096D01*
X296119Y225517D01*
X296292Y224870D01*
X296292Y210248D01*
X291528Y210248D01*
G37*
%LPD*%
%LPC*%
G36*
X291528Y188975D02*
X291528Y188975D01*
X291528Y205804D01*
X296292Y205804D01*
X296292Y191182D01*
X296119Y190535D01*
X295784Y189956D01*
X295311Y189483D01*
X294732Y189148D01*
X294085Y188975D01*
X291528Y188975D01*
G37*
%LPD*%
%LPC*%
G36*
X249300Y210248D02*
X249300Y210248D01*
X249300Y224870D01*
X249473Y225517D01*
X249808Y226096D01*
X250281Y226569D01*
X250860Y226904D01*
X251507Y227077D01*
X254064Y227077D01*
X254064Y210248D01*
X249300Y210248D01*
G37*
%LPD*%
%LPC*%
G36*
X251507Y188975D02*
X251507Y188975D01*
X250860Y189148D01*
X250281Y189483D01*
X249808Y189956D01*
X249473Y190535D01*
X249300Y191182D01*
X249300Y205804D01*
X254064Y205804D01*
X254064Y188975D01*
X251507Y188975D01*
G37*
%LPD*%
%LPC*%
G36*
X438609Y290539D02*
X438609Y290539D01*
X438609Y294334D01*
X438782Y294981D01*
X439117Y295560D01*
X439590Y296033D01*
X440169Y296368D01*
X440816Y296541D01*
X448611Y296541D01*
X448611Y290539D01*
X438609Y290539D01*
G37*
%LPD*%
%LPC*%
G36*
X438609Y156539D02*
X438609Y156539D01*
X438609Y160334D01*
X438782Y160981D01*
X439117Y161560D01*
X439590Y162033D01*
X440169Y162368D01*
X440816Y162541D01*
X448611Y162541D01*
X448611Y156539D01*
X438609Y156539D01*
G37*
%LPD*%
%LPC*%
G36*
X440816Y145459D02*
X440816Y145459D01*
X440169Y145632D01*
X439590Y145967D01*
X439117Y146440D01*
X438782Y147019D01*
X438609Y147666D01*
X438609Y151461D01*
X448611Y151461D01*
X448611Y145459D01*
X440816Y145459D01*
G37*
%LPD*%
%LPC*%
G36*
X440816Y279459D02*
X440816Y279459D01*
X440169Y279632D01*
X439590Y279967D01*
X439117Y280440D01*
X438782Y281019D01*
X438609Y281666D01*
X438609Y285461D01*
X448611Y285461D01*
X448611Y279459D01*
X440816Y279459D01*
G37*
%LPD*%
%LPC*%
G36*
X17017Y248439D02*
X17017Y248439D01*
X17017Y256061D01*
X21771Y256061D01*
X22611Y255836D01*
X23364Y255401D01*
X23979Y254786D01*
X24414Y254033D01*
X24639Y253193D01*
X24639Y248439D01*
X17017Y248439D01*
G37*
%LPD*%
%LPC*%
G36*
X17017Y215419D02*
X17017Y215419D01*
X17017Y223041D01*
X24639Y223041D01*
X24639Y218287D01*
X24414Y217447D01*
X23979Y216694D01*
X23364Y216079D01*
X22611Y215644D01*
X21771Y215419D01*
X17017Y215419D01*
G37*
%LPD*%
%LPC*%
G36*
X347979Y292861D02*
X347979Y292861D01*
X347979Y300483D01*
X352124Y300483D01*
X352771Y300310D01*
X353350Y299975D01*
X353823Y299502D01*
X354158Y298923D01*
X354331Y298276D01*
X354331Y292861D01*
X347979Y292861D01*
G37*
%LPD*%
%LPC*%
G36*
X374395Y150621D02*
X374395Y150621D01*
X374395Y156973D01*
X379810Y156973D01*
X380457Y156800D01*
X381036Y156465D01*
X381509Y155992D01*
X381844Y155413D01*
X382017Y154766D01*
X382017Y150621D01*
X374395Y150621D01*
G37*
%LPD*%
%LPC*%
G36*
X336549Y292861D02*
X336549Y292861D01*
X336549Y298276D01*
X336722Y298923D01*
X337057Y299502D01*
X337530Y299975D01*
X338109Y300310D01*
X338756Y300483D01*
X342901Y300483D01*
X342901Y292861D01*
X336549Y292861D01*
G37*
%LPD*%
%LPC*%
G36*
X347979Y280161D02*
X347979Y280161D01*
X347979Y287783D01*
X354331Y287783D01*
X354331Y282368D01*
X354158Y281721D01*
X353823Y281142D01*
X353350Y280669D01*
X352771Y280334D01*
X352124Y280161D01*
X347979Y280161D01*
G37*
%LPD*%
%LPC*%
G36*
X374395Y139191D02*
X374395Y139191D01*
X374395Y145543D01*
X382017Y145543D01*
X382017Y141398D01*
X381844Y140751D01*
X381509Y140172D01*
X381036Y139699D01*
X380457Y139364D01*
X379810Y139191D01*
X374395Y139191D01*
G37*
%LPD*%
%LPC*%
G36*
X338756Y280161D02*
X338756Y280161D01*
X338109Y280334D01*
X337530Y280669D01*
X337057Y281142D01*
X336722Y281721D01*
X336549Y282368D01*
X336549Y287783D01*
X342901Y287783D01*
X342901Y280161D01*
X338756Y280161D01*
G37*
%LPD*%
%LPC*%
G36*
X415899Y161459D02*
X415899Y161459D01*
X415899Y165501D01*
X423691Y165501D01*
X423691Y163666D01*
X423518Y163019D01*
X423183Y162440D01*
X422710Y161967D01*
X422131Y161632D01*
X421484Y161459D01*
X415899Y161459D01*
G37*
%LPD*%
%LPC*%
G36*
X407316Y239459D02*
X407316Y239459D01*
X406669Y239632D01*
X406090Y239967D01*
X405617Y240440D01*
X405282Y241019D01*
X405109Y241666D01*
X405109Y243501D01*
X412901Y243501D01*
X412901Y239459D01*
X407316Y239459D01*
G37*
%LPD*%
%LPC*%
G36*
X407316Y161459D02*
X407316Y161459D01*
X406669Y161632D01*
X406090Y161967D01*
X405617Y162440D01*
X405282Y163019D01*
X405109Y163666D01*
X405109Y165501D01*
X412901Y165501D01*
X412901Y161459D01*
X407316Y161459D01*
G37*
%LPD*%
%LPC*%
G36*
X362013Y29146D02*
X362013Y29146D01*
X362013Y33275D01*
X364072Y33275D01*
X364920Y33047D01*
X365680Y32609D01*
X366301Y31988D01*
X366740Y31227D01*
X366967Y30379D01*
X366967Y29146D01*
X362013Y29146D01*
G37*
%LPD*%
%LPC*%
G36*
X353885Y29146D02*
X353885Y29146D01*
X353885Y30379D01*
X354112Y31227D01*
X354551Y31988D01*
X355172Y32609D01*
X355932Y33047D01*
X356780Y33275D01*
X358839Y33275D01*
X358839Y29146D01*
X353885Y29146D01*
G37*
%LPD*%
%LPC*%
G36*
X362013Y21843D02*
X362013Y21843D01*
X362013Y25972D01*
X366967Y25972D01*
X366967Y24739D01*
X366740Y23891D01*
X366301Y23130D01*
X365680Y22509D01*
X364920Y22071D01*
X364072Y21843D01*
X362013Y21843D01*
G37*
%LPD*%
%LPC*%
G36*
X356780Y21843D02*
X356780Y21843D01*
X355932Y22071D01*
X355172Y22509D01*
X354551Y23130D01*
X354112Y23891D01*
X353885Y24739D01*
X353885Y25972D01*
X358839Y25972D01*
X358839Y21843D01*
X356780Y21843D01*
G37*
%LPD*%
%LPC*%
G36*
X345439Y290321D02*
X345439Y290321D01*
X345439Y290323D01*
X345441Y290323D01*
X345441Y290321D01*
X345439Y290321D01*
G37*
%LPD*%
%LPC*%
G36*
X178053Y116905D02*
X178053Y116905D01*
X178053Y116907D01*
X178055Y116907D01*
X178055Y116905D01*
X178053Y116905D01*
G37*
%LPD*%
%LPC*%
G36*
X345185Y259333D02*
X345185Y259333D01*
X345185Y259335D01*
X345187Y259335D01*
X345187Y259333D01*
X345185Y259333D01*
G37*
%LPD*%
%LPC*%
G36*
X141223Y291591D02*
X141223Y291591D01*
X141223Y291593D01*
X141225Y291593D01*
X141225Y291591D01*
X141223Y291591D01*
G37*
%LPD*%
D10*
X141224Y291592D03*
X141224Y207772D03*
D11*
X345186Y259334D03*
X345186Y205994D03*
D12*
X178054Y156906D03*
X178054Y116906D03*
D13*
X34874Y247119D02*
X34874Y250777D01*
X47930Y250777D01*
X47930Y247119D01*
X34874Y247119D01*
X34874Y247505D02*
X47930Y247505D01*
X47930Y247891D02*
X34874Y247891D01*
X34874Y248277D02*
X47930Y248277D01*
X47930Y248663D02*
X34874Y248663D01*
X34874Y249049D02*
X47930Y249049D01*
X47930Y249435D02*
X34874Y249435D01*
X34874Y249821D02*
X47930Y249821D01*
X47930Y250207D02*
X34874Y250207D01*
X34874Y250593D02*
X47930Y250593D01*
X34874Y244173D02*
X34874Y240515D01*
X34874Y244173D02*
X47930Y244173D01*
X47930Y240515D01*
X34874Y240515D01*
X34874Y240901D02*
X47930Y240901D01*
X47930Y241287D02*
X34874Y241287D01*
X34874Y241673D02*
X47930Y241673D01*
X47930Y242059D02*
X34874Y242059D01*
X34874Y242445D02*
X47930Y242445D01*
X47930Y242831D02*
X34874Y242831D01*
X34874Y243217D02*
X47930Y243217D01*
X47930Y243603D02*
X34874Y243603D01*
X34874Y243989D02*
X47930Y243989D01*
X34874Y237569D02*
X34874Y233911D01*
X34874Y237569D02*
X47930Y237569D01*
X47930Y233911D01*
X34874Y233911D01*
X34874Y234297D02*
X47930Y234297D01*
X47930Y234683D02*
X34874Y234683D01*
X34874Y235069D02*
X47930Y235069D01*
X47930Y235455D02*
X34874Y235455D01*
X34874Y235841D02*
X47930Y235841D01*
X47930Y236227D02*
X34874Y236227D01*
X34874Y236613D02*
X47930Y236613D01*
X47930Y236999D02*
X34874Y236999D01*
X34874Y237385D02*
X47930Y237385D01*
X34874Y230965D02*
X34874Y227307D01*
X34874Y230965D02*
X47930Y230965D01*
X47930Y227307D01*
X34874Y227307D01*
X34874Y227693D02*
X47930Y227693D01*
X47930Y228079D02*
X34874Y228079D01*
X34874Y228465D02*
X47930Y228465D01*
X47930Y228851D02*
X34874Y228851D01*
X34874Y229237D02*
X47930Y229237D01*
X47930Y229623D02*
X34874Y229623D01*
X34874Y230009D02*
X47930Y230009D01*
X47930Y230395D02*
X34874Y230395D01*
X34874Y230781D02*
X47930Y230781D01*
X34874Y224361D02*
X34874Y220703D01*
X34874Y224361D02*
X47930Y224361D01*
X47930Y220703D01*
X34874Y220703D01*
X34874Y221089D02*
X47930Y221089D01*
X47930Y221475D02*
X34874Y221475D01*
X34874Y221861D02*
X47930Y221861D01*
X47930Y222247D02*
X34874Y222247D01*
X34874Y222633D02*
X47930Y222633D01*
X47930Y223019D02*
X34874Y223019D01*
X34874Y223405D02*
X47930Y223405D01*
X47930Y223791D02*
X34874Y223791D01*
X34874Y224177D02*
X47930Y224177D01*
D14*
X7620Y239042D02*
X7620Y252758D01*
X21336Y252758D01*
X21336Y239042D01*
X7620Y239042D01*
X7620Y240490D02*
X21336Y240490D01*
X21336Y241938D02*
X7620Y241938D01*
X7620Y243386D02*
X21336Y243386D01*
X21336Y244834D02*
X7620Y244834D01*
X7620Y246282D02*
X21336Y246282D01*
X21336Y247730D02*
X7620Y247730D01*
X7620Y249178D02*
X21336Y249178D01*
X21336Y250626D02*
X7620Y250626D01*
X7620Y252074D02*
X21336Y252074D01*
X7620Y232438D02*
X7620Y218722D01*
X7620Y232438D02*
X21336Y232438D01*
X21336Y218722D01*
X7620Y218722D01*
X7620Y220170D02*
X21336Y220170D01*
X21336Y221618D02*
X7620Y221618D01*
X7620Y223066D02*
X21336Y223066D01*
X21336Y224514D02*
X7620Y224514D01*
X7620Y225962D02*
X21336Y225962D01*
X21336Y227410D02*
X7620Y227410D01*
X7620Y228858D02*
X21336Y228858D01*
X21336Y230306D02*
X7620Y230306D01*
X7620Y231754D02*
X21336Y231754D01*
D15*
X41402Y261902D03*
X41402Y259362D03*
X41402Y260632D03*
X41402Y212118D03*
X41402Y209578D03*
X41402Y211102D03*
D16*
X17018Y270792D03*
X17018Y200688D03*
X11938Y270792D03*
X14224Y270792D03*
X11938Y200688D03*
X14478Y200688D03*
D17*
X414400Y245000D03*
X414400Y255000D03*
X414400Y265000D03*
X414400Y275000D03*
D18*
X451150Y288000D03*
X451150Y232000D03*
D17*
X414400Y167000D03*
X414400Y177000D03*
X414400Y187000D03*
X414400Y197000D03*
D18*
X451150Y210000D03*
X451150Y154000D03*
D19*
X192955Y37744D03*
X157955Y37744D03*
X427990Y120108D03*
X427990Y85108D03*
X115231Y37744D03*
X80231Y37744D03*
D20*
X218400Y121928D03*
X340400Y122428D03*
D21*
X223266Y208026D03*
X239776Y208026D03*
X256286Y208026D03*
X272796Y208026D03*
X289306Y208026D03*
D22*
X256286Y312166D03*
D23*
X363760Y63786D02*
X363760Y57118D01*
X357092Y57118D01*
X357092Y63786D01*
X363760Y63786D01*
X363760Y59230D02*
X357092Y59230D01*
X357092Y61342D02*
X363760Y61342D01*
X363760Y63454D02*
X357092Y63454D01*
X363760Y72358D02*
X363760Y79026D01*
X363760Y72358D02*
X357092Y72358D01*
X357092Y79026D01*
X363760Y79026D01*
X363760Y74470D02*
X357092Y74470D01*
X357092Y76582D02*
X363760Y76582D01*
X363760Y78694D02*
X357092Y78694D01*
D24*
X357220Y43910D02*
X357220Y39148D01*
X357220Y43910D02*
X363632Y43910D01*
X363632Y39148D01*
X357220Y39148D01*
X357220Y40657D02*
X363632Y40657D01*
X363632Y42166D02*
X357220Y42166D01*
X357220Y43675D02*
X363632Y43675D01*
X357220Y29940D02*
X357220Y25178D01*
X357220Y29940D02*
X363632Y29940D01*
X363632Y25178D01*
X357220Y25178D01*
X357220Y26687D02*
X363632Y26687D01*
X363632Y28196D02*
X357220Y28196D01*
X357220Y29705D02*
X363632Y29705D01*
D25*
X38852Y128016D03*
D26*
X85852Y128016D03*
X132852Y128016D03*
D27*
X345440Y290322D03*
X370840Y290322D03*
D28*
X371856Y148082D03*
X371856Y122682D03*
D29*
X256286Y208026D02*
X256286Y231140D01*
X262890Y237744D01*
X284226Y237744D01*
X289306Y232664D02*
X289306Y208026D01*
X289306Y232664D02*
X284226Y237744D01*
X14478Y203228D02*
X11938Y200688D01*
X14478Y203228D02*
X14478Y225580D01*
X14478Y245900D01*
X14478Y270538D01*
X14224Y270792D01*
X32766Y270538D02*
X41402Y261902D01*
X32766Y270538D02*
X14478Y270538D01*
X41402Y212118D02*
X29972Y200688D01*
X14478Y200688D01*
X249682Y237744D02*
X262890Y237744D01*
X249682Y237744D02*
X179324Y237744D01*
X141224Y275844D02*
X141224Y291592D01*
X141224Y275844D02*
X179324Y237744D01*
X249682Y237744D02*
X256286Y231140D01*
X284226Y237744D02*
X294386Y237744D01*
X345186Y253238D02*
X345186Y259334D01*
X294386Y237744D02*
X289306Y232664D01*
D30*
X53312Y222532D02*
X41402Y222532D01*
X53312Y222532D02*
X53340Y222504D01*
D31*
X53340Y222504D03*
D32*
X427990Y120108D02*
X451150Y143268D01*
X451150Y154000D01*
D29*
X345186Y259334D02*
X345186Y267970D01*
D33*
X417830Y221488D03*
X410210Y221488D03*
X402590Y221488D03*
X394970Y221488D03*
X402590Y229108D03*
X402590Y213868D03*
X127000Y349504D03*
X137414Y349504D03*
X147574Y349504D03*
X157734Y349504D03*
X167894Y349504D03*
X178054Y349504D03*
X450850Y274828D03*
X450850Y264668D03*
X450850Y254508D03*
X450850Y244348D03*
X256794Y232664D03*
X256794Y242824D03*
X256794Y252984D03*
X266954Y252984D03*
X246634Y252984D03*
X249174Y245364D03*
X264414Y245364D03*
D29*
X294386Y237744D02*
X329692Y237744D01*
X345186Y253238D01*
D32*
X410446Y85108D02*
X427990Y85108D01*
X410446Y85108D02*
X395351Y100203D01*
X385318Y110236D01*
D34*
X384937Y100203D02*
X360426Y75692D01*
X384937Y100203D02*
X395351Y100203D01*
X384937Y100203D02*
X384937Y109855D01*
X385318Y110236D01*
D32*
X345186Y203922D02*
X345186Y205994D01*
D35*
X345186Y216662D01*
D32*
X340400Y201208D02*
X340400Y122428D01*
X340400Y201208D02*
X345186Y205994D01*
X272796Y208026D02*
X272796Y184404D01*
X334772Y122428D02*
X340400Y122428D01*
X334772Y122428D02*
X272796Y184404D01*
X373126Y122428D02*
X385318Y110236D01*
X373126Y122428D02*
X340400Y122428D01*
D35*
X372108Y177000D02*
X345186Y203922D01*
X372108Y177000D02*
X414400Y177000D01*
X345186Y203922D02*
X345186Y208788D01*
X398018Y255000D02*
X414400Y255000D01*
X398018Y255000D02*
X391398Y255000D01*
X345186Y208788D01*
X391398Y269764D02*
X370840Y290322D01*
X391398Y269764D02*
X391398Y261620D01*
X391398Y255000D01*
X398018Y255000D02*
X391398Y261620D01*
X371856Y122682D02*
X340654Y122682D01*
X340400Y122428D01*
D30*
X58138Y248948D02*
X41402Y248948D01*
D29*
X58138Y248948D02*
X66040Y241046D01*
X66040Y155204D02*
X38852Y128016D01*
X66040Y155204D02*
X66040Y241046D01*
D32*
X80231Y72390D02*
X80231Y37744D01*
X80231Y76190D02*
X80231Y86637D01*
X38852Y128016D01*
X157955Y53119D02*
X157955Y37744D01*
X124437Y86637D02*
X90678Y86637D01*
X80231Y86637D01*
X124437Y86637D02*
X157955Y53119D01*
X90678Y86637D02*
X80231Y76190D01*
X80231Y72390D01*
D29*
X218400Y121928D02*
X218694Y122222D01*
D32*
X213032Y121928D02*
X178054Y156906D01*
X213032Y121928D02*
X218400Y121928D01*
D29*
X239776Y144526D02*
X239776Y208026D01*
X218694Y123444D02*
X218694Y122222D01*
X218694Y123444D02*
X239776Y144526D01*
D36*
X360426Y60452D02*
X360426Y41529D01*
D29*
X223012Y207772D02*
X223266Y208026D01*
X223012Y207772D02*
X141224Y207772D01*
D32*
X141224Y183388D02*
X85852Y128016D01*
X141224Y183388D02*
X141224Y207772D01*
D34*
X414400Y265000D02*
X419530Y265000D01*
X426466Y258064D01*
X426466Y194056D01*
X419410Y187000D02*
X414400Y187000D01*
X419410Y187000D02*
X426466Y194056D01*
X419690Y275000D02*
X414400Y275000D01*
X433070Y261620D02*
X433070Y207010D01*
D33*
X433070Y207010D03*
X414274Y207010D03*
D34*
X414274Y197126D01*
X414400Y197000D01*
X433070Y261620D02*
X419690Y275000D01*
M02*
