G04 EAGLE Gerber RS-274X export*
G75*
%MOMM*%
%FSLAX34Y34*%
%LPD*%
%INSilkscreen Bottom*%
%IPPOS*%
%AMOC8*
5,1,8,0,0,1.08239X$1,22.5*%
G01*
%ADD10C,0.101600*%
%ADD11R,0.120000X0.020000*%
%ADD12R,0.340000X0.020000*%
%ADD13R,0.320000X0.020000*%
%ADD14R,0.140000X0.020000*%
%ADD15R,0.280000X0.020000*%
%ADD16R,0.360000X0.020000*%
%ADD17R,0.420000X0.020000*%
%ADD18R,0.380000X0.020000*%
%ADD19R,0.480000X0.020000*%
%ADD20R,0.540000X0.020000*%
%ADD21R,0.560000X0.020000*%
%ADD22R,0.400000X0.020000*%
%ADD23R,0.640000X0.020000*%
%ADD24R,0.620000X0.020000*%
%ADD25R,0.700000X0.020000*%
%ADD26R,0.660000X0.020000*%
%ADD27R,0.740000X0.020000*%
%ADD28R,1.080000X0.020000*%
%ADD29R,0.800000X0.020000*%
%ADD30R,1.100000X0.020000*%
%ADD31R,0.440000X0.020000*%
%ADD32R,0.840000X0.020000*%
%ADD33R,1.120000X0.020000*%
%ADD34R,0.460000X0.020000*%
%ADD35R,0.860000X0.020000*%
%ADD36R,0.900000X0.020000*%
%ADD37R,1.140000X0.020000*%
%ADD38R,0.920000X0.020000*%
%ADD39R,1.160000X0.020000*%
%ADD40R,0.960000X0.020000*%
%ADD41R,0.500000X0.020000*%
%ADD42R,0.520000X0.020000*%
%ADD43R,0.940000X0.020000*%
%ADD44R,0.260000X0.020000*%
%ADD45R,0.180000X0.020000*%
%ADD46R,0.580000X0.020000*%
%ADD47R,0.060000X0.020000*%
%ADD48R,0.600000X0.020000*%
%ADD49R,0.300000X0.020000*%
%ADD50R,0.040000X0.020000*%
%ADD51R,0.100000X0.020000*%
%ADD52R,0.160000X0.020000*%
%ADD53R,0.220000X0.020000*%
%ADD54R,0.980000X0.020000*%
%ADD55R,0.880000X0.020000*%
%ADD56R,0.760000X0.020000*%
%ADD57R,1.060000X0.020000*%
%ADD58R,0.720000X0.020000*%
%ADD59R,0.820000X0.020000*%
%ADD60R,1.180000X0.020000*%
%ADD61R,1.340000X0.020000*%
%ADD62R,1.460000X0.020000*%
%ADD63R,1.600000X0.020000*%
%ADD64R,1.700000X0.020000*%
%ADD65R,1.820000X0.020000*%
%ADD66R,1.900000X0.020000*%
%ADD67R,1.980000X0.020000*%
%ADD68R,2.100000X0.020000*%
%ADD69R,2.160000X0.020000*%
%ADD70R,2.260000X0.020000*%
%ADD71R,2.340000X0.020000*%
%ADD72R,2.400000X0.020000*%
%ADD73R,2.480000X0.020000*%
%ADD74R,2.540000X0.020000*%
%ADD75R,2.600000X0.020000*%
%ADD76R,2.680000X0.020000*%
%ADD77R,2.720000X0.020000*%
%ADD78R,2.800000X0.020000*%
%ADD79R,2.840000X0.020000*%
%ADD80R,2.900000X0.020000*%
%ADD81R,2.960000X0.020000*%
%ADD82R,3.000000X0.020000*%
%ADD83R,3.060000X0.020000*%
%ADD84R,3.120000X0.020000*%
%ADD85R,3.160000X0.020000*%
%ADD86R,3.200000X0.020000*%
%ADD87R,3.260000X0.020000*%
%ADD88R,3.300000X0.020000*%
%ADD89R,3.340000X0.020000*%
%ADD90R,3.380000X0.020000*%
%ADD91R,3.420000X0.020000*%
%ADD92R,3.460000X0.020000*%
%ADD93R,3.520000X0.020000*%
%ADD94R,3.540000X0.020000*%
%ADD95R,3.580000X0.020000*%
%ADD96R,3.620000X0.020000*%
%ADD97R,3.660000X0.020000*%
%ADD98R,3.700000X0.020000*%
%ADD99R,3.740000X0.020000*%
%ADD100R,3.780000X0.020000*%
%ADD101R,3.800000X0.020000*%
%ADD102R,3.840000X0.020000*%
%ADD103R,3.860000X0.020000*%
%ADD104R,3.900000X0.020000*%
%ADD105R,3.940000X0.020000*%
%ADD106R,3.960000X0.020000*%
%ADD107R,3.980000X0.020000*%
%ADD108R,4.020000X0.020000*%
%ADD109R,4.060000X0.020000*%
%ADD110R,4.080000X0.020000*%
%ADD111R,4.100000X0.020000*%
%ADD112R,4.120000X0.020000*%
%ADD113R,4.160000X0.020000*%
%ADD114R,4.180000X0.020000*%
%ADD115R,4.200000X0.020000*%
%ADD116R,4.240000X0.020000*%
%ADD117R,4.260000X0.020000*%
%ADD118R,4.280000X0.020000*%
%ADD119R,4.300000X0.020000*%
%ADD120R,4.320000X0.020000*%
%ADD121R,4.340000X0.020000*%
%ADD122R,4.380000X0.020000*%
%ADD123R,4.400000X0.020000*%
%ADD124R,4.440000X0.020000*%
%ADD125R,4.460000X0.020000*%
%ADD126R,4.500000X0.020000*%
%ADD127R,4.520000X0.020000*%
%ADD128R,4.540000X0.020000*%
%ADD129R,4.560000X0.020000*%
%ADD130R,4.580000X0.020000*%
%ADD131R,4.600000X0.020000*%
%ADD132R,4.620000X0.020000*%
%ADD133R,4.640000X0.020000*%
%ADD134R,4.660000X0.020000*%
%ADD135R,4.680000X0.020000*%
%ADD136R,4.700000X0.020000*%
%ADD137R,4.720000X0.020000*%
%ADD138R,4.740000X0.020000*%
%ADD139R,0.680000X0.020000*%
%ADD140R,1.480000X0.020000*%
%ADD141R,1.580000X0.020000*%
%ADD142R,1.560000X0.020000*%
%ADD143R,1.540000X0.020000*%
%ADD144R,1.520000X0.020000*%
%ADD145R,1.500000X0.020000*%
%ADD146R,1.440000X0.020000*%
%ADD147R,1.400000X0.020000*%
%ADD148R,1.420000X0.020000*%
%ADD149R,1.380000X0.020000*%
%ADD150R,1.360000X0.020000*%
%ADD151R,1.320000X0.020000*%
%ADD152R,1.300000X0.020000*%
%ADD153R,1.260000X0.020000*%
%ADD154R,1.220000X0.020000*%
%ADD155R,1.200000X0.020000*%
%ADD156R,1.040000X0.020000*%
%ADD157R,1.020000X0.020000*%
%ADD158R,1.000000X0.020000*%
%ADD159R,1.280000X0.020000*%
%ADD160R,0.780000X0.020000*%
%ADD161R,1.240000X0.020000*%
%ADD162R,0.020000X0.020000*%
%ADD163R,1.840000X0.020000*%
%ADD164R,1.800000X0.020000*%
%ADD165R,1.780000X0.020000*%
%ADD166R,1.760000X0.020000*%
%ADD167R,1.740000X0.020000*%
%ADD168R,1.680000X0.020000*%
%ADD169R,1.660000X0.020000*%
%ADD170R,1.620000X0.020000*%
%ADD171C,0.152400*%

G36*
X379561Y258807D02*
X379561Y258807D01*
X379560Y258808D01*
X379561Y258809D01*
X379561Y298887D01*
X379556Y298893D01*
X379555Y298898D01*
X376786Y300504D01*
X374018Y302108D01*
X371250Y303714D01*
X365713Y306921D01*
X362945Y308528D01*
X360176Y310131D01*
X357405Y311738D01*
X354636Y313341D01*
X351868Y314945D01*
X349103Y316551D01*
X346338Y318155D01*
X343573Y319761D01*
X340808Y321368D01*
X338046Y322974D01*
X335284Y324584D01*
X332522Y326194D01*
X329760Y327810D01*
X327004Y329426D01*
X324282Y331056D01*
X326955Y332199D01*
X329656Y333338D01*
X332360Y334478D01*
X335061Y335614D01*
X337763Y336753D01*
X340467Y337886D01*
X343168Y339022D01*
X345872Y340158D01*
X348574Y341295D01*
X351278Y342427D01*
X354037Y343586D01*
X356795Y344741D01*
X359554Y345900D01*
X362310Y347058D01*
X365068Y348214D01*
X370586Y350531D01*
X373345Y351689D01*
X376103Y352848D01*
X378859Y354007D01*
X379499Y354282D01*
X379502Y354287D01*
X379506Y354291D01*
X379505Y354293D01*
X379506Y354296D01*
X379499Y354299D01*
X379494Y354305D01*
X369951Y354305D01*
X366770Y354308D01*
X338139Y354308D01*
X337266Y354309D01*
X337234Y354309D01*
X334958Y354311D01*
X303142Y354311D01*
X299961Y354314D01*
X284055Y354314D01*
X284043Y354304D01*
X284044Y354303D01*
X284043Y354302D01*
X284043Y314121D01*
X284048Y314116D01*
X284049Y314111D01*
X286808Y312514D01*
X289567Y310914D01*
X292322Y309314D01*
X295081Y307717D01*
X297840Y306116D01*
X300599Y304519D01*
X303357Y302919D01*
X306116Y301319D01*
X308875Y299722D01*
X311633Y298122D01*
X314399Y296518D01*
X317161Y294918D01*
X319926Y293315D01*
X322691Y291711D01*
X325456Y290105D01*
X328218Y288501D01*
X330980Y286895D01*
X336504Y283682D01*
X339239Y282074D01*
X336534Y280903D01*
X333794Y279738D01*
X331058Y278582D01*
X328315Y277424D01*
X325576Y276268D01*
X322833Y275113D01*
X320094Y273961D01*
X317351Y272809D01*
X314608Y271657D01*
X311865Y270508D01*
X309103Y269349D01*
X306345Y268191D01*
X303583Y267032D01*
X300821Y265874D01*
X298062Y264715D01*
X295300Y263556D01*
X292541Y262398D01*
X289779Y261239D01*
X287021Y260078D01*
X284265Y258913D01*
X284262Y258907D01*
X284258Y258903D01*
X284260Y258901D01*
X284258Y258898D01*
X284265Y258895D01*
X284270Y258890D01*
X287438Y258858D01*
X290606Y258845D01*
X293778Y258835D01*
X296950Y258829D01*
X300121Y258823D01*
X303290Y258819D01*
X306461Y258816D01*
X309633Y258810D01*
X312804Y258807D01*
X315976Y258807D01*
X319144Y258803D01*
X322316Y258800D01*
X338190Y258800D01*
X341371Y258797D01*
X379549Y258797D01*
X379561Y258807D01*
G37*
G36*
X343433Y233408D02*
X343433Y233408D01*
X343434Y233410D01*
X343436Y233409D01*
X346390Y234366D01*
X346391Y234368D01*
X346393Y234367D01*
X348922Y236175D01*
X348922Y236178D01*
X348924Y236178D01*
X350752Y238687D01*
X350751Y238690D01*
X350753Y238690D01*
X351185Y239897D01*
X351509Y240786D01*
X351508Y240789D01*
X351509Y240790D01*
X351660Y243017D01*
X351659Y243018D01*
X351660Y243019D01*
X351490Y245333D01*
X351488Y245335D01*
X351489Y245336D01*
X350641Y247493D01*
X350639Y247494D01*
X350640Y247496D01*
X348831Y249967D01*
X348829Y249967D01*
X348829Y249970D01*
X346319Y251727D01*
X346317Y251726D01*
X346317Y251728D01*
X344067Y252535D01*
X344065Y252534D01*
X344063Y252535D01*
X341673Y252673D01*
X341672Y252672D01*
X341671Y252673D01*
X338758Y252385D01*
X338757Y252383D01*
X338755Y252384D01*
X335916Y251049D01*
X335915Y251047D01*
X335913Y251047D01*
X333628Y248903D01*
X333627Y248900D01*
X333625Y248899D01*
X332185Y246115D01*
X332186Y246113D01*
X332184Y246111D01*
X332184Y246110D01*
X332182Y246098D01*
X332173Y246038D01*
X332171Y246026D01*
X332170Y246014D01*
X332168Y246002D01*
X332157Y245931D01*
X332156Y245919D01*
X332154Y245907D01*
X332152Y245895D01*
X332143Y245835D01*
X332142Y245823D01*
X332140Y245811D01*
X332138Y245799D01*
X332136Y245788D01*
X332136Y245787D01*
X332128Y245728D01*
X332126Y245716D01*
X332124Y245704D01*
X332123Y245692D01*
X332122Y245692D01*
X332123Y245692D01*
X332112Y245620D01*
X332110Y245608D01*
X332109Y245597D01*
X332109Y245596D01*
X332107Y245585D01*
X332098Y245525D01*
X332096Y245513D01*
X332095Y245501D01*
X332093Y245489D01*
X332082Y245417D01*
X332081Y245406D01*
X332081Y245405D01*
X332079Y245394D01*
X332077Y245382D01*
X332068Y245322D01*
X332067Y245310D01*
X332065Y245298D01*
X332063Y245286D01*
X332061Y245274D01*
X332053Y245215D01*
X332053Y245214D01*
X332051Y245203D01*
X332049Y245191D01*
X332047Y245179D01*
X332037Y245107D01*
X332035Y245095D01*
X332033Y245083D01*
X332032Y245071D01*
X332023Y245012D01*
X332021Y245000D01*
X332019Y244988D01*
X332018Y244976D01*
X332007Y244904D01*
X332006Y244892D01*
X332005Y244892D01*
X332006Y244892D01*
X332004Y244880D01*
X332002Y244868D01*
X331992Y244797D01*
X331990Y244785D01*
X331988Y244773D01*
X331986Y244761D01*
X331978Y244701D01*
X331976Y244689D01*
X331974Y244677D01*
X331972Y244665D01*
X331962Y244594D01*
X331960Y244582D01*
X331958Y244570D01*
X331957Y244558D01*
X331948Y244498D01*
X331946Y244486D01*
X331944Y244474D01*
X331943Y244462D01*
X331932Y244391D01*
X331930Y244379D01*
X331929Y244367D01*
X331927Y244355D01*
X331916Y244283D01*
X331915Y244271D01*
X331913Y244260D01*
X331913Y244259D01*
X331911Y244248D01*
X331902Y244188D01*
X331901Y244176D01*
X331899Y244164D01*
X331897Y244152D01*
X331887Y244080D01*
X331885Y244069D01*
X331885Y244068D01*
X331883Y244057D01*
X331882Y244045D01*
X331881Y244045D01*
X331882Y244045D01*
X331873Y243985D01*
X331871Y243973D01*
X331869Y243961D01*
X331868Y243949D01*
X331857Y243878D01*
X331857Y243877D01*
X331855Y243866D01*
X331854Y243854D01*
X331852Y243842D01*
X331841Y243770D01*
X331840Y243758D01*
X331838Y243746D01*
X331836Y243734D01*
X331827Y243675D01*
X331826Y243663D01*
X331824Y243651D01*
X331822Y243639D01*
X331812Y243567D01*
X331810Y243555D01*
X331808Y243543D01*
X331806Y243531D01*
X331798Y243472D01*
X331796Y243460D01*
X331794Y243448D01*
X331792Y243436D01*
X331791Y243424D01*
X331782Y243364D01*
X331780Y243352D01*
X331778Y243340D01*
X331777Y243328D01*
X331766Y243257D01*
X331765Y243245D01*
X331764Y243245D01*
X331765Y243245D01*
X331763Y243233D01*
X331761Y243221D01*
X331752Y243161D01*
X331751Y243149D01*
X331749Y243137D01*
X331747Y243125D01*
X331737Y243054D01*
X331736Y243049D01*
X331737Y243047D01*
X331736Y243045D01*
X332024Y240639D01*
X332025Y240637D01*
X332024Y240636D01*
X332309Y239897D01*
X332905Y238376D01*
X332906Y238375D01*
X332906Y238374D01*
X334337Y236421D01*
X334339Y236421D01*
X334339Y236419D01*
X336525Y234672D01*
X336527Y234672D01*
X336528Y234670D01*
X339117Y233611D01*
X339119Y233611D01*
X339120Y233610D01*
X341267Y233354D01*
X341268Y233354D01*
X341269Y233354D01*
X343433Y233408D01*
G37*
G36*
X379561Y233627D02*
X379561Y233627D01*
X379560Y233627D01*
X379561Y233628D01*
X379561Y236777D01*
X379557Y236781D01*
X379558Y236785D01*
X377846Y238776D01*
X376133Y240766D01*
X374421Y242760D01*
X372709Y244751D01*
X370994Y246742D01*
X369298Y248713D01*
X371762Y248728D01*
X374252Y248741D01*
X376739Y248754D01*
X379229Y248770D01*
X379241Y248781D01*
X379240Y248781D01*
X379241Y248782D01*
X379241Y252408D01*
X379230Y252420D01*
X379229Y252419D01*
X379229Y252420D01*
X363864Y252420D01*
X363852Y252410D01*
X363852Y252409D01*
X363852Y252408D01*
X363864Y249259D01*
X363868Y249255D01*
X363867Y249251D01*
X365583Y247260D01*
X367301Y245267D01*
X369017Y243276D01*
X370732Y241285D01*
X372451Y239291D01*
X374149Y237320D01*
X373427Y237317D01*
X373421Y237317D01*
X371599Y237308D01*
X371140Y237305D01*
X371135Y237305D01*
X369216Y237293D01*
X369211Y237293D01*
X369019Y237292D01*
X366859Y237281D01*
X366853Y237281D01*
X366443Y237279D01*
X364455Y237269D01*
X364449Y237269D01*
X363864Y237266D01*
X363852Y237256D01*
X363852Y237255D01*
X363852Y237254D01*
X363852Y233628D01*
X363862Y233616D01*
X363863Y233617D01*
X363864Y233616D01*
X379549Y233616D01*
X379561Y233627D01*
G37*
G36*
X313022Y233395D02*
X313022Y233395D01*
X313024Y233397D01*
X313026Y233396D01*
X316031Y234359D01*
X316032Y234361D01*
X316034Y234361D01*
X318547Y236265D01*
X318547Y236268D01*
X318549Y236268D01*
X320079Y238399D01*
X320079Y238402D01*
X320081Y238402D01*
X320964Y240876D01*
X320963Y240878D01*
X320965Y240879D01*
X321163Y243497D01*
X321162Y243499D01*
X321163Y243500D01*
X320737Y245990D01*
X320736Y245991D01*
X320736Y245993D01*
X319687Y248291D01*
X319685Y248292D01*
X319685Y248294D01*
X318069Y250236D01*
X318067Y250237D01*
X318066Y250238D01*
X315906Y251743D01*
X315904Y251742D01*
X315903Y251744D01*
X313407Y252583D01*
X313405Y252582D01*
X313404Y252583D01*
X310859Y252721D01*
X310858Y252720D01*
X310857Y252721D01*
X308326Y252426D01*
X308324Y252425D01*
X308323Y252426D01*
X306162Y251552D01*
X306161Y251550D01*
X306160Y251550D01*
X304275Y250187D01*
X304274Y250182D01*
X304270Y250181D01*
X304117Y249666D01*
X304117Y249665D01*
X304120Y249659D01*
X304119Y249654D01*
X305332Y248237D01*
X306455Y246924D01*
X306468Y246923D01*
X306470Y246922D01*
X307280Y247389D01*
X309259Y248524D01*
X311495Y248930D01*
X313698Y248390D01*
X315573Y246854D01*
X316636Y244673D01*
X316793Y243069D01*
X316636Y241469D01*
X315419Y239045D01*
X313232Y237458D01*
X311271Y237196D01*
X309307Y237454D01*
X307015Y238851D01*
X306443Y239315D01*
X306427Y239314D01*
X305099Y237996D01*
X303774Y236677D01*
X303773Y236661D01*
X303774Y236661D01*
X303774Y236660D01*
X304462Y236004D01*
X304463Y236004D01*
X304463Y236003D01*
X306432Y234518D01*
X306434Y234518D01*
X306434Y234516D01*
X308726Y233611D01*
X308728Y233611D01*
X308729Y233610D01*
X310867Y233357D01*
X310868Y233358D01*
X310868Y233357D01*
X313022Y233395D01*
G37*
G36*
X292965Y233360D02*
X292965Y233360D01*
X292967Y233362D01*
X292968Y233361D01*
X295711Y234151D01*
X295712Y234153D01*
X295714Y234152D01*
X298111Y235692D01*
X298112Y235694D01*
X298114Y235694D01*
X299935Y237893D01*
X299935Y237895D01*
X299937Y237896D01*
X301048Y240523D01*
X301047Y240525D01*
X301048Y240527D01*
X301295Y243014D01*
X301294Y243015D01*
X301295Y243016D01*
X301052Y245503D01*
X301050Y245504D01*
X301051Y245506D01*
X300011Y248006D01*
X300009Y248007D01*
X300009Y248008D01*
X298335Y250134D01*
X298333Y250134D01*
X298333Y250136D01*
X296121Y251695D01*
X296119Y251694D01*
X296118Y251696D01*
X293561Y252583D01*
X293559Y252582D01*
X293558Y252583D01*
X291014Y252721D01*
X291012Y252720D01*
X291012Y252721D01*
X288480Y252426D01*
X288479Y252425D01*
X288477Y252426D01*
X286320Y251552D01*
X286319Y251550D01*
X286317Y251550D01*
X284432Y250190D01*
X284429Y250175D01*
X285475Y248239D01*
X285477Y248238D01*
X285477Y248237D01*
X286616Y246918D01*
X286622Y246917D01*
X286624Y246915D01*
X286627Y246915D01*
X286628Y246916D01*
X286631Y246915D01*
X287175Y247194D01*
X287176Y247194D01*
X289209Y248454D01*
X291538Y248943D01*
X293853Y248390D01*
X295558Y247081D01*
X296612Y245200D01*
X296954Y243069D01*
X296548Y240696D01*
X295203Y238703D01*
X293342Y237448D01*
X291113Y237186D01*
X288992Y237656D01*
X287170Y238851D01*
X286597Y239315D01*
X286582Y239314D01*
X285314Y238050D01*
X284046Y236673D01*
X284046Y236658D01*
X284552Y236056D01*
X284554Y236056D01*
X284554Y236054D01*
X286493Y234560D01*
X286495Y234560D01*
X286496Y234558D01*
X288765Y233649D01*
X288767Y233650D01*
X288768Y233648D01*
X291204Y233354D01*
X291205Y233354D01*
X292965Y233360D01*
G37*
%LPC*%
G36*
X340238Y237324D02*
X340238Y237324D01*
X338080Y238457D01*
X336999Y239908D01*
X336623Y240415D01*
X336074Y242795D01*
X336451Y245212D01*
X337965Y247435D01*
X339747Y248569D01*
X341832Y248904D01*
X344147Y248412D01*
X346018Y246975D01*
X347127Y244880D01*
X347363Y243127D01*
X347354Y243042D01*
X347333Y242863D01*
X347312Y242672D01*
X347292Y242493D01*
X347270Y242302D01*
X347250Y242123D01*
X347228Y241932D01*
X347208Y241753D01*
X347187Y241562D01*
X347167Y241383D01*
X347166Y241383D01*
X347165Y241371D01*
X346318Y239907D01*
X345683Y238812D01*
X343911Y237778D01*
X343095Y237324D01*
X340238Y237324D01*
G37*
%LPD*%
G36*
X359715Y233627D02*
X359715Y233627D01*
X359714Y233627D01*
X359715Y233628D01*
X359715Y252405D01*
X359705Y252417D01*
X359704Y252416D01*
X359703Y252417D01*
X355648Y252417D01*
X355636Y252406D01*
X355637Y252406D01*
X355636Y252405D01*
X355636Y233628D01*
X355647Y233616D01*
X355648Y233617D01*
X355648Y233616D01*
X359703Y233616D01*
X359715Y233627D01*
G37*
G36*
X328665Y233627D02*
X328665Y233627D01*
X328664Y233627D01*
X328665Y233628D01*
X328665Y237894D01*
X328654Y237906D01*
X328654Y237905D01*
X328653Y237906D01*
X324278Y237906D01*
X324266Y237896D01*
X324267Y237895D01*
X324266Y237894D01*
X324266Y233628D01*
X324276Y233616D01*
X324277Y233617D01*
X324278Y233616D01*
X328653Y233616D01*
X328665Y233627D01*
G37*
D10*
X379984Y222512D02*
X373883Y222512D01*
X373883Y220987D01*
X379984Y214885D01*
X379984Y213360D01*
X373883Y213360D01*
X370629Y219461D02*
X369104Y219461D01*
X369104Y213360D01*
X370629Y213360D02*
X367578Y213360D01*
X369104Y222512D02*
X369104Y224037D01*
X362867Y213360D02*
X359816Y213360D01*
X358291Y214885D01*
X358291Y217936D01*
X359816Y219461D01*
X362867Y219461D01*
X364392Y217936D01*
X364392Y214885D01*
X362867Y213360D01*
X345682Y214885D02*
X345682Y220987D01*
X344156Y222512D01*
X341106Y222512D01*
X339580Y220987D01*
X339580Y214885D01*
X341106Y213360D01*
X344156Y213360D01*
X345682Y214885D01*
X342631Y216411D02*
X339580Y213360D01*
X336326Y214885D02*
X336326Y219461D01*
X336326Y214885D02*
X334801Y213360D01*
X333276Y214885D01*
X331751Y213360D01*
X330225Y214885D01*
X330225Y219461D01*
X326971Y219461D02*
X325446Y219461D01*
X325446Y213360D01*
X326971Y213360D02*
X323921Y213360D01*
X325446Y222512D02*
X325446Y224037D01*
X320735Y219461D02*
X319209Y219461D01*
X319209Y213360D01*
X317684Y213360D02*
X320735Y213360D01*
X319209Y222512D02*
X319209Y224037D01*
X312972Y219461D02*
X308397Y219461D01*
X312972Y219461D02*
X314498Y217936D01*
X314498Y214885D01*
X312972Y213360D01*
X308397Y213360D01*
X295787Y213360D02*
X295787Y222512D01*
X291211Y222512D01*
X289686Y220987D01*
X289686Y217936D01*
X291211Y216411D01*
X295787Y216411D01*
X284907Y213360D02*
X281856Y213360D01*
X280331Y214885D01*
X280331Y217936D01*
X281856Y219461D01*
X284907Y219461D01*
X286432Y217936D01*
X286432Y214885D01*
X284907Y213360D01*
X277077Y214885D02*
X277077Y219461D01*
X277077Y214885D02*
X275552Y213360D01*
X274026Y214885D01*
X272501Y213360D01*
X270976Y214885D01*
X270976Y219461D01*
X266197Y213360D02*
X263146Y213360D01*
X266197Y213360D02*
X267722Y214885D01*
X267722Y217936D01*
X266197Y219461D01*
X263146Y219461D01*
X261621Y217936D01*
X261621Y216411D01*
X267722Y216411D01*
X258367Y213360D02*
X258367Y219461D01*
X258367Y216411D02*
X255316Y219461D01*
X253791Y219461D01*
X241215Y219461D02*
X241215Y213360D01*
X241215Y219461D02*
X238165Y222512D01*
X235114Y219461D01*
X235114Y213360D01*
X235114Y217936D02*
X241215Y217936D01*
X225759Y222512D02*
X225759Y213360D01*
X230335Y213360D01*
X231860Y214885D01*
X231860Y217936D01*
X230335Y219461D01*
X225759Y219461D01*
X220980Y219461D02*
X217929Y219461D01*
X216404Y217936D01*
X216404Y213360D01*
X220980Y213360D01*
X222505Y214885D01*
X220980Y216411D01*
X216404Y216411D01*
X213150Y219461D02*
X213150Y210309D01*
X213150Y219461D02*
X208574Y219461D01*
X207049Y217936D01*
X207049Y214885D01*
X208574Y213360D01*
X213150Y213360D01*
X202269Y214885D02*
X202269Y220987D01*
X202269Y214885D02*
X200744Y213360D01*
X200744Y219461D02*
X203795Y219461D01*
X196033Y213360D02*
X192982Y213360D01*
X196033Y213360D02*
X197558Y214885D01*
X197558Y217936D01*
X196033Y219461D01*
X192982Y219461D01*
X191457Y217936D01*
X191457Y216411D01*
X197558Y216411D01*
X188203Y213360D02*
X188203Y219461D01*
X188203Y216411D02*
X185152Y219461D01*
X183627Y219461D01*
X379984Y207272D02*
X379984Y198120D01*
X373883Y198120D01*
X370629Y198120D02*
X370629Y207272D01*
X367578Y204221D01*
X364528Y207272D01*
X364528Y198120D01*
X361274Y198120D02*
X355172Y198120D01*
X355172Y204221D02*
X361274Y198120D01*
X355172Y204221D02*
X355172Y205747D01*
X356698Y207272D01*
X359748Y207272D01*
X361274Y205747D01*
X351918Y207272D02*
X345817Y207272D01*
X351918Y207272D02*
X351918Y202696D01*
X348868Y204221D01*
X347343Y204221D01*
X345817Y202696D01*
X345817Y199645D01*
X347343Y198120D01*
X350393Y198120D01*
X351918Y199645D01*
X342563Y199645D02*
X341038Y198120D01*
X337987Y198120D01*
X336462Y199645D01*
X336462Y205747D01*
X337987Y207272D01*
X341038Y207272D01*
X342563Y205747D01*
X342563Y204221D01*
X341038Y202696D01*
X336462Y202696D01*
X330157Y205747D02*
X327107Y207272D01*
X330157Y205747D02*
X333208Y202696D01*
X333208Y199645D01*
X331683Y198120D01*
X328632Y198120D01*
X327107Y199645D01*
X327107Y201171D01*
X328632Y202696D01*
X333208Y202696D01*
X323853Y202696D02*
X317752Y202696D01*
X314498Y205747D02*
X312972Y207272D01*
X309922Y207272D01*
X308397Y205747D01*
X308397Y204221D01*
X309922Y202696D01*
X311447Y202696D01*
X309922Y202696D02*
X308397Y201171D01*
X308397Y199645D01*
X309922Y198120D01*
X312972Y198120D01*
X314498Y199645D01*
X305143Y199645D02*
X305143Y198120D01*
X305143Y199645D02*
X303617Y199645D01*
X303617Y198120D01*
X305143Y198120D01*
X300465Y205747D02*
X298940Y207272D01*
X295889Y207272D01*
X294364Y205747D01*
X294364Y204221D01*
X295889Y202696D01*
X297414Y202696D01*
X295889Y202696D02*
X294364Y201171D01*
X294364Y199645D01*
X295889Y198120D01*
X298940Y198120D01*
X300465Y199645D01*
X291110Y201171D02*
X291110Y207272D01*
X291110Y201171D02*
X288059Y198120D01*
X285009Y201171D01*
X285009Y207272D01*
D11*
X128704Y343334D03*
D12*
X123404Y343334D03*
X119204Y343334D03*
D13*
X111304Y343334D03*
X103704Y343334D03*
D12*
X99604Y343334D03*
X95404Y343334D03*
D14*
X87604Y343334D03*
D15*
X128704Y343134D03*
D16*
X123304Y343134D03*
X119104Y343134D03*
X111304Y343134D03*
D12*
X103604Y343134D03*
D16*
X99704Y343134D03*
X95304Y343134D03*
D13*
X87504Y343134D03*
D17*
X128804Y342934D03*
D16*
X123304Y342934D03*
X119104Y342934D03*
D18*
X111404Y342934D03*
D16*
X103704Y342934D03*
X99704Y342934D03*
X95304Y342934D03*
D19*
X87504Y342934D03*
X128704Y342734D03*
D16*
X123304Y342734D03*
X119104Y342734D03*
D18*
X111404Y342734D03*
D12*
X103804Y342734D03*
D16*
X99704Y342734D03*
X95304Y342734D03*
D20*
X87604Y342734D03*
D21*
X128704Y342534D03*
D16*
X123304Y342534D03*
X118904Y342534D03*
D22*
X111304Y342534D03*
D12*
X103804Y342534D03*
D16*
X99704Y342534D03*
X95304Y342534D03*
D23*
X87504Y342534D03*
D24*
X128804Y342334D03*
D16*
X123304Y342334D03*
X118904Y342334D03*
D22*
X111304Y342334D03*
D16*
X103904Y342334D03*
X99704Y342334D03*
X95304Y342334D03*
D25*
X87604Y342334D03*
D26*
X128804Y342134D03*
D18*
X123404Y342134D03*
D12*
X118804Y342134D03*
D17*
X111404Y342134D03*
D12*
X104004Y342134D03*
D16*
X99704Y342134D03*
X95304Y342134D03*
D27*
X87604Y342134D03*
D28*
X126904Y341934D03*
D16*
X118704Y341934D03*
D17*
X111404Y341934D03*
D12*
X104004Y341934D03*
D16*
X99704Y341934D03*
X95304Y341934D03*
D29*
X87504Y341934D03*
D30*
X127004Y341734D03*
D16*
X118704Y341734D03*
D31*
X111304Y341734D03*
D12*
X104004Y341734D03*
D16*
X99704Y341734D03*
X95304Y341734D03*
D32*
X87504Y341734D03*
D33*
X127104Y341534D03*
D12*
X118604Y341534D03*
D34*
X111404Y341534D03*
D12*
X104204Y341534D03*
D16*
X99704Y341534D03*
X95304Y341534D03*
D35*
X87604Y341534D03*
D33*
X127104Y341334D03*
D12*
X118604Y341334D03*
D34*
X111404Y341334D03*
D12*
X104204Y341334D03*
D16*
X99704Y341334D03*
X95304Y341334D03*
D36*
X87604Y341334D03*
D37*
X127204Y341134D03*
D16*
X118504Y341134D03*
D19*
X111304Y341134D03*
D13*
X104304Y341134D03*
D16*
X99704Y341134D03*
X95304Y341134D03*
D38*
X87504Y341134D03*
D39*
X127304Y340934D03*
D12*
X118404Y340934D03*
D19*
X111304Y340934D03*
D12*
X104404Y340934D03*
D16*
X99704Y340934D03*
X95304Y340934D03*
D40*
X87504Y340934D03*
D39*
X127304Y340734D03*
D12*
X118404Y340734D03*
D41*
X111404Y340734D03*
D12*
X104404Y340734D03*
D16*
X99704Y340734D03*
X95304Y340734D03*
D40*
X87704Y340734D03*
D39*
X127304Y340534D03*
D16*
X118304Y340534D03*
D42*
X111304Y340534D03*
D12*
X104404Y340534D03*
D16*
X99704Y340534D03*
X95304Y340534D03*
D43*
X87804Y340534D03*
D19*
X130904Y340334D03*
D20*
X124204Y340334D03*
D12*
X118204Y340334D03*
D42*
X111304Y340334D03*
D13*
X104504Y340334D03*
D16*
X99704Y340334D03*
X95304Y340334D03*
D19*
X90304Y340334D03*
D13*
X85104Y340334D03*
D34*
X131204Y340134D03*
D41*
X124004Y340134D03*
D12*
X118204Y340134D03*
D42*
X111304Y340134D03*
D12*
X104604Y340134D03*
D16*
X99704Y340134D03*
X95304Y340134D03*
D31*
X90504Y340134D03*
D44*
X85004Y340134D03*
D17*
X131404Y339934D03*
D34*
X123804Y339934D03*
D16*
X118104Y339934D03*
D20*
X111404Y339934D03*
D13*
X104704Y339934D03*
D16*
X99704Y339934D03*
X95304Y339934D03*
D17*
X90804Y339934D03*
D45*
X85004Y339934D03*
D22*
X131504Y339734D03*
D31*
X123704Y339734D03*
D12*
X118004Y339734D03*
D20*
X111404Y339734D03*
D13*
X104704Y339734D03*
D16*
X99704Y339734D03*
X95304Y339734D03*
D22*
X90904Y339734D03*
D11*
X85104Y339734D03*
D22*
X131504Y339534D03*
D17*
X123604Y339534D03*
D12*
X118004Y339534D03*
D46*
X111404Y339534D03*
D12*
X104804Y339534D03*
D16*
X99704Y339534D03*
X95304Y339534D03*
D18*
X91004Y339534D03*
D47*
X85204Y339534D03*
D18*
X131604Y339334D03*
D22*
X123504Y339334D03*
D13*
X117904Y339334D03*
D46*
X111404Y339334D03*
D13*
X104904Y339334D03*
D16*
X99704Y339334D03*
X95304Y339334D03*
X91104Y339334D03*
D18*
X131804Y339134D03*
D22*
X123504Y339134D03*
D12*
X117804Y339134D03*
D48*
X111304Y339134D03*
D13*
X104904Y339134D03*
D16*
X99704Y339134D03*
X95304Y339134D03*
D18*
X91204Y339134D03*
X131804Y338934D03*
D22*
X123504Y338934D03*
D12*
X117804Y338934D03*
D48*
X111304Y338934D03*
D13*
X105104Y338934D03*
D16*
X99704Y338934D03*
X95304Y338934D03*
D18*
X91204Y338934D03*
X131804Y338734D03*
X123404Y338734D03*
D13*
X117704Y338734D03*
D15*
X112904Y338734D03*
D49*
X109804Y338734D03*
D13*
X105104Y338734D03*
D16*
X99704Y338734D03*
X95304Y338734D03*
X91304Y338734D03*
X131904Y338534D03*
D18*
X123404Y338534D03*
D12*
X117604Y338534D03*
D15*
X113104Y338534D03*
D49*
X109804Y338534D03*
D13*
X105104Y338534D03*
D16*
X99704Y338534D03*
X95304Y338534D03*
X91304Y338534D03*
X131904Y338334D03*
D18*
X123404Y338334D03*
D12*
X117604Y338334D03*
D15*
X113104Y338334D03*
D49*
X109604Y338334D03*
X105204Y338334D03*
D16*
X99704Y338334D03*
X95304Y338334D03*
X91304Y338334D03*
X131904Y338134D03*
X123304Y338134D03*
D13*
X117504Y338134D03*
D49*
X113204Y338134D03*
X109604Y338134D03*
D13*
X105304Y338134D03*
D16*
X99704Y338134D03*
X95304Y338134D03*
X91304Y338134D03*
X131904Y337934D03*
X123304Y337934D03*
D12*
X117404Y337934D03*
D49*
X113204Y337934D03*
X109604Y337934D03*
D13*
X105304Y337934D03*
D16*
X99704Y337934D03*
X95304Y337934D03*
X91304Y337934D03*
X131904Y337734D03*
X123304Y337734D03*
D13*
X117304Y337734D03*
D15*
X113304Y337734D03*
X109504Y337734D03*
D49*
X105404Y337734D03*
D16*
X99704Y337734D03*
X95304Y337734D03*
X91304Y337734D03*
X131904Y337534D03*
X123304Y337534D03*
D13*
X117304Y337534D03*
D15*
X113304Y337534D03*
D49*
X109404Y337534D03*
D13*
X105504Y337534D03*
D16*
X99704Y337534D03*
X95304Y337534D03*
X91304Y337534D03*
X131904Y337334D03*
X123304Y337334D03*
D13*
X117304Y337334D03*
D15*
X113504Y337334D03*
D49*
X109404Y337334D03*
X105604Y337334D03*
D16*
X99704Y337334D03*
X95304Y337334D03*
X91304Y337334D03*
X131904Y337134D03*
D18*
X123404Y337134D03*
D12*
X117204Y337134D03*
D15*
X113504Y337134D03*
D49*
X109204Y337134D03*
X105604Y337134D03*
D16*
X99704Y337134D03*
X95304Y337134D03*
X91304Y337134D03*
X131904Y336934D03*
D18*
X123404Y336934D03*
D13*
X117104Y336934D03*
D15*
X113504Y336934D03*
D49*
X109204Y336934D03*
X105604Y336934D03*
D16*
X99704Y336934D03*
X95304Y336934D03*
X91304Y336934D03*
D18*
X131804Y336734D03*
X123404Y336734D03*
D13*
X117104Y336734D03*
D15*
X113504Y336734D03*
D49*
X109204Y336734D03*
D13*
X105704Y336734D03*
D16*
X99704Y336734D03*
X95304Y336734D03*
D18*
X91204Y336734D03*
X131804Y336534D03*
D22*
X123504Y336534D03*
D13*
X116904Y336534D03*
D15*
X113704Y336534D03*
D49*
X109204Y336534D03*
X105804Y336534D03*
D16*
X99704Y336534D03*
X95304Y336534D03*
D18*
X91204Y336534D03*
X131804Y336334D03*
D22*
X123504Y336334D03*
D24*
X115404Y336334D03*
X107404Y336334D03*
D16*
X99704Y336334D03*
X95304Y336334D03*
D18*
X91004Y336334D03*
D50*
X85104Y336334D03*
D18*
X131604Y336134D03*
D22*
X123504Y336134D03*
D24*
X115404Y336134D03*
D48*
X107504Y336134D03*
D16*
X99704Y336134D03*
X95304Y336134D03*
D18*
X91004Y336134D03*
D51*
X85004Y336134D03*
D22*
X131504Y335934D03*
D17*
X123604Y335934D03*
D46*
X115404Y335934D03*
X107404Y335934D03*
D16*
X99704Y335934D03*
X95304Y335934D03*
D22*
X90904Y335934D03*
D52*
X84904Y335934D03*
D22*
X131504Y335734D03*
D31*
X123704Y335734D03*
D46*
X115404Y335734D03*
X107404Y335734D03*
D16*
X99704Y335734D03*
X95304Y335734D03*
D17*
X90804Y335734D03*
D53*
X84804Y335734D03*
D17*
X131404Y335534D03*
D34*
X123804Y335534D03*
D46*
X115404Y335534D03*
D21*
X107504Y335534D03*
D16*
X99704Y335534D03*
X95304Y335534D03*
D31*
X90504Y335534D03*
D15*
X84904Y335534D03*
D31*
X131104Y335334D03*
D19*
X123904Y335334D03*
D20*
X115404Y335334D03*
D21*
X107504Y335334D03*
D16*
X99704Y335334D03*
X95304Y335334D03*
D40*
X87904Y335334D03*
D34*
X131004Y335134D03*
D42*
X124104Y335134D03*
D20*
X115404Y335134D03*
X107404Y335134D03*
D16*
X99704Y335134D03*
X95304Y335134D03*
D40*
X87704Y335134D03*
D42*
X130504Y334934D03*
D48*
X124504Y334934D03*
D42*
X115304Y334934D03*
X107504Y334934D03*
D16*
X99704Y334934D03*
X95304Y334934D03*
D54*
X87604Y334934D03*
D39*
X127304Y334734D03*
D41*
X115404Y334734D03*
D42*
X107504Y334734D03*
D16*
X99704Y334734D03*
X95304Y334734D03*
D43*
X87604Y334734D03*
D39*
X127304Y334534D03*
D41*
X115404Y334534D03*
D19*
X107504Y334534D03*
D16*
X99704Y334534D03*
X95304Y334534D03*
D38*
X87504Y334534D03*
D37*
X127204Y334334D03*
D19*
X115304Y334334D03*
X107504Y334334D03*
D16*
X99704Y334334D03*
X95304Y334334D03*
D55*
X87504Y334334D03*
D33*
X127104Y334134D03*
D19*
X115304Y334134D03*
X107504Y334134D03*
D16*
X99704Y334134D03*
X95304Y334134D03*
D32*
X87504Y334134D03*
D30*
X127004Y333934D03*
D34*
X115404Y333934D03*
D31*
X107504Y333934D03*
D16*
X99704Y333934D03*
X95304Y333934D03*
D29*
X87504Y333934D03*
D28*
X126904Y333734D03*
D31*
X115304Y333734D03*
X107504Y333734D03*
D16*
X99704Y333734D03*
X95304Y333734D03*
D56*
X87504Y333734D03*
D57*
X126804Y333534D03*
D17*
X115404Y333534D03*
D31*
X107504Y333534D03*
D16*
X99704Y333534D03*
X95304Y333534D03*
D58*
X87504Y333534D03*
D23*
X128704Y333334D03*
D18*
X123404Y333334D03*
D22*
X115304Y333334D03*
D17*
X107604Y333334D03*
D16*
X99704Y333334D03*
X95304Y333334D03*
D23*
X87504Y333334D03*
D48*
X128704Y333134D03*
D16*
X123304Y333134D03*
D22*
X115304Y333134D03*
X107504Y333134D03*
D16*
X99704Y333134D03*
X95304Y333134D03*
D48*
X87504Y333134D03*
D21*
X128704Y332934D03*
D16*
X123304Y332934D03*
D22*
X115304Y332934D03*
D18*
X107604Y332934D03*
D16*
X99704Y332934D03*
X95304Y332934D03*
D41*
X87604Y332934D03*
D19*
X128704Y332734D03*
D16*
X123304Y332734D03*
X115304Y332734D03*
D18*
X107604Y332734D03*
D16*
X99704Y332734D03*
X95304Y332734D03*
X87504Y332734D03*
D22*
X128704Y332534D03*
D16*
X123304Y332534D03*
X115304Y332534D03*
X107504Y332534D03*
D12*
X99604Y332534D03*
D16*
X95304Y332534D03*
D53*
X87604Y332534D03*
D15*
X128704Y332334D03*
D16*
X123304Y332334D03*
D51*
X128604Y332134D03*
D16*
X123304Y332134D03*
X123304Y331934D03*
X123304Y331734D03*
X123304Y331534D03*
X123304Y331334D03*
X123304Y331134D03*
X123304Y330934D03*
X123304Y330734D03*
X123304Y330534D03*
X123304Y330334D03*
X123304Y330134D03*
X123304Y329934D03*
D17*
X107604Y329934D03*
D16*
X123304Y329734D03*
D59*
X107604Y329734D03*
D16*
X123304Y329534D03*
D54*
X107604Y329534D03*
D16*
X123304Y329334D03*
D60*
X107604Y329334D03*
D16*
X123304Y329134D03*
D61*
X107604Y329134D03*
D16*
X123304Y328934D03*
D62*
X107604Y328934D03*
D16*
X123304Y328734D03*
D63*
X107504Y328734D03*
D12*
X123404Y328534D03*
D64*
X107604Y328534D03*
D65*
X107604Y328334D03*
D66*
X107604Y328134D03*
D67*
X107604Y327934D03*
D68*
X107604Y327734D03*
D69*
X107504Y327534D03*
D70*
X107604Y327334D03*
D71*
X107604Y327134D03*
D72*
X107504Y326934D03*
D73*
X107504Y326734D03*
D74*
X107604Y326534D03*
D75*
X107504Y326334D03*
D76*
X107504Y326134D03*
D77*
X107504Y325934D03*
D78*
X107504Y325734D03*
D79*
X107504Y325534D03*
D80*
X107604Y325334D03*
D81*
X107504Y325134D03*
D82*
X107504Y324934D03*
D83*
X107604Y324734D03*
D84*
X107504Y324534D03*
D85*
X107504Y324334D03*
D86*
X107504Y324134D03*
D87*
X107604Y323934D03*
D88*
X107604Y323734D03*
D89*
X107604Y323534D03*
D90*
X107604Y323334D03*
D91*
X107604Y323134D03*
D92*
X107604Y322934D03*
D93*
X107504Y322734D03*
D94*
X107604Y322534D03*
D95*
X107604Y322334D03*
D96*
X107604Y322134D03*
D97*
X107604Y321934D03*
D98*
X107604Y321734D03*
D99*
X107604Y321534D03*
D100*
X107604Y321334D03*
D101*
X107504Y321134D03*
D102*
X107504Y320934D03*
D103*
X107604Y320734D03*
D104*
X107604Y320534D03*
D105*
X107604Y320334D03*
D106*
X107504Y320134D03*
D107*
X107604Y319934D03*
D108*
X107604Y319734D03*
D109*
X107604Y319534D03*
D110*
X107504Y319334D03*
D111*
X107604Y319134D03*
D112*
X107504Y318934D03*
D113*
X107504Y318734D03*
D114*
X107604Y318534D03*
D115*
X107504Y318334D03*
D116*
X107504Y318134D03*
D117*
X107604Y317934D03*
D118*
X107504Y317734D03*
D119*
X107604Y317534D03*
D120*
X107504Y317334D03*
D121*
X107604Y317134D03*
D122*
X107604Y316934D03*
X107604Y316734D03*
D123*
X107504Y316534D03*
D124*
X107504Y316334D03*
D125*
X107604Y316134D03*
X107604Y315934D03*
D126*
X107604Y315734D03*
D127*
X107504Y315534D03*
X107504Y315334D03*
D128*
X107604Y315134D03*
D129*
X107504Y314934D03*
D130*
X107604Y314734D03*
D131*
X107504Y314534D03*
X107504Y314334D03*
D132*
X107604Y314134D03*
D133*
X107504Y313934D03*
D134*
X107604Y313734D03*
X107604Y313534D03*
D135*
X107504Y313334D03*
D136*
X107604Y313134D03*
D137*
X107504Y312934D03*
X107504Y312734D03*
D138*
X107604Y312534D03*
X107604Y312334D03*
D48*
X128304Y312134D03*
D23*
X86904Y312134D03*
D48*
X128504Y311934D03*
D24*
X86804Y311934D03*
D46*
X128604Y311734D03*
D24*
X86804Y311734D03*
D46*
X128604Y311534D03*
D24*
X86804Y311534D03*
D46*
X128604Y311334D03*
D23*
X86704Y311334D03*
D48*
X128704Y311134D03*
D23*
X86704Y311134D03*
D48*
X128704Y310934D03*
D23*
X86704Y310934D03*
D48*
X128704Y310734D03*
D26*
X86604Y310734D03*
D48*
X128704Y310534D03*
D26*
X86604Y310534D03*
D24*
X128804Y310334D03*
D26*
X86604Y310334D03*
D24*
X128804Y310134D03*
D26*
X86604Y310134D03*
D24*
X128804Y309934D03*
D26*
X86604Y309934D03*
D24*
X128804Y309734D03*
D26*
X86604Y309734D03*
D24*
X128804Y309534D03*
D139*
X86504Y309534D03*
D23*
X128904Y309334D03*
D139*
X86504Y309334D03*
D23*
X128904Y309134D03*
D139*
X86504Y309134D03*
D23*
X128904Y308934D03*
D139*
X86504Y308934D03*
D23*
X128904Y308734D03*
D139*
X86504Y308734D03*
D23*
X128904Y308534D03*
D25*
X86404Y308534D03*
D23*
X128904Y308334D03*
D25*
X86404Y308334D03*
D23*
X128904Y308134D03*
D25*
X86404Y308134D03*
D23*
X128904Y307934D03*
D25*
X86404Y307934D03*
D23*
X128904Y307734D03*
D25*
X86404Y307734D03*
D23*
X128904Y307534D03*
D25*
X86404Y307534D03*
D26*
X129004Y307334D03*
D34*
X118604Y307334D03*
D19*
X111504Y307334D03*
X104304Y307334D03*
D34*
X97204Y307334D03*
D25*
X86404Y307334D03*
D26*
X129004Y307134D03*
D19*
X118704Y307134D03*
X111504Y307134D03*
D41*
X104204Y307134D03*
D19*
X97104Y307134D03*
D25*
X86404Y307134D03*
D26*
X129004Y306934D03*
D19*
X118704Y306934D03*
X111504Y306934D03*
D41*
X104204Y306934D03*
D19*
X97104Y306934D03*
D25*
X86404Y306934D03*
D26*
X129004Y306734D03*
D19*
X118704Y306734D03*
X111504Y306734D03*
D41*
X104204Y306734D03*
D19*
X97104Y306734D03*
D25*
X86404Y306734D03*
D26*
X129004Y306534D03*
D19*
X118704Y306534D03*
X111504Y306534D03*
D41*
X104204Y306534D03*
D19*
X97104Y306534D03*
D25*
X86404Y306534D03*
D26*
X129004Y306334D03*
D19*
X118704Y306334D03*
X111504Y306334D03*
D41*
X104204Y306334D03*
D19*
X97104Y306334D03*
D25*
X86404Y306334D03*
D26*
X129004Y306134D03*
D19*
X118704Y306134D03*
X111504Y306134D03*
D41*
X104204Y306134D03*
D19*
X97104Y306134D03*
D25*
X86404Y306134D03*
D26*
X129004Y305934D03*
D19*
X118704Y305934D03*
X111504Y305934D03*
D41*
X104204Y305934D03*
D19*
X97104Y305934D03*
D58*
X86304Y305934D03*
D26*
X129004Y305734D03*
D19*
X118704Y305734D03*
X111504Y305734D03*
D41*
X104204Y305734D03*
D19*
X97104Y305734D03*
D58*
X86304Y305734D03*
D26*
X129004Y305534D03*
D19*
X118704Y305534D03*
X111504Y305534D03*
D41*
X104204Y305534D03*
D19*
X97104Y305534D03*
D58*
X86304Y305534D03*
D26*
X129004Y305334D03*
D19*
X118704Y305334D03*
X111504Y305334D03*
D41*
X104204Y305334D03*
D19*
X97104Y305334D03*
D58*
X86304Y305334D03*
D26*
X129004Y305134D03*
D19*
X118704Y305134D03*
X111504Y305134D03*
D41*
X104204Y305134D03*
D19*
X97104Y305134D03*
D58*
X86304Y305134D03*
D26*
X129004Y304934D03*
D19*
X118704Y304934D03*
X111504Y304934D03*
D41*
X104204Y304934D03*
D19*
X97104Y304934D03*
D58*
X86304Y304934D03*
D26*
X129004Y304734D03*
D19*
X118704Y304734D03*
X111504Y304734D03*
D41*
X104204Y304734D03*
D19*
X97104Y304734D03*
D58*
X86304Y304734D03*
D26*
X129004Y304534D03*
D19*
X118704Y304534D03*
X111504Y304534D03*
D41*
X104204Y304534D03*
D19*
X97104Y304534D03*
D58*
X86304Y304534D03*
D26*
X129004Y304334D03*
D19*
X118704Y304334D03*
X111504Y304334D03*
D41*
X104204Y304334D03*
D19*
X97104Y304334D03*
D25*
X86404Y304334D03*
D26*
X129004Y304134D03*
D19*
X118704Y304134D03*
X111504Y304134D03*
D41*
X104204Y304134D03*
D19*
X97104Y304134D03*
D25*
X86404Y304134D03*
D26*
X129004Y303934D03*
D19*
X118704Y303934D03*
X111504Y303934D03*
D41*
X104204Y303934D03*
D19*
X97104Y303934D03*
D25*
X86404Y303934D03*
D26*
X129004Y303734D03*
D19*
X118704Y303734D03*
X111504Y303734D03*
D41*
X104204Y303734D03*
D19*
X97104Y303734D03*
D25*
X86404Y303734D03*
D26*
X129004Y303534D03*
D19*
X118704Y303534D03*
X111504Y303534D03*
D41*
X104204Y303534D03*
D19*
X97104Y303534D03*
D25*
X86404Y303534D03*
D26*
X129004Y303334D03*
D19*
X118704Y303334D03*
X111504Y303334D03*
D41*
X104204Y303334D03*
D19*
X97104Y303334D03*
D25*
X86404Y303334D03*
D26*
X129004Y303134D03*
D19*
X118704Y303134D03*
X111504Y303134D03*
D41*
X104204Y303134D03*
D19*
X97104Y303134D03*
D25*
X86404Y303134D03*
D23*
X128904Y302934D03*
D19*
X118704Y302934D03*
X111504Y302934D03*
D41*
X104204Y302934D03*
D19*
X97104Y302934D03*
D25*
X86404Y302934D03*
D23*
X128904Y302734D03*
D34*
X118604Y302734D03*
D19*
X111504Y302734D03*
X104304Y302734D03*
D34*
X97204Y302734D03*
D25*
X86404Y302734D03*
D23*
X128904Y302534D03*
D25*
X86404Y302534D03*
D23*
X128904Y302334D03*
D25*
X86404Y302334D03*
D23*
X128904Y302134D03*
D25*
X86404Y302134D03*
D23*
X128904Y301934D03*
D25*
X86404Y301934D03*
D23*
X128904Y301734D03*
D25*
X86404Y301734D03*
D23*
X128904Y301534D03*
D139*
X86504Y301534D03*
D23*
X128904Y301334D03*
D139*
X86504Y301334D03*
D23*
X128904Y301134D03*
D139*
X86504Y301134D03*
D24*
X128804Y300934D03*
D139*
X86504Y300934D03*
D24*
X128804Y300734D03*
D26*
X86604Y300734D03*
D24*
X128804Y300534D03*
D26*
X86604Y300534D03*
D24*
X128804Y300334D03*
D26*
X86604Y300334D03*
D24*
X128804Y300134D03*
D26*
X86604Y300134D03*
D48*
X128704Y299934D03*
D26*
X86604Y299934D03*
D48*
X128704Y299734D03*
D26*
X86604Y299734D03*
D48*
X128704Y299534D03*
D23*
X86704Y299534D03*
D48*
X128704Y299334D03*
D23*
X86704Y299334D03*
D46*
X128604Y299134D03*
D23*
X86704Y299134D03*
D46*
X128604Y298934D03*
D23*
X86704Y298934D03*
D46*
X128604Y298734D03*
D24*
X86804Y298734D03*
D46*
X128604Y298534D03*
D24*
X86804Y298534D03*
D21*
X128504Y298334D03*
D24*
X86804Y298334D03*
D21*
X128504Y298134D03*
D48*
X86904Y298134D03*
D46*
X128404Y297934D03*
D24*
X87004Y297934D03*
D140*
X123704Y297734D03*
D26*
X108004Y297734D03*
D141*
X91804Y297734D03*
D140*
X123704Y297534D03*
D26*
X108004Y297534D03*
D141*
X91804Y297534D03*
D140*
X123704Y297334D03*
D26*
X108004Y297334D03*
D142*
X91904Y297334D03*
D140*
X123704Y297134D03*
D139*
X107904Y297134D03*
D143*
X91804Y297134D03*
D62*
X123604Y296934D03*
D139*
X107904Y296934D03*
D144*
X91904Y296934D03*
D140*
X123504Y296734D03*
D139*
X107904Y296734D03*
D144*
X91904Y296734D03*
D62*
X123404Y296534D03*
D139*
X107904Y296534D03*
D144*
X91904Y296534D03*
D62*
X123404Y296334D03*
D25*
X107804Y296334D03*
D145*
X91804Y296334D03*
D62*
X123404Y296134D03*
D139*
X107704Y296134D03*
D140*
X91904Y296134D03*
D146*
X123304Y295934D03*
D139*
X107704Y295934D03*
D62*
X91804Y295934D03*
D146*
X123304Y295734D03*
D139*
X107704Y295734D03*
D146*
X91904Y295734D03*
X123104Y295534D03*
D25*
X107604Y295534D03*
D146*
X91904Y295534D03*
X123104Y295334D03*
D25*
X107604Y295334D03*
D147*
X91904Y295334D03*
D148*
X123004Y295134D03*
D139*
X107504Y295134D03*
D147*
X91904Y295134D03*
D148*
X123004Y294934D03*
D25*
X107404Y294934D03*
D149*
X91804Y294934D03*
D148*
X123004Y294734D03*
D25*
X107404Y294734D03*
D150*
X91904Y294734D03*
D147*
X122904Y294534D03*
D25*
X107404Y294534D03*
D151*
X91904Y294534D03*
D148*
X122804Y294334D03*
D25*
X107204Y294334D03*
D151*
X91904Y294334D03*
D147*
X122704Y294134D03*
D25*
X107204Y294134D03*
D152*
X91804Y294134D03*
D147*
X122704Y293934D03*
D25*
X107204Y293934D03*
D153*
X91804Y293934D03*
D149*
X122604Y293734D03*
D58*
X107104Y293734D03*
D153*
X91804Y293734D03*
D147*
X122504Y293534D03*
D25*
X107004Y293534D03*
D154*
X91804Y293534D03*
D149*
X122404Y293334D03*
D58*
X106904Y293334D03*
D155*
X91904Y293334D03*
D150*
X122304Y293134D03*
D58*
X106904Y293134D03*
D60*
X91804Y293134D03*
D150*
X122304Y292934D03*
D58*
X106704Y292934D03*
D37*
X91804Y292934D03*
D150*
X122104Y292734D03*
D58*
X106704Y292734D03*
D37*
X91804Y292734D03*
D150*
X122104Y292534D03*
D27*
X106604Y292534D03*
D30*
X91804Y292534D03*
D61*
X122004Y292334D03*
D58*
X106504Y292334D03*
D28*
X91704Y292334D03*
D151*
X121904Y292134D03*
D27*
X106404Y292134D03*
D156*
X91704Y292134D03*
D61*
X121804Y291934D03*
D27*
X106404Y291934D03*
D157*
X91804Y291934D03*
D151*
X121704Y291734D03*
D27*
X106204Y291734D03*
D158*
X91704Y291734D03*
D61*
X121604Y291534D03*
D27*
X106204Y291534D03*
D40*
X91704Y291534D03*
D151*
X121504Y291334D03*
D27*
X106004Y291334D03*
D38*
X91704Y291334D03*
D152*
X121404Y291134D03*
D56*
X105904Y291134D03*
D36*
X91604Y291134D03*
D152*
X121404Y290934D03*
D56*
X105904Y290934D03*
D35*
X91604Y290934D03*
D152*
X121204Y290734D03*
D56*
X105704Y290734D03*
D59*
X91604Y290734D03*
D159*
X121104Y290534D03*
D56*
X105704Y290534D03*
D29*
X91504Y290534D03*
D159*
X120904Y290334D03*
D56*
X105504Y290334D03*
X91504Y290334D03*
D159*
X120904Y290134D03*
D160*
X105404Y290134D03*
D25*
X91404Y290134D03*
D153*
X120804Y289934D03*
D160*
X105204Y289934D03*
D26*
X91404Y289934D03*
D153*
X120604Y289734D03*
D160*
X105204Y289734D03*
D23*
X91304Y289734D03*
D153*
X120604Y289534D03*
D160*
X105004Y289534D03*
D48*
X91304Y289534D03*
D154*
X120404Y289334D03*
D29*
X104904Y289334D03*
D20*
X91204Y289334D03*
D161*
X120304Y289134D03*
D29*
X104704Y289134D03*
D19*
X91104Y289134D03*
D154*
X120204Y288934D03*
D29*
X104704Y288934D03*
D31*
X91104Y288934D03*
D154*
X120004Y288734D03*
D29*
X104504Y288734D03*
D18*
X91004Y288734D03*
D155*
X119904Y288534D03*
D59*
X104404Y288534D03*
D13*
X90904Y288534D03*
D155*
X119704Y288334D03*
D59*
X104204Y288334D03*
D15*
X90704Y288334D03*
D60*
X119604Y288134D03*
D32*
X104104Y288134D03*
D53*
X90604Y288134D03*
D60*
X119404Y287934D03*
D32*
X103904Y287934D03*
D14*
X90404Y287934D03*
D39*
X119304Y287734D03*
D32*
X103704Y287734D03*
D162*
X90404Y287734D03*
D39*
X119104Y287534D03*
D35*
X103604Y287534D03*
D37*
X119004Y287334D03*
D35*
X103404Y287334D03*
D37*
X118804Y287134D03*
D55*
X103304Y287134D03*
D33*
X118704Y286934D03*
D55*
X103104Y286934D03*
D33*
X118504Y286734D03*
D55*
X102904Y286734D03*
D30*
X118404Y286534D03*
D55*
X102704Y286534D03*
D30*
X118204Y286334D03*
D38*
X102504Y286334D03*
D28*
X118104Y286134D03*
D38*
X102304Y286134D03*
D28*
X117904Y285934D03*
D38*
X102104Y285934D03*
D156*
X117704Y285734D03*
D40*
X101904Y285734D03*
D156*
X117504Y285534D03*
D40*
X101704Y285534D03*
D156*
X117304Y285334D03*
D40*
X101504Y285334D03*
D158*
X117104Y285134D03*
D54*
X101204Y285134D03*
D158*
X116904Y284934D03*
D157*
X101004Y284934D03*
D40*
X116704Y284734D03*
D157*
X100804Y284734D03*
D40*
X116504Y284534D03*
D156*
X100504Y284534D03*
D43*
X116204Y284334D03*
D57*
X100204Y284334D03*
D43*
X116004Y284134D03*
D28*
X99904Y284134D03*
D36*
X115804Y283934D03*
D30*
X99604Y283934D03*
D55*
X115504Y283734D03*
D33*
X99304Y283734D03*
D35*
X115404Y283534D03*
D39*
X98904Y283534D03*
D32*
X115104Y283334D03*
D60*
X98604Y283334D03*
D59*
X114804Y283134D03*
D161*
X98104Y283134D03*
D29*
X114504Y282934D03*
D159*
X97704Y282934D03*
D56*
X114304Y282734D03*
D61*
X97204Y282734D03*
D27*
X114004Y282534D03*
D148*
X96604Y282534D03*
D58*
X113704Y282334D03*
D143*
X95804Y282334D03*
D47*
X86804Y282334D03*
D139*
X113304Y282134D03*
D163*
X94104Y282134D03*
D26*
X113004Y281934D03*
D65*
X94004Y281934D03*
D46*
X112604Y281734D03*
D164*
X93904Y281734D03*
D20*
X112204Y281534D03*
D165*
X93804Y281534D03*
D41*
X111804Y281334D03*
D166*
X93704Y281334D03*
D31*
X111304Y281134D03*
D167*
X93604Y281134D03*
D22*
X110904Y280934D03*
D64*
X93404Y280934D03*
D49*
X110204Y280734D03*
D168*
X93304Y280734D03*
D11*
X109504Y280534D03*
D169*
X93204Y280534D03*
D170*
X93004Y280334D03*
D63*
X92904Y280134D03*
D142*
X92704Y279934D03*
D143*
X92604Y279734D03*
D144*
X92504Y279534D03*
D140*
X92304Y279334D03*
D146*
X92104Y279134D03*
D148*
X92004Y278934D03*
D149*
X91804Y278734D03*
D61*
X91604Y278534D03*
D152*
X91404Y278334D03*
D153*
X91204Y278134D03*
D154*
X91004Y277934D03*
D60*
X90804Y277734D03*
D33*
X90504Y277534D03*
D28*
X90304Y277334D03*
D157*
X90004Y277134D03*
D54*
X89804Y276934D03*
D36*
X89404Y276734D03*
D32*
X89104Y276534D03*
D160*
X88804Y276334D03*
D139*
X88304Y276134D03*
D48*
X87904Y275934D03*
D31*
X87104Y275734D03*
D171*
X355854Y29464D02*
X360934Y18034D01*
X363474Y19558D01*
X369570Y15240D01*
X374142Y20066D01*
X370078Y26162D01*
X372618Y33020D02*
X380238Y34290D01*
X380238Y40894D01*
X372618Y42418D01*
X369824Y48768D02*
X374396Y55372D01*
X369570Y59944D01*
X362966Y55372D01*
X356616Y57912D02*
X355346Y66040D01*
X348488Y66040D01*
X347218Y57912D01*
X340868Y55372D02*
X334264Y59944D01*
X329438Y55372D01*
X334010Y48768D01*
X331216Y42418D02*
X323596Y40894D01*
X323596Y34290D01*
X331216Y33020D01*
X333756Y26162D02*
X329438Y20066D01*
X334264Y15240D01*
X340360Y19558D01*
X342900Y18034D01*
X347726Y29464D01*
X347726Y29718D02*
X347522Y29820D01*
X347321Y29927D01*
X347123Y30039D01*
X346927Y30155D01*
X346734Y30277D01*
X346544Y30402D01*
X346358Y30533D01*
X346174Y30668D01*
X345994Y30808D01*
X345818Y30952D01*
X345645Y31100D01*
X345475Y31252D01*
X345310Y31409D01*
X345148Y31569D01*
X344990Y31733D01*
X344837Y31902D01*
X344687Y32074D01*
X344542Y32249D01*
X344401Y32428D01*
X344264Y32610D01*
X344132Y32796D01*
X344005Y32985D01*
X343882Y33177D01*
X343764Y33372D01*
X343651Y33569D01*
X343543Y33770D01*
X343439Y33973D01*
X343341Y34178D01*
X343247Y34386D01*
X343159Y34596D01*
X343076Y34808D01*
X342998Y35022D01*
X342926Y35238D01*
X342858Y35456D01*
X342796Y35675D01*
X342740Y35895D01*
X342688Y36117D01*
X342643Y36341D01*
X342602Y36565D01*
X342568Y36790D01*
X342538Y37016D01*
X342515Y37242D01*
X342496Y37469D01*
X342484Y37697D01*
X342477Y37925D01*
X342475Y38152D01*
X342479Y38380D01*
X342489Y38608D01*
X342504Y38835D01*
X342525Y39062D01*
X342551Y39288D01*
X342583Y39514D01*
X342620Y39738D01*
X342663Y39962D01*
X342711Y40185D01*
X342765Y40406D01*
X342824Y40626D01*
X342889Y40845D01*
X342958Y41062D01*
X343033Y41277D01*
X343114Y41490D01*
X343199Y41701D01*
X343290Y41910D01*
X343386Y42117D01*
X343486Y42321D01*
X343592Y42523D01*
X343703Y42722D01*
X343818Y42918D01*
X343938Y43112D01*
X344063Y43302D01*
X344193Y43490D01*
X344327Y43674D01*
X344465Y43855D01*
X344608Y44032D01*
X344755Y44206D01*
X344907Y44376D01*
X345062Y44543D01*
X345222Y44705D01*
X345385Y44864D01*
X345553Y45018D01*
X345724Y45169D01*
X345898Y45315D01*
X346077Y45457D01*
X346258Y45595D01*
X346443Y45728D01*
X346631Y45856D01*
X346822Y45980D01*
X347017Y46099D01*
X347214Y46213D01*
X347413Y46323D01*
X347616Y46427D01*
X347821Y46527D01*
X348028Y46621D01*
X348237Y46711D01*
X348449Y46795D01*
X348663Y46874D01*
X348878Y46948D01*
X349095Y47017D01*
X349314Y47080D01*
X349535Y47138D01*
X349756Y47190D01*
X349979Y47237D01*
X350203Y47279D01*
X350428Y47315D01*
X350654Y47345D01*
X350880Y47370D01*
X351107Y47390D01*
X351335Y47404D01*
X351562Y47412D01*
X351790Y47415D01*
X352018Y47412D01*
X352245Y47404D01*
X352473Y47390D01*
X352700Y47370D01*
X352926Y47345D01*
X353152Y47315D01*
X353377Y47279D01*
X353601Y47237D01*
X353824Y47190D01*
X354045Y47138D01*
X354266Y47080D01*
X354485Y47017D01*
X354702Y46948D01*
X354917Y46874D01*
X355131Y46795D01*
X355343Y46711D01*
X355552Y46621D01*
X355759Y46527D01*
X355964Y46427D01*
X356167Y46323D01*
X356366Y46213D01*
X356563Y46099D01*
X356758Y45980D01*
X356949Y45856D01*
X357137Y45728D01*
X357322Y45595D01*
X357503Y45457D01*
X357682Y45315D01*
X357856Y45169D01*
X358027Y45018D01*
X358195Y44864D01*
X358358Y44705D01*
X358518Y44543D01*
X358673Y44376D01*
X358825Y44206D01*
X358972Y44032D01*
X359115Y43855D01*
X359253Y43674D01*
X359387Y43490D01*
X359517Y43302D01*
X359642Y43112D01*
X359762Y42918D01*
X359877Y42722D01*
X359988Y42523D01*
X360094Y42321D01*
X360194Y42117D01*
X360290Y41910D01*
X360381Y41701D01*
X360466Y41490D01*
X360547Y41277D01*
X360622Y41062D01*
X360691Y40845D01*
X360756Y40626D01*
X360815Y40406D01*
X360869Y40185D01*
X360917Y39962D01*
X360960Y39738D01*
X360997Y39514D01*
X361029Y39288D01*
X361055Y39062D01*
X361076Y38835D01*
X361091Y38608D01*
X361101Y38380D01*
X361105Y38152D01*
X361103Y37925D01*
X361096Y37697D01*
X361084Y37469D01*
X361065Y37242D01*
X361042Y37016D01*
X361012Y36790D01*
X360978Y36565D01*
X360937Y36341D01*
X360892Y36117D01*
X360840Y35895D01*
X360784Y35675D01*
X360722Y35456D01*
X360654Y35238D01*
X360582Y35022D01*
X360504Y34808D01*
X360421Y34596D01*
X360333Y34386D01*
X360239Y34178D01*
X360141Y33973D01*
X360037Y33770D01*
X359929Y33569D01*
X359816Y33372D01*
X359698Y33177D01*
X359575Y32985D01*
X359448Y32796D01*
X359316Y32610D01*
X359179Y32428D01*
X359038Y32249D01*
X358893Y32074D01*
X358743Y31902D01*
X358590Y31733D01*
X358432Y31569D01*
X358270Y31409D01*
X358105Y31252D01*
X357935Y31100D01*
X357762Y30952D01*
X357586Y30808D01*
X357406Y30668D01*
X357222Y30533D01*
X357036Y30402D01*
X356846Y30277D01*
X356653Y30155D01*
X356457Y30039D01*
X356259Y29927D01*
X356058Y29820D01*
X355854Y29718D01*
X369993Y26243D02*
X370255Y26691D01*
X370505Y27145D01*
X370745Y27605D01*
X370973Y28071D01*
X371189Y28542D01*
X371394Y29018D01*
X371587Y29499D01*
X371768Y29985D01*
X371938Y30475D01*
X372095Y30969D01*
X372240Y31467D01*
X372373Y31968D01*
X372493Y32472D01*
X372601Y32980D01*
X372459Y42419D02*
X372337Y42888D01*
X372204Y43354D01*
X372060Y43817D01*
X371906Y44276D01*
X371741Y44732D01*
X371566Y45184D01*
X371380Y45632D01*
X371185Y46075D01*
X370979Y46514D01*
X370763Y46948D01*
X370538Y47377D01*
X370302Y47801D01*
X370057Y48219D01*
X369803Y48632D01*
X362879Y55463D02*
X362442Y55719D01*
X361999Y55964D01*
X361550Y56199D01*
X361096Y56422D01*
X360637Y56635D01*
X360173Y56836D01*
X359704Y57027D01*
X359230Y57206D01*
X358753Y57374D01*
X358271Y57530D01*
X357786Y57675D01*
X357298Y57808D01*
X356806Y57929D01*
X347083Y57976D02*
X346608Y57861D01*
X346136Y57736D01*
X345667Y57600D01*
X345201Y57453D01*
X344739Y57296D01*
X344280Y57128D01*
X343825Y56950D01*
X343375Y56761D01*
X342929Y56561D01*
X342488Y56352D01*
X342051Y56133D01*
X341620Y55903D01*
X341194Y55664D01*
X340774Y55415D01*
X334039Y48727D02*
X333770Y48312D01*
X333511Y47889D01*
X333263Y47461D01*
X333025Y47027D01*
X332797Y46587D01*
X332580Y46142D01*
X332374Y45691D01*
X332178Y45236D01*
X331994Y44777D01*
X331821Y44313D01*
X331659Y43845D01*
X331508Y43373D01*
X331369Y42898D01*
X331241Y42419D01*
X331193Y32932D02*
X331287Y32455D01*
X331392Y31981D01*
X331509Y31509D01*
X331637Y31041D01*
X331776Y30575D01*
X331926Y30113D01*
X332087Y29654D01*
X332258Y29200D01*
X332441Y28749D01*
X332634Y28303D01*
X332837Y27862D01*
X333051Y27426D01*
X333275Y26995D01*
X333509Y26569D01*
X333754Y26149D01*
M02*
