G04 EAGLE Gerber RS-274X export*
G75*
%MOMM*%
%FSLAX34Y34*%
%LPD*%
%INBottom Copper*%
%IPPOS*%
%AMOC8*
5,1,8,0,0,1.08239X$1,22.5*%
G01*
%ADD10C,1.208000*%
%ADD11C,1.270000*%
%ADD12C,2.184400*%
%ADD13R,2.325000X2.325000*%
%ADD14C,2.325000*%
%ADD15C,0.685800*%
%ADD16C,0.609600*%
%ADD17C,0.304800*%

G36*
X415393Y5212D02*
X415393Y5212D01*
X415428Y5210D01*
X415550Y5232D01*
X415673Y5248D01*
X415706Y5261D01*
X415741Y5267D01*
X415854Y5319D01*
X415969Y5365D01*
X415998Y5385D01*
X416030Y5400D01*
X416126Y5479D01*
X416226Y5551D01*
X416249Y5579D01*
X416276Y5601D01*
X416350Y5701D01*
X416429Y5796D01*
X416444Y5828D01*
X416465Y5857D01*
X416512Y5972D01*
X416565Y6084D01*
X416571Y6119D01*
X416585Y6152D01*
X416601Y6275D01*
X416625Y6396D01*
X416622Y6432D01*
X416627Y6467D01*
X416612Y6590D01*
X416605Y6714D01*
X416594Y6748D01*
X416590Y6783D01*
X416545Y6898D01*
X416507Y7016D01*
X416488Y7046D01*
X416475Y7079D01*
X416403Y7180D01*
X416337Y7285D01*
X416311Y7309D01*
X416290Y7338D01*
X416174Y7449D01*
X412849Y10239D01*
X407511Y19485D01*
X405657Y30000D01*
X407511Y40515D01*
X412849Y49761D01*
X421028Y56624D01*
X431062Y60276D01*
X441738Y60276D01*
X451772Y56624D01*
X459107Y50469D01*
X459178Y50423D01*
X459242Y50370D01*
X459311Y50338D01*
X459374Y50297D01*
X459454Y50270D01*
X459530Y50234D01*
X459604Y50220D01*
X459676Y50196D01*
X459760Y50190D01*
X459843Y50175D01*
X459918Y50179D01*
X459993Y50174D01*
X460076Y50189D01*
X460160Y50194D01*
X460232Y50218D01*
X460306Y50231D01*
X460383Y50267D01*
X460462Y50292D01*
X460526Y50333D01*
X460595Y50365D01*
X460660Y50418D01*
X460731Y50463D01*
X460783Y50518D01*
X460842Y50565D01*
X460891Y50633D01*
X460949Y50694D01*
X460986Y50760D01*
X461031Y50821D01*
X461062Y50899D01*
X461103Y50973D01*
X461121Y51046D01*
X461150Y51116D01*
X461161Y51199D01*
X461182Y51281D01*
X461191Y51423D01*
X461192Y51431D01*
X461192Y51435D01*
X461192Y51441D01*
X461192Y313359D01*
X461182Y313442D01*
X461181Y313526D01*
X461162Y313599D01*
X461152Y313674D01*
X461121Y313752D01*
X461100Y313834D01*
X461063Y313900D01*
X461035Y313970D01*
X460986Y314038D01*
X460945Y314111D01*
X460893Y314166D01*
X460849Y314227D01*
X460784Y314281D01*
X460726Y314342D01*
X460662Y314382D01*
X460604Y314430D01*
X460528Y314466D01*
X460456Y314510D01*
X460384Y314533D01*
X460316Y314566D01*
X460234Y314581D01*
X460153Y314607D01*
X460078Y314611D01*
X460004Y314625D01*
X459920Y314620D01*
X459836Y314625D01*
X459762Y314610D01*
X459686Y314606D01*
X459606Y314580D01*
X459524Y314563D01*
X459456Y314531D01*
X459384Y314508D01*
X459313Y314463D01*
X459237Y314426D01*
X459122Y314342D01*
X459115Y314337D01*
X459113Y314335D01*
X459107Y314331D01*
X451772Y308176D01*
X441738Y304524D01*
X431062Y304524D01*
X421028Y308176D01*
X412849Y315039D01*
X407511Y324285D01*
X405657Y334800D01*
X407511Y345315D01*
X412849Y354561D01*
X416174Y357351D01*
X416198Y357377D01*
X416226Y357397D01*
X416306Y357493D01*
X416390Y357584D01*
X416407Y357615D01*
X416429Y357642D01*
X416482Y357755D01*
X416541Y357864D01*
X416550Y357898D01*
X416565Y357930D01*
X416588Y358052D01*
X416618Y358172D01*
X416618Y358208D01*
X416625Y358243D01*
X416617Y358366D01*
X416616Y358490D01*
X416607Y358525D01*
X416605Y358560D01*
X416567Y358678D01*
X416535Y358798D01*
X416518Y358829D01*
X416507Y358862D01*
X416440Y358967D01*
X416380Y359076D01*
X416356Y359101D01*
X416337Y359131D01*
X416246Y359216D01*
X416161Y359306D01*
X416131Y359325D01*
X416105Y359349D01*
X415996Y359409D01*
X415891Y359475D01*
X415857Y359486D01*
X415826Y359503D01*
X415707Y359534D01*
X415588Y359571D01*
X415553Y359573D01*
X415519Y359582D01*
X415358Y359592D01*
X51042Y359592D01*
X51007Y359588D01*
X50972Y359590D01*
X50850Y359568D01*
X50727Y359552D01*
X50694Y359539D01*
X50659Y359533D01*
X50546Y359481D01*
X50431Y359435D01*
X50402Y359415D01*
X50370Y359400D01*
X50274Y359321D01*
X50174Y359249D01*
X50151Y359221D01*
X50124Y359199D01*
X50050Y359099D01*
X49971Y359004D01*
X49956Y358972D01*
X49935Y358943D01*
X49888Y358828D01*
X49835Y358716D01*
X49829Y358681D01*
X49815Y358648D01*
X49799Y358525D01*
X49775Y358404D01*
X49778Y358368D01*
X49773Y358333D01*
X49788Y358210D01*
X49795Y358086D01*
X49806Y358052D01*
X49810Y358017D01*
X49855Y357902D01*
X49893Y357784D01*
X49912Y357754D01*
X49925Y357721D01*
X49997Y357620D01*
X50063Y357515D01*
X50089Y357491D01*
X50110Y357462D01*
X50226Y357351D01*
X53551Y354561D01*
X58889Y345315D01*
X60743Y334800D01*
X58889Y324285D01*
X53551Y315039D01*
X45372Y308176D01*
X35338Y304524D01*
X24662Y304524D01*
X14628Y308176D01*
X7293Y314331D01*
X7222Y314377D01*
X7158Y314430D01*
X7089Y314462D01*
X7026Y314503D01*
X6946Y314530D01*
X6870Y314566D01*
X6796Y314580D01*
X6724Y314604D01*
X6640Y314610D01*
X6557Y314625D01*
X6482Y314621D01*
X6407Y314626D01*
X6324Y314611D01*
X6240Y314606D01*
X6168Y314582D01*
X6094Y314569D01*
X6017Y314533D01*
X5938Y314508D01*
X5874Y314467D01*
X5805Y314435D01*
X5740Y314382D01*
X5669Y314337D01*
X5617Y314282D01*
X5558Y314235D01*
X5509Y314167D01*
X5451Y314106D01*
X5414Y314040D01*
X5369Y313979D01*
X5338Y313901D01*
X5297Y313827D01*
X5279Y313754D01*
X5250Y313684D01*
X5239Y313601D01*
X5218Y313519D01*
X5209Y313377D01*
X5208Y313369D01*
X5208Y313365D01*
X5208Y313359D01*
X5208Y279362D01*
X5210Y279348D01*
X5208Y279333D01*
X5224Y279227D01*
X5230Y279129D01*
X5242Y279093D01*
X5248Y279047D01*
X5253Y279033D01*
X5255Y279018D01*
X5301Y278911D01*
X5328Y278826D01*
X5346Y278798D01*
X5365Y278751D01*
X5373Y278739D01*
X5379Y278726D01*
X5455Y278626D01*
X5498Y278558D01*
X5520Y278537D01*
X5551Y278494D01*
X5563Y278484D01*
X5572Y278473D01*
X5676Y278390D01*
X5730Y278340D01*
X5753Y278327D01*
X5796Y278291D01*
X5810Y278285D01*
X5821Y278275D01*
X5948Y278219D01*
X6008Y278186D01*
X6032Y278180D01*
X6084Y278155D01*
X6099Y278153D01*
X6112Y278147D01*
X6252Y278123D01*
X6316Y278107D01*
X6350Y278105D01*
X6396Y278096D01*
X6411Y278097D01*
X6426Y278094D01*
X6463Y278097D01*
X6477Y278096D01*
X6482Y278096D01*
X6542Y278104D01*
X6570Y278106D01*
X6714Y278115D01*
X6728Y278120D01*
X6743Y278121D01*
X6779Y278134D01*
X6798Y278136D01*
X6884Y278171D01*
X7016Y278213D01*
X7029Y278221D01*
X7043Y278226D01*
X7082Y278249D01*
X7093Y278253D01*
X7108Y278264D01*
X7182Y278307D01*
X7727Y278671D01*
X9345Y279341D01*
X10674Y279606D01*
X10719Y279577D01*
X10777Y279529D01*
X10854Y279493D01*
X10925Y279449D01*
X10997Y279426D01*
X11065Y279394D01*
X11148Y279378D01*
X11228Y279352D01*
X11304Y279348D01*
X11377Y279334D01*
X11462Y279339D01*
X11546Y279335D01*
X11686Y279353D01*
X11695Y279354D01*
X11698Y279355D01*
X11706Y279356D01*
X12666Y279547D01*
X12812Y279596D01*
X12957Y279643D01*
X12962Y279646D01*
X12967Y279648D01*
X12998Y279667D01*
X13002Y279667D01*
X13151Y279656D01*
X13160Y279658D01*
X13169Y279657D01*
X13191Y279660D01*
X13202Y279655D01*
X13341Y279588D01*
X13348Y279586D01*
X13351Y279585D01*
X13360Y279583D01*
X13496Y279547D01*
X14230Y279401D01*
X14240Y279400D01*
X14248Y279397D01*
X14397Y279389D01*
X14548Y279378D01*
X14557Y279380D01*
X14566Y279380D01*
X14726Y279401D01*
X14952Y279446D01*
X15098Y279495D01*
X15243Y279542D01*
X15248Y279545D01*
X15253Y279546D01*
X15379Y279628D01*
X15383Y279628D01*
X15392Y279625D01*
X15542Y279616D01*
X15691Y279606D01*
X15700Y279607D01*
X15709Y279607D01*
X15848Y279626D01*
X15848Y279625D01*
X15853Y279623D01*
X15857Y279619D01*
X15995Y279555D01*
X16135Y279487D01*
X16142Y279485D01*
X16145Y279484D01*
X16154Y279482D01*
X16290Y279446D01*
X16817Y279341D01*
X17012Y279260D01*
X17060Y279247D01*
X17105Y279226D01*
X17213Y279205D01*
X17319Y279176D01*
X17369Y279176D01*
X17418Y279166D01*
X17527Y279173D01*
X17637Y279171D01*
X17685Y279183D01*
X17735Y279186D01*
X17839Y279220D01*
X17946Y279245D01*
X17990Y279269D01*
X18037Y279284D01*
X18130Y279343D01*
X18227Y279394D01*
X18264Y279428D01*
X18306Y279454D01*
X18381Y279534D01*
X18428Y279576D01*
X19611Y279341D01*
X21229Y278671D01*
X22686Y277698D01*
X23924Y276460D01*
X24897Y275003D01*
X25567Y273385D01*
X25735Y272541D01*
X17498Y272541D01*
X17380Y272526D01*
X17261Y272519D01*
X17223Y272506D01*
X17183Y272501D01*
X17072Y272458D01*
X17024Y272442D01*
X17006Y272452D01*
X16967Y272462D01*
X16931Y272479D01*
X16814Y272501D01*
X16698Y272531D01*
X16638Y272535D01*
X16618Y272539D01*
X16598Y272537D01*
X16538Y272541D01*
X14704Y272541D01*
X14586Y272526D01*
X14467Y272519D01*
X14429Y272506D01*
X14389Y272501D01*
X14278Y272458D01*
X14230Y272442D01*
X14212Y272452D01*
X14173Y272462D01*
X14137Y272479D01*
X14020Y272501D01*
X13904Y272531D01*
X13844Y272535D01*
X13824Y272539D01*
X13804Y272537D01*
X13744Y272541D01*
X12418Y272541D01*
X12300Y272526D01*
X12181Y272519D01*
X12143Y272506D01*
X12103Y272501D01*
X11992Y272458D01*
X11944Y272442D01*
X11926Y272452D01*
X11887Y272462D01*
X11851Y272479D01*
X11734Y272501D01*
X11618Y272531D01*
X11558Y272535D01*
X11538Y272539D01*
X11518Y272537D01*
X11458Y272541D01*
X6477Y272541D01*
X6359Y272526D01*
X6240Y272519D01*
X6202Y272506D01*
X6161Y272501D01*
X6051Y272458D01*
X5938Y272421D01*
X5903Y272399D01*
X5866Y272384D01*
X5770Y272315D01*
X5669Y272251D01*
X5641Y272221D01*
X5608Y272198D01*
X5532Y272106D01*
X5451Y272019D01*
X5431Y271984D01*
X5406Y271953D01*
X5355Y271845D01*
X5297Y271741D01*
X5287Y271701D01*
X5270Y271665D01*
X5248Y271548D01*
X5218Y271433D01*
X5214Y271373D01*
X5210Y271353D01*
X5212Y271332D01*
X5208Y271272D01*
X5208Y270312D01*
X5223Y270194D01*
X5230Y270075D01*
X5243Y270037D01*
X5248Y269996D01*
X5291Y269886D01*
X5328Y269773D01*
X5350Y269738D01*
X5365Y269701D01*
X5434Y269604D01*
X5498Y269504D01*
X5528Y269476D01*
X5551Y269443D01*
X5643Y269367D01*
X5730Y269286D01*
X5765Y269266D01*
X5796Y269241D01*
X5904Y269190D01*
X6008Y269132D01*
X6048Y269122D01*
X6084Y269105D01*
X6201Y269083D01*
X6316Y269053D01*
X6376Y269049D01*
X6396Y269045D01*
X6417Y269047D01*
X6477Y269043D01*
X11458Y269043D01*
X11576Y269058D01*
X11695Y269065D01*
X11733Y269077D01*
X11773Y269083D01*
X11884Y269126D01*
X11932Y269142D01*
X11950Y269132D01*
X11989Y269122D01*
X12025Y269105D01*
X12142Y269083D01*
X12258Y269053D01*
X12318Y269049D01*
X12338Y269045D01*
X12358Y269047D01*
X12418Y269043D01*
X13744Y269043D01*
X13862Y269058D01*
X13981Y269065D01*
X14019Y269077D01*
X14059Y269083D01*
X14170Y269126D01*
X14218Y269142D01*
X14236Y269132D01*
X14275Y269122D01*
X14311Y269105D01*
X14428Y269083D01*
X14544Y269053D01*
X14604Y269049D01*
X14624Y269045D01*
X14644Y269047D01*
X14704Y269043D01*
X16538Y269043D01*
X16656Y269058D01*
X16775Y269065D01*
X16813Y269077D01*
X16853Y269083D01*
X16964Y269126D01*
X17012Y269142D01*
X17030Y269132D01*
X17069Y269122D01*
X17105Y269105D01*
X17222Y269083D01*
X17338Y269053D01*
X17398Y269049D01*
X17418Y269045D01*
X17438Y269047D01*
X17498Y269043D01*
X25735Y269043D01*
X25567Y268199D01*
X24897Y266581D01*
X23924Y265124D01*
X22686Y263886D01*
X21229Y262913D01*
X19611Y262243D01*
X18432Y262008D01*
X18424Y262020D01*
X18385Y262051D01*
X18353Y262089D01*
X18263Y262152D01*
X18179Y262222D01*
X18134Y262244D01*
X18093Y262272D01*
X17990Y262311D01*
X17891Y262358D01*
X17842Y262367D01*
X17796Y262385D01*
X17686Y262397D01*
X17579Y262418D01*
X17529Y262415D01*
X17480Y262420D01*
X17371Y262405D01*
X17261Y262398D01*
X17214Y262383D01*
X17165Y262376D01*
X17012Y262324D01*
X16817Y262243D01*
X16290Y262138D01*
X16143Y262089D01*
X15999Y262042D01*
X15994Y262039D01*
X15989Y262037D01*
X15863Y261956D01*
X15859Y261956D01*
X15850Y261959D01*
X15700Y261968D01*
X15551Y261978D01*
X15542Y261977D01*
X15533Y261977D01*
X15394Y261958D01*
X15394Y261959D01*
X15389Y261961D01*
X15385Y261965D01*
X15246Y262030D01*
X15107Y262097D01*
X15100Y262099D01*
X15097Y262100D01*
X15088Y262102D01*
X14952Y262138D01*
X14726Y262183D01*
X14716Y262184D01*
X14708Y262187D01*
X14559Y262195D01*
X14408Y262206D01*
X14399Y262204D01*
X14390Y262204D01*
X14230Y262183D01*
X13496Y262037D01*
X13349Y261988D01*
X13205Y261941D01*
X13200Y261938D01*
X13195Y261936D01*
X13164Y261917D01*
X13161Y261917D01*
X13011Y261928D01*
X13002Y261926D01*
X12993Y261927D01*
X12971Y261924D01*
X12961Y261928D01*
X12821Y261996D01*
X12814Y261998D01*
X12811Y261999D01*
X12802Y262001D01*
X12666Y262037D01*
X11706Y262228D01*
X11621Y262234D01*
X11538Y262250D01*
X11463Y262245D01*
X11388Y262251D01*
X11305Y262235D01*
X11221Y262230D01*
X11150Y262207D01*
X11075Y262193D01*
X10999Y262158D01*
X10919Y262132D01*
X10855Y262092D01*
X10787Y262060D01*
X10721Y262007D01*
X10676Y261978D01*
X9345Y262243D01*
X7727Y262913D01*
X7182Y263277D01*
X7169Y263284D01*
X7158Y263293D01*
X7027Y263354D01*
X6898Y263419D01*
X6883Y263422D01*
X6870Y263429D01*
X6729Y263456D01*
X6587Y263486D01*
X6572Y263486D01*
X6557Y263488D01*
X6414Y263479D01*
X6269Y263474D01*
X6255Y263469D01*
X6240Y263469D01*
X6102Y263424D01*
X5964Y263383D01*
X5952Y263375D01*
X5938Y263371D01*
X5815Y263293D01*
X5692Y263219D01*
X5681Y263208D01*
X5669Y263200D01*
X5570Y263095D01*
X5469Y262992D01*
X5461Y262980D01*
X5451Y262969D01*
X5381Y262843D01*
X5309Y262717D01*
X5305Y262703D01*
X5297Y262690D01*
X5261Y262551D01*
X5222Y262411D01*
X5222Y262397D01*
X5218Y262382D01*
X5208Y262222D01*
X5208Y209258D01*
X5210Y209244D01*
X5208Y209229D01*
X5229Y209086D01*
X5248Y208943D01*
X5253Y208929D01*
X5255Y208914D01*
X5311Y208782D01*
X5365Y208647D01*
X5373Y208635D01*
X5379Y208622D01*
X5466Y208507D01*
X5551Y208390D01*
X5563Y208380D01*
X5572Y208369D01*
X5685Y208279D01*
X5796Y208187D01*
X5810Y208181D01*
X5821Y208171D01*
X5954Y208113D01*
X6084Y208051D01*
X6099Y208049D01*
X6112Y208043D01*
X6255Y208019D01*
X6396Y207992D01*
X6411Y207993D01*
X6426Y207990D01*
X6570Y208002D01*
X6714Y208011D01*
X6728Y208016D01*
X6743Y208017D01*
X6879Y208065D01*
X7016Y208109D01*
X7029Y208117D01*
X7043Y208122D01*
X7182Y208203D01*
X7727Y208567D01*
X9345Y209237D01*
X10613Y209489D01*
X10693Y209433D01*
X10777Y209363D01*
X10822Y209342D01*
X10863Y209313D01*
X10966Y209274D01*
X11065Y209227D01*
X11114Y209218D01*
X11161Y209200D01*
X11270Y209188D01*
X11377Y209167D01*
X11427Y209171D01*
X11477Y209165D01*
X11586Y209180D01*
X11695Y209187D01*
X11742Y209203D01*
X11792Y209210D01*
X11855Y209231D01*
X12666Y209392D01*
X12813Y209442D01*
X12957Y209488D01*
X12962Y209491D01*
X12967Y209493D01*
X13044Y209542D01*
X13128Y209538D01*
X13277Y209527D01*
X13287Y209529D01*
X13296Y209528D01*
X13375Y209539D01*
X13454Y209501D01*
X13595Y209434D01*
X13602Y209432D01*
X13605Y209430D01*
X13614Y209429D01*
X13750Y209392D01*
X14230Y209297D01*
X14240Y209296D01*
X14249Y209293D01*
X14397Y209285D01*
X14548Y209274D01*
X14557Y209276D01*
X14566Y209276D01*
X14726Y209297D01*
X15206Y209392D01*
X15353Y209442D01*
X15497Y209488D01*
X15502Y209491D01*
X15507Y209493D01*
X15584Y209542D01*
X15668Y209538D01*
X15818Y209527D01*
X15827Y209529D01*
X15836Y209528D01*
X15915Y209539D01*
X15996Y209501D01*
X16135Y209434D01*
X16142Y209432D01*
X16145Y209430D01*
X16154Y209429D01*
X16290Y209392D01*
X17094Y209233D01*
X17105Y209227D01*
X17213Y209207D01*
X17318Y209178D01*
X17369Y209177D01*
X17418Y209167D01*
X17527Y209174D01*
X17636Y209172D01*
X17685Y209184D01*
X17735Y209187D01*
X17839Y209221D01*
X17946Y209246D01*
X17990Y209270D01*
X18037Y209285D01*
X18130Y209344D01*
X18227Y209395D01*
X18264Y209429D01*
X18306Y209455D01*
X18339Y209490D01*
X19611Y209237D01*
X21229Y208567D01*
X22686Y207594D01*
X23924Y206356D01*
X24897Y204899D01*
X25567Y203281D01*
X25735Y202437D01*
X17498Y202437D01*
X17380Y202422D01*
X17261Y202415D01*
X17223Y202402D01*
X17183Y202397D01*
X17072Y202354D01*
X17024Y202338D01*
X17006Y202348D01*
X16967Y202358D01*
X16931Y202375D01*
X16814Y202397D01*
X16698Y202427D01*
X16638Y202431D01*
X16618Y202435D01*
X16598Y202433D01*
X16538Y202437D01*
X14958Y202437D01*
X14840Y202422D01*
X14721Y202415D01*
X14683Y202402D01*
X14643Y202397D01*
X14532Y202354D01*
X14484Y202338D01*
X14466Y202348D01*
X14427Y202358D01*
X14391Y202375D01*
X14274Y202397D01*
X14158Y202427D01*
X14098Y202431D01*
X14078Y202435D01*
X14058Y202433D01*
X13998Y202437D01*
X12418Y202437D01*
X12300Y202422D01*
X12181Y202415D01*
X12143Y202402D01*
X12103Y202397D01*
X11992Y202354D01*
X11944Y202338D01*
X11926Y202348D01*
X11887Y202358D01*
X11851Y202375D01*
X11734Y202397D01*
X11618Y202427D01*
X11558Y202431D01*
X11538Y202435D01*
X11518Y202433D01*
X11458Y202437D01*
X6477Y202437D01*
X6359Y202422D01*
X6240Y202415D01*
X6202Y202402D01*
X6161Y202397D01*
X6051Y202354D01*
X5938Y202317D01*
X5903Y202295D01*
X5866Y202280D01*
X5770Y202211D01*
X5669Y202147D01*
X5641Y202117D01*
X5608Y202094D01*
X5532Y202002D01*
X5451Y201915D01*
X5431Y201880D01*
X5406Y201849D01*
X5355Y201741D01*
X5297Y201637D01*
X5287Y201597D01*
X5270Y201561D01*
X5248Y201444D01*
X5218Y201329D01*
X5214Y201269D01*
X5210Y201249D01*
X5212Y201228D01*
X5208Y201168D01*
X5208Y200208D01*
X5223Y200090D01*
X5230Y199971D01*
X5243Y199933D01*
X5248Y199892D01*
X5291Y199782D01*
X5328Y199669D01*
X5350Y199634D01*
X5365Y199597D01*
X5434Y199500D01*
X5498Y199400D01*
X5528Y199372D01*
X5551Y199339D01*
X5643Y199263D01*
X5730Y199182D01*
X5765Y199162D01*
X5796Y199137D01*
X5904Y199086D01*
X6008Y199028D01*
X6048Y199018D01*
X6084Y199001D01*
X6201Y198979D01*
X6316Y198949D01*
X6376Y198945D01*
X6396Y198941D01*
X6417Y198943D01*
X6477Y198939D01*
X11458Y198939D01*
X11576Y198954D01*
X11695Y198961D01*
X11733Y198973D01*
X11773Y198979D01*
X11884Y199022D01*
X11932Y199038D01*
X11950Y199028D01*
X11989Y199018D01*
X12025Y199001D01*
X12142Y198979D01*
X12258Y198949D01*
X12318Y198945D01*
X12338Y198941D01*
X12358Y198943D01*
X12418Y198939D01*
X13998Y198939D01*
X14116Y198954D01*
X14235Y198961D01*
X14273Y198973D01*
X14313Y198979D01*
X14424Y199022D01*
X14472Y199038D01*
X14490Y199028D01*
X14529Y199018D01*
X14565Y199001D01*
X14682Y198979D01*
X14798Y198949D01*
X14858Y198945D01*
X14878Y198941D01*
X14898Y198943D01*
X14958Y198939D01*
X16538Y198939D01*
X16656Y198954D01*
X16775Y198961D01*
X16813Y198973D01*
X16853Y198979D01*
X16964Y199022D01*
X17012Y199038D01*
X17030Y199028D01*
X17069Y199018D01*
X17105Y199001D01*
X17222Y198979D01*
X17338Y198949D01*
X17398Y198945D01*
X17418Y198941D01*
X17438Y198943D01*
X17498Y198939D01*
X25735Y198939D01*
X25567Y198095D01*
X24897Y196477D01*
X23924Y195020D01*
X22686Y193782D01*
X21229Y192809D01*
X19611Y192139D01*
X18343Y191887D01*
X18263Y191943D01*
X18179Y192013D01*
X18133Y192035D01*
X18093Y192063D01*
X17990Y192102D01*
X17891Y192149D01*
X17842Y192158D01*
X17795Y192176D01*
X17686Y192188D01*
X17579Y192209D01*
X17529Y192205D01*
X17479Y192211D01*
X17371Y192196D01*
X17261Y192189D01*
X17214Y192173D01*
X17164Y192166D01*
X17101Y192145D01*
X16290Y191984D01*
X16143Y191934D01*
X15999Y191888D01*
X15994Y191885D01*
X15989Y191883D01*
X15912Y191834D01*
X15828Y191838D01*
X15679Y191849D01*
X15669Y191847D01*
X15660Y191848D01*
X15581Y191837D01*
X15500Y191875D01*
X15361Y191942D01*
X15354Y191944D01*
X15351Y191946D01*
X15342Y191947D01*
X15206Y191984D01*
X14726Y192079D01*
X14716Y192080D01*
X14708Y192083D01*
X14559Y192091D01*
X14408Y192102D01*
X14399Y192100D01*
X14390Y192100D01*
X14230Y192079D01*
X13750Y191984D01*
X13604Y191935D01*
X13459Y191888D01*
X13454Y191885D01*
X13449Y191883D01*
X13372Y191834D01*
X13288Y191838D01*
X13138Y191849D01*
X13129Y191847D01*
X13120Y191848D01*
X13041Y191837D01*
X12960Y191875D01*
X12821Y191942D01*
X12814Y191944D01*
X12811Y191946D01*
X12802Y191947D01*
X12666Y191984D01*
X11862Y192143D01*
X11851Y192149D01*
X11743Y192169D01*
X11637Y192198D01*
X11587Y192199D01*
X11538Y192209D01*
X11429Y192202D01*
X11319Y192204D01*
X11271Y192192D01*
X11221Y192189D01*
X11117Y192155D01*
X11010Y192129D01*
X10966Y192106D01*
X10919Y192091D01*
X10826Y192032D01*
X10729Y191981D01*
X10692Y191947D01*
X10650Y191921D01*
X10617Y191886D01*
X9345Y192139D01*
X7727Y192809D01*
X7182Y193173D01*
X7169Y193180D01*
X7158Y193189D01*
X7027Y193250D01*
X6898Y193315D01*
X6883Y193318D01*
X6870Y193325D01*
X6729Y193352D01*
X6587Y193382D01*
X6572Y193382D01*
X6557Y193384D01*
X6414Y193375D01*
X6269Y193370D01*
X6255Y193365D01*
X6240Y193365D01*
X6102Y193320D01*
X5964Y193279D01*
X5952Y193271D01*
X5938Y193267D01*
X5815Y193189D01*
X5692Y193115D01*
X5681Y193104D01*
X5669Y193096D01*
X5570Y192991D01*
X5469Y192888D01*
X5461Y192876D01*
X5451Y192865D01*
X5381Y192739D01*
X5309Y192613D01*
X5305Y192599D01*
X5297Y192586D01*
X5261Y192447D01*
X5222Y192307D01*
X5222Y192293D01*
X5218Y192278D01*
X5208Y192118D01*
X5208Y51441D01*
X5218Y51358D01*
X5219Y51274D01*
X5238Y51201D01*
X5248Y51126D01*
X5278Y51048D01*
X5300Y50966D01*
X5337Y50900D01*
X5365Y50830D01*
X5414Y50762D01*
X5455Y50689D01*
X5507Y50634D01*
X5551Y50573D01*
X5616Y50519D01*
X5674Y50458D01*
X5738Y50418D01*
X5796Y50370D01*
X5872Y50334D01*
X5944Y50290D01*
X6016Y50267D01*
X6084Y50234D01*
X6166Y50219D01*
X6247Y50193D01*
X6322Y50189D01*
X6396Y50175D01*
X6480Y50180D01*
X6564Y50175D01*
X6638Y50190D01*
X6714Y50194D01*
X6794Y50220D01*
X6876Y50237D01*
X6944Y50269D01*
X7016Y50292D01*
X7087Y50337D01*
X7163Y50374D01*
X7278Y50458D01*
X7285Y50463D01*
X7287Y50465D01*
X7293Y50469D01*
X14628Y56624D01*
X24662Y60276D01*
X35338Y60276D01*
X45372Y56624D01*
X53551Y49761D01*
X58889Y40515D01*
X60743Y30000D01*
X58889Y19485D01*
X53551Y10239D01*
X50226Y7449D01*
X50202Y7423D01*
X50174Y7403D01*
X50094Y7307D01*
X50010Y7216D01*
X49993Y7185D01*
X49971Y7158D01*
X49918Y7045D01*
X49859Y6936D01*
X49850Y6902D01*
X49835Y6870D01*
X49812Y6748D01*
X49782Y6628D01*
X49782Y6592D01*
X49775Y6557D01*
X49783Y6434D01*
X49784Y6310D01*
X49793Y6275D01*
X49795Y6240D01*
X49833Y6122D01*
X49865Y6002D01*
X49882Y5971D01*
X49893Y5938D01*
X49960Y5833D01*
X50020Y5724D01*
X50044Y5699D01*
X50063Y5669D01*
X50154Y5584D01*
X50239Y5494D01*
X50269Y5475D01*
X50295Y5451D01*
X50404Y5391D01*
X50509Y5325D01*
X50543Y5314D01*
X50574Y5297D01*
X50693Y5266D01*
X50812Y5229D01*
X50847Y5227D01*
X50881Y5218D01*
X51042Y5208D01*
X415358Y5208D01*
X415393Y5212D01*
G37*
%LPC*%
G36*
X26490Y114612D02*
X26490Y114612D01*
X25448Y115654D01*
X25448Y140378D01*
X26490Y141420D01*
X51214Y141420D01*
X52256Y140378D01*
X52256Y115654D01*
X51214Y114612D01*
X26490Y114612D01*
G37*
%LPD*%
%LPC*%
G36*
X130186Y114612D02*
X130186Y114612D01*
X125259Y116653D01*
X121489Y120423D01*
X119448Y125350D01*
X119448Y130682D01*
X121489Y135609D01*
X125259Y139379D01*
X130186Y141420D01*
X135518Y141420D01*
X140445Y139379D01*
X144215Y135609D01*
X146256Y130682D01*
X146256Y125350D01*
X144215Y120423D01*
X140445Y116653D01*
X135518Y114612D01*
X130186Y114612D01*
G37*
%LPD*%
%LPC*%
G36*
X83186Y114612D02*
X83186Y114612D01*
X78259Y116653D01*
X74489Y120423D01*
X72448Y125350D01*
X72448Y130682D01*
X74489Y135609D01*
X78259Y139379D01*
X83186Y141420D01*
X88518Y141420D01*
X93445Y139379D01*
X97215Y135609D01*
X99256Y130682D01*
X99256Y125350D01*
X97215Y120423D01*
X93445Y116653D01*
X88518Y114612D01*
X83186Y114612D01*
G37*
%LPD*%
%LPC*%
G36*
X425464Y72407D02*
X425464Y72407D01*
X420796Y74341D01*
X417223Y77914D01*
X415289Y82582D01*
X415289Y87634D01*
X417223Y92302D01*
X420796Y95875D01*
X425464Y97809D01*
X430516Y97809D01*
X435184Y95875D01*
X438757Y92302D01*
X440691Y87634D01*
X440691Y82582D01*
X438757Y77914D01*
X435184Y74341D01*
X430516Y72407D01*
X425464Y72407D01*
G37*
%LPD*%
%LPC*%
G36*
X155429Y25044D02*
X155429Y25044D01*
X150761Y26977D01*
X147188Y30550D01*
X145254Y35218D01*
X145254Y40271D01*
X147188Y44939D01*
X150761Y48512D01*
X155429Y50445D01*
X160482Y50445D01*
X165150Y48512D01*
X168722Y44939D01*
X170656Y40271D01*
X170656Y35218D01*
X168722Y30550D01*
X165150Y26977D01*
X160482Y25044D01*
X155429Y25044D01*
G37*
%LPD*%
%LPC*%
G36*
X77705Y25044D02*
X77705Y25044D01*
X73037Y26977D01*
X69464Y30550D01*
X67530Y35218D01*
X67530Y40271D01*
X69464Y44939D01*
X73037Y48512D01*
X77705Y50445D01*
X82758Y50445D01*
X87426Y48512D01*
X90998Y44939D01*
X92932Y40271D01*
X92932Y35218D01*
X90998Y30550D01*
X87426Y26977D01*
X82758Y25044D01*
X77705Y25044D01*
G37*
%LPD*%
%LPC*%
G36*
X413314Y202183D02*
X413314Y202183D01*
X411540Y202918D01*
X410182Y204276D01*
X409447Y206050D01*
X409447Y207970D01*
X410182Y209744D01*
X411540Y211102D01*
X413314Y211837D01*
X415234Y211837D01*
X417008Y211102D01*
X417426Y210684D01*
X417504Y210624D01*
X417576Y210556D01*
X417629Y210527D01*
X417677Y210490D01*
X417768Y210450D01*
X417854Y210402D01*
X417913Y210387D01*
X417969Y210363D01*
X418067Y210348D01*
X418162Y210323D01*
X418262Y210317D01*
X418283Y210313D01*
X418295Y210315D01*
X418323Y210313D01*
X429021Y210313D01*
X429119Y210325D01*
X429218Y210328D01*
X429276Y210345D01*
X429336Y210353D01*
X429429Y210389D01*
X429524Y210417D01*
X429576Y210447D01*
X429632Y210470D01*
X429712Y210528D01*
X429798Y210578D01*
X429873Y210644D01*
X429890Y210656D01*
X429897Y210666D01*
X429918Y210684D01*
X430336Y211102D01*
X432110Y211837D01*
X434030Y211837D01*
X435804Y211102D01*
X437162Y209744D01*
X437897Y207970D01*
X437897Y206050D01*
X437162Y204276D01*
X435804Y202918D01*
X434030Y202183D01*
X432110Y202183D01*
X430336Y202918D01*
X429918Y203336D01*
X429840Y203396D01*
X429768Y203464D01*
X429715Y203493D01*
X429667Y203530D01*
X429576Y203570D01*
X429490Y203618D01*
X429431Y203633D01*
X429375Y203657D01*
X429277Y203672D01*
X429182Y203697D01*
X429082Y203703D01*
X429061Y203707D01*
X429049Y203705D01*
X429021Y203707D01*
X418323Y203707D01*
X418225Y203695D01*
X418126Y203692D01*
X418068Y203675D01*
X418008Y203667D01*
X417915Y203631D01*
X417820Y203603D01*
X417768Y203573D01*
X417712Y203550D01*
X417632Y203492D01*
X417546Y203442D01*
X417471Y203376D01*
X417454Y203364D01*
X417447Y203354D01*
X417426Y203336D01*
X417008Y202918D01*
X415234Y202183D01*
X413314Y202183D01*
G37*
%LPD*%
%LPC*%
G36*
X43151Y258882D02*
X43151Y258882D01*
X43136Y259000D01*
X43129Y259119D01*
X43116Y259157D01*
X43111Y259197D01*
X43068Y259308D01*
X43052Y259356D01*
X43062Y259374D01*
X43072Y259413D01*
X43089Y259449D01*
X43111Y259566D01*
X43141Y259682D01*
X43145Y259742D01*
X43149Y259762D01*
X43147Y259782D01*
X43151Y259842D01*
X43151Y260152D01*
X43136Y260270D01*
X43129Y260389D01*
X43116Y260427D01*
X43111Y260467D01*
X43068Y260578D01*
X43052Y260626D01*
X43062Y260644D01*
X43072Y260683D01*
X43089Y260719D01*
X43111Y260836D01*
X43141Y260952D01*
X43145Y261012D01*
X43149Y261032D01*
X43147Y261052D01*
X43151Y261112D01*
X43151Y261422D01*
X43136Y261540D01*
X43129Y261659D01*
X43116Y261697D01*
X43111Y261737D01*
X43068Y261848D01*
X43052Y261896D01*
X43062Y261914D01*
X43072Y261953D01*
X43089Y261989D01*
X43111Y262106D01*
X43141Y262222D01*
X43145Y262282D01*
X43149Y262302D01*
X43147Y262322D01*
X43151Y262382D01*
X43151Y270303D01*
X43905Y270153D01*
X45466Y269506D01*
X46872Y268567D01*
X48067Y267372D01*
X49006Y265966D01*
X49653Y264405D01*
X49948Y262920D01*
X49945Y262915D01*
X49922Y262843D01*
X49890Y262775D01*
X49874Y262692D01*
X49848Y262611D01*
X49844Y262536D01*
X49830Y262463D01*
X49835Y262378D01*
X49831Y262294D01*
X49849Y262154D01*
X49850Y262145D01*
X49851Y262142D01*
X49852Y262134D01*
X49983Y261477D01*
X49983Y261057D01*
X49947Y260880D01*
X49947Y260870D01*
X49944Y260861D01*
X49936Y260712D01*
X49925Y260562D01*
X49927Y260553D01*
X49926Y260544D01*
X49947Y260384D01*
X49983Y260207D01*
X49983Y259787D01*
X49852Y259130D01*
X49846Y259045D01*
X49830Y258962D01*
X49835Y258887D01*
X49829Y258812D01*
X49845Y258729D01*
X49850Y258645D01*
X49873Y258573D01*
X49887Y258500D01*
X49922Y258423D01*
X49948Y258343D01*
X49948Y258342D01*
X49653Y256859D01*
X49006Y255298D01*
X48067Y253892D01*
X46872Y252697D01*
X45466Y251758D01*
X43905Y251111D01*
X43151Y250961D01*
X43151Y258882D01*
G37*
%LPD*%
%LPC*%
G36*
X38899Y251111D02*
X38899Y251111D01*
X37338Y251758D01*
X35932Y252697D01*
X34737Y253892D01*
X33798Y255298D01*
X33151Y256859D01*
X32856Y258344D01*
X32859Y258349D01*
X32882Y258421D01*
X32914Y258489D01*
X32930Y258572D01*
X32956Y258653D01*
X32960Y258728D01*
X32974Y258801D01*
X32969Y258886D01*
X32973Y258970D01*
X32955Y259110D01*
X32954Y259119D01*
X32953Y259122D01*
X32952Y259130D01*
X32821Y259787D01*
X32821Y260207D01*
X32857Y260384D01*
X32857Y260394D01*
X32860Y260403D01*
X32868Y260553D01*
X32879Y260702D01*
X32877Y260711D01*
X32878Y260720D01*
X32857Y260880D01*
X32821Y261057D01*
X32821Y261477D01*
X32952Y262134D01*
X32958Y262219D01*
X32974Y262302D01*
X32969Y262377D01*
X32975Y262452D01*
X32959Y262535D01*
X32954Y262619D01*
X32931Y262690D01*
X32917Y262764D01*
X32882Y262841D01*
X32856Y262921D01*
X32856Y262922D01*
X33151Y264405D01*
X33798Y265966D01*
X34737Y267372D01*
X35932Y268567D01*
X37338Y269506D01*
X38899Y270153D01*
X39653Y270303D01*
X39653Y262382D01*
X39668Y262264D01*
X39675Y262145D01*
X39687Y262107D01*
X39693Y262067D01*
X39736Y261956D01*
X39752Y261908D01*
X39742Y261890D01*
X39732Y261851D01*
X39715Y261815D01*
X39693Y261698D01*
X39663Y261582D01*
X39659Y261522D01*
X39655Y261502D01*
X39657Y261482D01*
X39653Y261422D01*
X39653Y261112D01*
X39668Y260994D01*
X39675Y260875D01*
X39687Y260837D01*
X39693Y260797D01*
X39736Y260686D01*
X39752Y260638D01*
X39742Y260620D01*
X39732Y260581D01*
X39715Y260545D01*
X39693Y260428D01*
X39663Y260312D01*
X39659Y260252D01*
X39655Y260232D01*
X39657Y260212D01*
X39653Y260152D01*
X39653Y259842D01*
X39668Y259724D01*
X39675Y259605D01*
X39687Y259567D01*
X39693Y259527D01*
X39736Y259416D01*
X39752Y259368D01*
X39742Y259350D01*
X39732Y259311D01*
X39715Y259275D01*
X39693Y259158D01*
X39663Y259042D01*
X39659Y258982D01*
X39655Y258962D01*
X39657Y258942D01*
X39653Y258882D01*
X39653Y250961D01*
X38899Y251111D01*
G37*
%LPD*%
%LPC*%
G36*
X43151Y209098D02*
X43151Y209098D01*
X43136Y209216D01*
X43129Y209335D01*
X43116Y209373D01*
X43111Y209413D01*
X43068Y209524D01*
X43052Y209572D01*
X43062Y209590D01*
X43072Y209629D01*
X43089Y209665D01*
X43111Y209782D01*
X43141Y209898D01*
X43145Y209958D01*
X43149Y209978D01*
X43147Y209998D01*
X43151Y210058D01*
X43151Y210622D01*
X43136Y210740D01*
X43129Y210859D01*
X43116Y210897D01*
X43111Y210937D01*
X43068Y211048D01*
X43052Y211096D01*
X43062Y211114D01*
X43072Y211153D01*
X43089Y211189D01*
X43111Y211306D01*
X43141Y211422D01*
X43145Y211482D01*
X43149Y211502D01*
X43147Y211522D01*
X43151Y211582D01*
X43151Y211638D01*
X43136Y211756D01*
X43129Y211875D01*
X43116Y211913D01*
X43111Y211953D01*
X43068Y212064D01*
X43052Y212112D01*
X43062Y212130D01*
X43072Y212169D01*
X43089Y212205D01*
X43111Y212322D01*
X43141Y212438D01*
X43145Y212498D01*
X43149Y212518D01*
X43147Y212538D01*
X43151Y212598D01*
X43151Y220519D01*
X43905Y220369D01*
X45466Y219722D01*
X46872Y218783D01*
X48067Y217588D01*
X49006Y216182D01*
X49653Y214621D01*
X49966Y213046D01*
X49940Y212991D01*
X49925Y212908D01*
X49899Y212827D01*
X49895Y212752D01*
X49881Y212679D01*
X49886Y212594D01*
X49881Y212510D01*
X49900Y212370D01*
X49900Y212361D01*
X49902Y212358D01*
X49903Y212350D01*
X49983Y211947D01*
X49983Y211273D01*
X49947Y211096D01*
X49947Y211086D01*
X49944Y211077D01*
X49936Y210939D01*
X49930Y210907D01*
X49932Y210876D01*
X49925Y210778D01*
X49927Y210769D01*
X49926Y210760D01*
X49947Y210600D01*
X49983Y210423D01*
X49983Y210257D01*
X49801Y209346D01*
X49795Y209261D01*
X49780Y209178D01*
X49784Y209103D01*
X49779Y209028D01*
X49794Y208945D01*
X49799Y208861D01*
X49823Y208790D01*
X49836Y208715D01*
X49871Y208639D01*
X49897Y208559D01*
X49936Y208498D01*
X49653Y207075D01*
X49006Y205514D01*
X48067Y204108D01*
X46872Y202913D01*
X45466Y201974D01*
X43905Y201327D01*
X43151Y201177D01*
X43151Y209098D01*
G37*
%LPD*%
%LPC*%
G36*
X38899Y201327D02*
X38899Y201327D01*
X37338Y201974D01*
X35932Y202913D01*
X34737Y204108D01*
X33798Y205514D01*
X33151Y207075D01*
X32868Y208498D01*
X32910Y208565D01*
X32933Y208637D01*
X32965Y208705D01*
X32980Y208788D01*
X33006Y208868D01*
X33010Y208944D01*
X33024Y209017D01*
X33019Y209102D01*
X33024Y209186D01*
X33005Y209326D01*
X33005Y209335D01*
X33004Y209338D01*
X33003Y209346D01*
X32821Y210257D01*
X32821Y210423D01*
X32857Y210600D01*
X32857Y210610D01*
X32860Y210619D01*
X32864Y210695D01*
X32874Y210746D01*
X32871Y210800D01*
X32879Y210918D01*
X32877Y210927D01*
X32878Y210936D01*
X32857Y211096D01*
X32821Y211273D01*
X32821Y211947D01*
X32901Y212350D01*
X32907Y212435D01*
X32923Y212518D01*
X32919Y212593D01*
X32924Y212668D01*
X32909Y212751D01*
X32904Y212835D01*
X32880Y212906D01*
X32867Y212980D01*
X32837Y213044D01*
X33151Y214621D01*
X33798Y216182D01*
X34737Y217588D01*
X35932Y218783D01*
X37338Y219722D01*
X38899Y220369D01*
X39653Y220519D01*
X39653Y212598D01*
X39668Y212480D01*
X39675Y212361D01*
X39687Y212323D01*
X39693Y212283D01*
X39736Y212172D01*
X39752Y212124D01*
X39742Y212106D01*
X39732Y212067D01*
X39715Y212031D01*
X39693Y211914D01*
X39663Y211798D01*
X39659Y211738D01*
X39655Y211718D01*
X39657Y211698D01*
X39653Y211638D01*
X39653Y211582D01*
X39668Y211464D01*
X39675Y211345D01*
X39687Y211307D01*
X39693Y211267D01*
X39736Y211156D01*
X39752Y211108D01*
X39742Y211090D01*
X39732Y211051D01*
X39715Y211015D01*
X39693Y210898D01*
X39663Y210782D01*
X39659Y210722D01*
X39655Y210702D01*
X39657Y210682D01*
X39653Y210622D01*
X39653Y210058D01*
X39668Y209940D01*
X39675Y209821D01*
X39687Y209783D01*
X39693Y209743D01*
X39736Y209632D01*
X39752Y209584D01*
X39742Y209566D01*
X39732Y209527D01*
X39715Y209491D01*
X39693Y209374D01*
X39663Y209258D01*
X39659Y209198D01*
X39655Y209178D01*
X39657Y209158D01*
X39653Y209098D01*
X39653Y201177D01*
X38899Y201327D01*
G37*
%LPD*%
%LPC*%
G36*
X430489Y122607D02*
X430489Y122607D01*
X430489Y133343D01*
X431143Y133239D01*
X433158Y132584D01*
X435046Y131622D01*
X436760Y130377D01*
X438259Y128878D01*
X439504Y127164D01*
X440466Y125276D01*
X441121Y123261D01*
X441225Y122607D01*
X430489Y122607D01*
G37*
%LPD*%
%LPC*%
G36*
X195454Y40244D02*
X195454Y40244D01*
X195454Y50979D01*
X196108Y50876D01*
X198123Y50221D01*
X200011Y49259D01*
X201726Y48013D01*
X203224Y46515D01*
X204470Y44800D01*
X205432Y42912D01*
X206086Y40897D01*
X206190Y40244D01*
X195454Y40244D01*
G37*
%LPD*%
%LPC*%
G36*
X117730Y40244D02*
X117730Y40244D01*
X117730Y50979D01*
X118384Y50876D01*
X120399Y50221D01*
X122287Y49259D01*
X124002Y48013D01*
X125500Y46515D01*
X126746Y44800D01*
X127708Y42912D01*
X128362Y40897D01*
X128466Y40244D01*
X117730Y40244D01*
G37*
%LPD*%
%LPC*%
G36*
X414755Y122607D02*
X414755Y122607D01*
X414859Y123261D01*
X415514Y125276D01*
X416476Y127164D01*
X417721Y128878D01*
X419220Y130377D01*
X420934Y131622D01*
X422822Y132584D01*
X424837Y133239D01*
X425491Y133343D01*
X425491Y122607D01*
X414755Y122607D01*
G37*
%LPD*%
%LPC*%
G36*
X430489Y117609D02*
X430489Y117609D01*
X441225Y117609D01*
X441121Y116955D01*
X440466Y114940D01*
X439504Y113052D01*
X438259Y111338D01*
X436760Y109839D01*
X435046Y108594D01*
X433158Y107632D01*
X431143Y106977D01*
X430489Y106873D01*
X430489Y117609D01*
G37*
%LPD*%
%LPC*%
G36*
X101996Y40244D02*
X101996Y40244D01*
X102100Y40897D01*
X102755Y42912D01*
X103717Y44800D01*
X104962Y46515D01*
X106461Y48013D01*
X108175Y49259D01*
X110063Y50221D01*
X112079Y50876D01*
X112732Y50979D01*
X112732Y40244D01*
X101996Y40244D01*
G37*
%LPD*%
%LPC*%
G36*
X179720Y40244D02*
X179720Y40244D01*
X179824Y40897D01*
X180479Y42912D01*
X181441Y44800D01*
X182686Y46515D01*
X184185Y48013D01*
X185899Y49259D01*
X187787Y50221D01*
X189803Y50876D01*
X190456Y50979D01*
X190456Y40244D01*
X179720Y40244D01*
G37*
%LPD*%
%LPC*%
G36*
X195454Y35245D02*
X195454Y35245D01*
X206190Y35245D01*
X206086Y34592D01*
X205432Y32576D01*
X204470Y30688D01*
X203224Y28974D01*
X201726Y27476D01*
X200011Y26230D01*
X198123Y25268D01*
X196108Y24613D01*
X195454Y24510D01*
X195454Y35245D01*
G37*
%LPD*%
%LPC*%
G36*
X117730Y35245D02*
X117730Y35245D01*
X128466Y35245D01*
X128362Y34592D01*
X127708Y32576D01*
X126746Y30688D01*
X125500Y28974D01*
X124002Y27476D01*
X122287Y26230D01*
X120399Y25268D01*
X118384Y24613D01*
X117730Y24510D01*
X117730Y35245D01*
G37*
%LPD*%
%LPC*%
G36*
X424837Y106977D02*
X424837Y106977D01*
X422822Y107632D01*
X420934Y108594D01*
X419220Y109839D01*
X417721Y111338D01*
X416476Y113052D01*
X415514Y114940D01*
X414859Y116955D01*
X414755Y117609D01*
X425491Y117609D01*
X425491Y106873D01*
X424837Y106977D01*
G37*
%LPD*%
%LPC*%
G36*
X189803Y24613D02*
X189803Y24613D01*
X187787Y25268D01*
X185899Y26230D01*
X184185Y27476D01*
X182686Y28974D01*
X181441Y30688D01*
X180479Y32576D01*
X179824Y34592D01*
X179720Y35245D01*
X190456Y35245D01*
X190456Y24510D01*
X189803Y24613D01*
G37*
%LPD*%
%LPC*%
G36*
X112079Y24613D02*
X112079Y24613D01*
X110063Y25268D01*
X108175Y26230D01*
X106461Y27476D01*
X104962Y28974D01*
X103717Y30688D01*
X102755Y32576D01*
X102100Y34592D01*
X101996Y35245D01*
X112732Y35245D01*
X112732Y24510D01*
X112079Y24613D01*
G37*
%LPD*%
D10*
X41402Y261902D03*
X41402Y259362D03*
X41402Y260632D03*
X41402Y212118D03*
X41402Y209578D03*
X41402Y211102D03*
D11*
X17018Y270792D03*
X17018Y200688D03*
X11938Y270792D03*
X14224Y270792D03*
X11938Y200688D03*
X14478Y200688D03*
D12*
X192955Y37744D03*
X157955Y37744D03*
X427990Y120108D03*
X427990Y85108D03*
X115231Y37744D03*
X80231Y37744D03*
D13*
X38852Y128016D03*
D14*
X85852Y128016D03*
X132852Y128016D03*
D15*
X53340Y222504D03*
D16*
X417830Y221488D03*
X410210Y221488D03*
X402590Y221488D03*
X394970Y221488D03*
X402590Y229108D03*
X402590Y213868D03*
X127000Y349504D03*
X137414Y349504D03*
X147574Y349504D03*
X157734Y349504D03*
X167894Y349504D03*
X178054Y349504D03*
X450850Y274828D03*
X450850Y264668D03*
X450850Y254508D03*
X450850Y244348D03*
X256794Y232664D03*
X256794Y242824D03*
X256794Y252984D03*
X266954Y252984D03*
X246634Y252984D03*
X249174Y245364D03*
X264414Y245364D03*
X433070Y207010D03*
D17*
X414274Y207010D01*
D16*
X414274Y207010D03*
M02*
