M48
;GenerationSoftware,Autodesk,EAGLE,9.4.1*%
;CreationDate,2019-05-16T07:12:16Z*%
FMAT,2
ICI,OFF
METRIC,TZ,000.000
T6C0.305
T5C0.381
T4C0.700
T3C1.000
T2C1.550
T1C3.000
%
G90
M71
T1
X3000Y3000
X3000Y33480
X43640Y33480
X43640Y3000
T2
X13285Y12802
X3885Y12802
X8585Y12802
T3
X42799Y12011
X19296Y3774
X15796Y3774
X42799Y8511
X11523Y3774
X8023Y3774
T4
X4140Y25936
X4140Y26190
X4140Y26063
X4140Y21212
X4140Y20958
X4140Y21110
X1702Y27079
X1702Y20069
X1422Y27079
X1194Y20069
X1448Y20069
X1194Y27079
T5
X5334Y22250
T6
X41783Y22149
X41021Y22149
X40259Y22149
X39497Y22149
X40259Y22911
X41427Y20701
X12700Y34950
X13741Y34950
X14757Y34950
X15773Y34950
X16789Y34950
X17805Y34950
X45085Y27483
X45085Y26467
X45085Y25451
X45085Y24435
X25679Y23266
X25679Y24282
X25679Y25298
X26695Y25298
X24663Y25298
X24917Y24536
X26441Y24536
X43307Y20701
X40259Y21387
M30