G04 EAGLE Gerber RS-274X export*
G75*
%MOMM*%
%FSLAX34Y34*%
%LPD*%
%INSilkscreen Top*%
%IPPOS*%
%AMOC8*
5,1,8,0,0,1.08239X$1,22.5*%
G01*
%ADD10C,0.101600*%
%ADD11C,0.152400*%
%ADD12C,0.076200*%
%ADD13C,0.203200*%
%ADD14C,0.127000*%
%ADD15R,2.540000X0.381000*%
%ADD16C,0.254000*%
%ADD17C,0.400000*%


D10*
X67064Y252730D02*
X60963Y252730D01*
X57912Y249679D01*
X60963Y246629D01*
X67064Y246629D01*
X67064Y243375D02*
X57912Y243375D01*
X67064Y243375D02*
X67064Y238799D01*
X65539Y237274D01*
X64013Y237274D01*
X62488Y238799D01*
X60963Y237274D01*
X59437Y237274D01*
X57912Y238799D01*
X57912Y243375D01*
X62488Y243375D02*
X62488Y238799D01*
X59437Y234020D02*
X67064Y234020D01*
X59437Y234020D02*
X57912Y232494D01*
X57912Y229444D01*
X59437Y227918D01*
X67064Y227918D01*
X67064Y220089D02*
X65539Y218563D01*
X67064Y220089D02*
X67064Y223139D01*
X65539Y224664D01*
X64013Y224664D01*
X62488Y223139D01*
X62488Y220089D01*
X60963Y218563D01*
X59437Y218563D01*
X57912Y220089D01*
X57912Y223139D01*
X59437Y224664D01*
X57658Y88908D02*
X57658Y82807D01*
X60709Y79756D01*
X63759Y82807D01*
X63759Y88908D01*
X67013Y88908D02*
X67013Y79756D01*
X67013Y88908D02*
X71589Y88908D01*
X73114Y87383D01*
X73114Y85857D01*
X71589Y84332D01*
X73114Y82807D01*
X73114Y81281D01*
X71589Y79756D01*
X67013Y79756D01*
X67013Y84332D02*
X71589Y84332D01*
X76368Y81281D02*
X76368Y88908D01*
X76368Y81281D02*
X77894Y79756D01*
X80944Y79756D01*
X82470Y81281D01*
X82470Y88908D01*
X90299Y88908D02*
X91825Y87383D01*
X90299Y88908D02*
X87249Y88908D01*
X85724Y87383D01*
X85724Y85857D01*
X87249Y84332D01*
X90299Y84332D01*
X91825Y82807D01*
X91825Y81281D01*
X90299Y79756D01*
X87249Y79756D01*
X85724Y81281D01*
X140462Y82807D02*
X140462Y88908D01*
X140462Y82807D02*
X143513Y79756D01*
X146563Y82807D01*
X146563Y88908D01*
X149817Y88908D02*
X149817Y79756D01*
X149817Y88908D02*
X154393Y88908D01*
X155918Y87383D01*
X155918Y85857D01*
X154393Y84332D01*
X155918Y82807D01*
X155918Y81281D01*
X154393Y79756D01*
X149817Y79756D01*
X149817Y84332D02*
X154393Y84332D01*
X159172Y81281D02*
X159172Y88908D01*
X159172Y81281D02*
X160698Y79756D01*
X163748Y79756D01*
X165274Y81281D01*
X165274Y88908D01*
X173103Y88908D02*
X174629Y87383D01*
X173103Y88908D02*
X170053Y88908D01*
X168528Y87383D01*
X168528Y85857D01*
X170053Y84332D01*
X173103Y84332D01*
X174629Y82807D01*
X174629Y81281D01*
X173103Y79756D01*
X170053Y79756D01*
X168528Y81281D01*
X192028Y88908D02*
X193553Y87383D01*
X192028Y88908D02*
X188977Y88908D01*
X187452Y87383D01*
X187452Y81281D01*
X188977Y79756D01*
X192028Y79756D01*
X193553Y81281D01*
X193553Y84332D01*
X190503Y84332D01*
X196807Y79756D02*
X196807Y88908D01*
X202908Y79756D01*
X202908Y88908D01*
X206162Y88908D02*
X206162Y79756D01*
X210738Y79756D01*
X212264Y81281D01*
X212264Y87383D01*
X210738Y88908D01*
X206162Y88908D01*
X112273Y87383D02*
X110748Y88908D01*
X107697Y88908D01*
X106172Y87383D01*
X106172Y81281D01*
X107697Y79756D01*
X110748Y79756D01*
X112273Y81281D01*
X112273Y84332D01*
X109223Y84332D01*
X115527Y79756D02*
X115527Y88908D01*
X121628Y79756D01*
X121628Y88908D01*
X124882Y88908D02*
X124882Y79756D01*
X129458Y79756D01*
X130984Y81281D01*
X130984Y87383D01*
X129458Y88908D01*
X124882Y88908D01*
X366780Y110498D02*
X368305Y108973D01*
X366780Y110498D02*
X363729Y110498D01*
X362204Y108973D01*
X362204Y102871D01*
X363729Y101346D01*
X366780Y101346D01*
X368305Y102871D01*
X368305Y105922D01*
X365255Y105922D01*
X371559Y101346D02*
X371559Y110498D01*
X377660Y101346D01*
X377660Y110498D01*
X380914Y110498D02*
X380914Y101346D01*
X385490Y101346D01*
X387016Y102871D01*
X387016Y108973D01*
X385490Y110498D01*
X380914Y110498D01*
X363729Y95512D02*
X362204Y93987D01*
X363729Y95512D02*
X366780Y95512D01*
X368305Y93987D01*
X368305Y92461D01*
X366780Y90936D01*
X365255Y90936D01*
X366780Y90936D02*
X368305Y89411D01*
X368305Y87885D01*
X366780Y86360D01*
X363729Y86360D01*
X362204Y87885D01*
X371559Y89411D02*
X371559Y95512D01*
X371559Y89411D02*
X374610Y86360D01*
X377660Y89411D01*
X377660Y95512D01*
X380914Y93987D02*
X382440Y95512D01*
X385490Y95512D01*
X387016Y93987D01*
X387016Y92461D01*
X385490Y90936D01*
X383965Y90936D01*
X385490Y90936D02*
X387016Y89411D01*
X387016Y87885D01*
X385490Y86360D01*
X382440Y86360D01*
X380914Y87885D01*
X393186Y164338D02*
X399287Y164338D01*
X393186Y164338D02*
X391660Y165863D01*
X391660Y168914D01*
X393186Y170439D01*
X399287Y170439D01*
X400812Y168914D01*
X400812Y165863D01*
X399287Y164338D01*
X397761Y167389D02*
X400812Y170439D01*
X399287Y173693D02*
X394711Y173693D01*
X399287Y173693D02*
X400812Y175218D01*
X399287Y176744D01*
X400812Y178269D01*
X399287Y179794D01*
X394711Y179794D01*
X394711Y183048D02*
X394711Y184574D01*
X400812Y184574D01*
X400812Y186099D02*
X400812Y183048D01*
X391660Y184574D02*
X390135Y184574D01*
X394711Y189285D02*
X394711Y190810D01*
X400812Y190810D01*
X400812Y189285D02*
X400812Y192336D01*
X391660Y190810D02*
X390135Y190810D01*
X394711Y197047D02*
X394711Y201623D01*
X394711Y197047D02*
X396236Y195522D01*
X399287Y195522D01*
X400812Y197047D01*
X400812Y201623D01*
X399287Y242570D02*
X393186Y242570D01*
X391660Y244095D01*
X391660Y247146D01*
X393186Y248671D01*
X399287Y248671D01*
X400812Y247146D01*
X400812Y244095D01*
X399287Y242570D01*
X397761Y245621D02*
X400812Y248671D01*
X399287Y251925D02*
X394711Y251925D01*
X399287Y251925D02*
X400812Y253450D01*
X399287Y254976D01*
X400812Y256501D01*
X399287Y258026D01*
X394711Y258026D01*
X394711Y261280D02*
X394711Y262806D01*
X400812Y262806D01*
X400812Y264331D02*
X400812Y261280D01*
X391660Y262806D02*
X390135Y262806D01*
X394711Y267517D02*
X394711Y269042D01*
X400812Y269042D01*
X400812Y267517D02*
X400812Y270568D01*
X391660Y269042D02*
X390135Y269042D01*
X394711Y275279D02*
X394711Y279855D01*
X394711Y275279D02*
X396236Y273754D01*
X399287Y273754D01*
X400812Y275279D01*
X400812Y279855D01*
D11*
X59697Y181878D02*
X54274Y181878D01*
X51562Y179166D01*
X51562Y168320D01*
X54274Y165608D01*
X59697Y165608D01*
X62409Y168320D01*
X62409Y179166D01*
X59697Y181878D01*
X67934Y181878D02*
X67934Y165608D01*
X78780Y165608D02*
X67934Y181878D01*
X78780Y181878D02*
X78780Y165608D01*
X101772Y182132D02*
X107195Y182132D01*
X101772Y182132D02*
X99060Y179420D01*
X99060Y168574D01*
X101772Y165862D01*
X107195Y165862D01*
X109907Y168574D01*
X109907Y179420D01*
X107195Y182132D01*
X115432Y182132D02*
X115432Y165862D01*
X115432Y182132D02*
X126278Y182132D01*
X120855Y173997D02*
X115432Y173997D01*
X131803Y165862D02*
X131803Y182132D01*
X142650Y182132D01*
X137226Y173997D02*
X131803Y173997D01*
D12*
X370707Y18161D02*
X378079Y18161D01*
X370707Y18161D02*
X370707Y21847D01*
X371935Y23076D01*
X374393Y23076D01*
X375622Y21847D01*
X375622Y18161D01*
X370707Y26874D02*
X370707Y29331D01*
X370707Y26874D02*
X371935Y25645D01*
X376850Y25645D01*
X378079Y26874D01*
X378079Y29331D01*
X376850Y30560D01*
X371935Y30560D01*
X370707Y29331D01*
X370707Y33129D02*
X378079Y33129D01*
X375622Y35587D01*
X378079Y38044D01*
X370707Y38044D01*
X370707Y40613D02*
X370707Y45528D01*
X370707Y40613D02*
X378079Y40613D01*
X378079Y45528D01*
X374393Y43071D02*
X374393Y40613D01*
X378079Y48098D02*
X370707Y48098D01*
X370707Y51784D01*
X371935Y53012D01*
X374393Y53012D01*
X375622Y51784D01*
X375622Y48098D01*
X375622Y50555D02*
X378079Y53012D01*
D13*
X192024Y221742D02*
X192024Y300482D01*
X192024Y221742D02*
X169164Y198882D01*
X113284Y198882D02*
X90424Y221742D01*
X90424Y300482D01*
X131224Y298182D02*
X130043Y297923D01*
X128868Y297636D01*
X127701Y297320D01*
X126542Y296975D01*
X125392Y296603D01*
X124251Y296202D01*
X123120Y295774D01*
X122000Y295318D01*
X120891Y294835D01*
X119795Y294325D01*
X118711Y293789D01*
X117641Y293226D01*
X116585Y292637D01*
X115543Y292023D01*
X114517Y291383D01*
X113507Y290719D01*
X112513Y290030D01*
X111537Y289317D01*
X110578Y288580D01*
X109637Y287820D01*
X108715Y287037D01*
X107813Y286233D01*
X106931Y285406D01*
X106069Y284558D01*
X105227Y283689D01*
X104408Y282800D01*
X103610Y281891D01*
X102835Y280963D01*
X102083Y280017D01*
X101354Y279052D01*
X100648Y278070D01*
X99967Y277070D01*
X99311Y276055D01*
X98680Y275024D01*
X98073Y273977D01*
X97493Y272917D01*
X96939Y271842D01*
X96411Y270754D01*
X95910Y269653D01*
X95436Y268541D01*
X94989Y267418D01*
X94570Y266283D01*
X94178Y265139D01*
X93815Y263986D01*
X93480Y262824D01*
X93173Y261654D01*
X92895Y260478D01*
X92646Y259294D01*
X92426Y258105D01*
X92235Y256911D01*
X92073Y255713D01*
X91940Y254511D01*
X91837Y253306D01*
X91763Y252099D01*
X91719Y250891D01*
X91704Y249682D01*
X91719Y248473D01*
X91763Y247265D01*
X91837Y246058D01*
X91940Y244853D01*
X92073Y243651D01*
X92235Y242453D01*
X92426Y241259D01*
X92646Y240070D01*
X92895Y238886D01*
X93173Y237710D01*
X93480Y236540D01*
X93815Y235378D01*
X94178Y234225D01*
X94570Y233081D01*
X94989Y231946D01*
X95436Y230823D01*
X95910Y229711D01*
X96411Y228610D01*
X96939Y227522D01*
X97493Y226447D01*
X98073Y225387D01*
X98680Y224340D01*
X99311Y223309D01*
X99967Y222294D01*
X100648Y221294D01*
X101354Y220312D01*
X102083Y219347D01*
X102835Y218401D01*
X103610Y217473D01*
X104408Y216564D01*
X105227Y215675D01*
X106069Y214806D01*
X106931Y213958D01*
X107813Y213131D01*
X108715Y212327D01*
X109637Y211544D01*
X110578Y210784D01*
X111537Y210047D01*
X112513Y209334D01*
X113507Y208645D01*
X114517Y207981D01*
X115543Y207341D01*
X116585Y206727D01*
X117641Y206138D01*
X118711Y205575D01*
X119795Y205039D01*
X120891Y204529D01*
X122000Y204046D01*
X123120Y203590D01*
X124251Y203162D01*
X125392Y202761D01*
X126542Y202389D01*
X127701Y202044D01*
X128868Y201728D01*
X130043Y201441D01*
X131224Y201182D01*
X151224Y201182D02*
X152405Y201441D01*
X153580Y201728D01*
X154747Y202044D01*
X155906Y202389D01*
X157056Y202761D01*
X158197Y203162D01*
X159328Y203590D01*
X160448Y204046D01*
X161557Y204529D01*
X162653Y205039D01*
X163737Y205575D01*
X164807Y206138D01*
X165863Y206727D01*
X166905Y207341D01*
X167931Y207981D01*
X168941Y208645D01*
X169935Y209334D01*
X170911Y210047D01*
X171870Y210784D01*
X172811Y211544D01*
X173733Y212327D01*
X174635Y213131D01*
X175517Y213958D01*
X176379Y214806D01*
X177221Y215675D01*
X178040Y216564D01*
X178838Y217473D01*
X179613Y218401D01*
X180365Y219347D01*
X181094Y220312D01*
X181800Y221294D01*
X182481Y222294D01*
X183137Y223309D01*
X183768Y224340D01*
X184375Y225387D01*
X184955Y226447D01*
X185509Y227522D01*
X186037Y228610D01*
X186538Y229711D01*
X187012Y230823D01*
X187459Y231946D01*
X187878Y233081D01*
X188270Y234225D01*
X188633Y235378D01*
X188968Y236540D01*
X189275Y237710D01*
X189553Y238886D01*
X189802Y240070D01*
X190022Y241259D01*
X190213Y242453D01*
X190375Y243651D01*
X190508Y244853D01*
X190611Y246058D01*
X190685Y247265D01*
X190729Y248473D01*
X190744Y249682D01*
X190729Y250891D01*
X190685Y252099D01*
X190611Y253306D01*
X190508Y254511D01*
X190375Y255713D01*
X190213Y256911D01*
X190022Y258105D01*
X189802Y259294D01*
X189553Y260478D01*
X189275Y261654D01*
X188968Y262824D01*
X188633Y263986D01*
X188270Y265139D01*
X187878Y266283D01*
X187459Y267418D01*
X187012Y268541D01*
X186538Y269653D01*
X186037Y270754D01*
X185509Y271842D01*
X184955Y272917D01*
X184375Y273977D01*
X183768Y275024D01*
X183137Y276055D01*
X182481Y277070D01*
X181800Y278070D01*
X181094Y279052D01*
X180365Y280017D01*
X179613Y280963D01*
X178838Y281891D01*
X178040Y282800D01*
X177221Y283689D01*
X176379Y284558D01*
X175517Y285406D01*
X174635Y286233D01*
X173733Y287037D01*
X172811Y287820D01*
X171870Y288580D01*
X170911Y289317D01*
X169935Y290030D01*
X168941Y290719D01*
X167931Y291383D01*
X166905Y292023D01*
X165863Y292637D01*
X164807Y293226D01*
X163737Y293789D01*
X162653Y294325D01*
X161557Y294835D01*
X160448Y295318D01*
X159328Y295774D01*
X158197Y296202D01*
X157056Y296603D01*
X155906Y296975D01*
X154747Y297320D01*
X153580Y297636D01*
X152405Y297923D01*
X151224Y298182D01*
X151384Y300482D02*
X192024Y300482D01*
X131064Y300482D02*
X90424Y300482D01*
X151384Y198882D02*
X169164Y198882D01*
X131064Y198882D02*
X113284Y198882D01*
X376936Y208534D02*
X376936Y264414D01*
X376936Y208534D02*
X369316Y200914D01*
X321056Y200914D02*
X313436Y208534D01*
X313436Y264414D01*
X356362Y260096D02*
X357028Y259815D01*
X357687Y259518D01*
X358339Y259205D01*
X358983Y258876D01*
X359619Y258531D01*
X360246Y258171D01*
X360864Y257796D01*
X361473Y257406D01*
X362072Y257001D01*
X362661Y256581D01*
X363239Y256148D01*
X363807Y255700D01*
X364364Y255239D01*
X364909Y254764D01*
X365443Y254276D01*
X365964Y253775D01*
X366473Y253262D01*
X366970Y252736D01*
X367453Y252198D01*
X367923Y251649D01*
X368380Y251088D01*
X368823Y250517D01*
X369251Y249934D01*
X369666Y249342D01*
X370065Y248739D01*
X370450Y248127D01*
X370820Y247506D01*
X371175Y246876D01*
X371514Y246237D01*
X371838Y245591D01*
X372145Y244936D01*
X372437Y244275D01*
X372712Y243606D01*
X372971Y242931D01*
X373213Y242250D01*
X373439Y241563D01*
X373647Y240871D01*
X373839Y240173D01*
X374014Y239472D01*
X374172Y238766D01*
X374312Y238057D01*
X374435Y237344D01*
X374540Y236629D01*
X374628Y235911D01*
X374699Y235192D01*
X374752Y234471D01*
X374787Y233748D01*
X374805Y233026D01*
X374805Y232302D01*
X374787Y231580D01*
X374752Y230857D01*
X374699Y230136D01*
X374628Y229417D01*
X374540Y228699D01*
X374435Y227984D01*
X374312Y227271D01*
X374172Y226562D01*
X374014Y225856D01*
X373839Y225155D01*
X373647Y224457D01*
X373439Y223765D01*
X373213Y223078D01*
X372971Y222397D01*
X372712Y221722D01*
X372437Y221053D01*
X372145Y220392D01*
X371838Y219737D01*
X371514Y219091D01*
X371175Y218452D01*
X370820Y217822D01*
X370450Y217201D01*
X370065Y216589D01*
X369666Y215986D01*
X369251Y215394D01*
X368823Y214811D01*
X368380Y214240D01*
X367923Y213679D01*
X367453Y213130D01*
X366970Y212592D01*
X366473Y212066D01*
X365964Y211553D01*
X365443Y211052D01*
X364909Y210564D01*
X364364Y210089D01*
X363807Y209628D01*
X363239Y209180D01*
X362661Y208747D01*
X362072Y208327D01*
X361473Y207922D01*
X360864Y207532D01*
X360246Y207157D01*
X359619Y206797D01*
X358983Y206452D01*
X358339Y206123D01*
X357687Y205810D01*
X357028Y205513D01*
X356362Y205232D01*
X334010Y205232D02*
X333344Y205513D01*
X332685Y205810D01*
X332033Y206123D01*
X331389Y206452D01*
X330753Y206797D01*
X330126Y207157D01*
X329508Y207532D01*
X328899Y207922D01*
X328300Y208327D01*
X327711Y208747D01*
X327133Y209180D01*
X326565Y209628D01*
X326008Y210089D01*
X325463Y210564D01*
X324929Y211052D01*
X324408Y211553D01*
X323899Y212066D01*
X323402Y212592D01*
X322919Y213130D01*
X322449Y213679D01*
X321992Y214240D01*
X321549Y214811D01*
X321121Y215394D01*
X320706Y215986D01*
X320307Y216589D01*
X319922Y217201D01*
X319552Y217822D01*
X319197Y218452D01*
X318858Y219091D01*
X318534Y219737D01*
X318227Y220392D01*
X317935Y221053D01*
X317660Y221722D01*
X317401Y222397D01*
X317159Y223078D01*
X316933Y223765D01*
X316725Y224457D01*
X316533Y225155D01*
X316358Y225856D01*
X316200Y226562D01*
X316060Y227271D01*
X315937Y227984D01*
X315832Y228699D01*
X315744Y229417D01*
X315673Y230136D01*
X315620Y230857D01*
X315585Y231580D01*
X315567Y232302D01*
X315567Y233026D01*
X315585Y233748D01*
X315620Y234471D01*
X315673Y235192D01*
X315744Y235911D01*
X315832Y236629D01*
X315937Y237344D01*
X316060Y238057D01*
X316200Y238766D01*
X316358Y239472D01*
X316533Y240173D01*
X316725Y240871D01*
X316933Y241563D01*
X317159Y242250D01*
X317401Y242931D01*
X317660Y243606D01*
X317935Y244275D01*
X318227Y244936D01*
X318534Y245591D01*
X318858Y246237D01*
X319197Y246876D01*
X319552Y247506D01*
X319922Y248127D01*
X320307Y248739D01*
X320706Y249342D01*
X321121Y249934D01*
X321549Y250517D01*
X321992Y251088D01*
X322449Y251649D01*
X322919Y252198D01*
X323402Y252736D01*
X323899Y253262D01*
X324408Y253775D01*
X324929Y254276D01*
X325463Y254764D01*
X326008Y255239D01*
X326565Y255700D01*
X327133Y256148D01*
X327711Y256581D01*
X328300Y257001D01*
X328899Y257406D01*
X329508Y257796D01*
X330126Y258171D01*
X330753Y258531D01*
X331389Y258876D01*
X332033Y259205D01*
X332685Y259518D01*
X333344Y259815D01*
X334010Y260096D01*
X356616Y264414D02*
X376936Y264414D01*
X333756Y264414D02*
X313436Y264414D01*
X321056Y200914D02*
X333756Y200914D01*
X356616Y200914D02*
X369316Y200914D01*
D14*
X191054Y158906D02*
X191054Y114906D01*
X165054Y114906D01*
X165054Y158906D01*
X191054Y158906D01*
D15*
X178054Y151511D03*
D16*
X42418Y200180D02*
X42418Y271300D01*
X42418Y200180D02*
X24638Y200180D01*
X24638Y192560D01*
X4318Y192560D01*
X4318Y200180D01*
X-8382Y200180D01*
X-8382Y271300D01*
X4318Y271300D01*
X4318Y278920D01*
X24638Y278920D01*
X24638Y271300D01*
X42418Y271300D01*
D17*
X409986Y235000D02*
X409988Y235075D01*
X409994Y235149D01*
X410004Y235223D01*
X410017Y235296D01*
X410035Y235369D01*
X410056Y235440D01*
X410081Y235511D01*
X410110Y235580D01*
X410143Y235647D01*
X410179Y235712D01*
X410218Y235776D01*
X410260Y235837D01*
X410306Y235896D01*
X410355Y235953D01*
X410407Y236006D01*
X410461Y236057D01*
X410518Y236106D01*
X410578Y236150D01*
X410640Y236192D01*
X410704Y236231D01*
X410770Y236266D01*
X410837Y236297D01*
X410907Y236325D01*
X410977Y236349D01*
X411049Y236370D01*
X411122Y236386D01*
X411195Y236399D01*
X411270Y236408D01*
X411344Y236413D01*
X411419Y236414D01*
X411493Y236411D01*
X411568Y236404D01*
X411641Y236393D01*
X411715Y236379D01*
X411787Y236360D01*
X411858Y236338D01*
X411928Y236312D01*
X411997Y236282D01*
X412063Y236249D01*
X412128Y236212D01*
X412191Y236172D01*
X412252Y236128D01*
X412310Y236082D01*
X412366Y236032D01*
X412419Y235980D01*
X412470Y235925D01*
X412517Y235867D01*
X412561Y235807D01*
X412602Y235744D01*
X412640Y235680D01*
X412674Y235614D01*
X412705Y235545D01*
X412732Y235476D01*
X412755Y235405D01*
X412774Y235333D01*
X412790Y235260D01*
X412802Y235186D01*
X412810Y235112D01*
X412814Y235037D01*
X412814Y234963D01*
X412810Y234888D01*
X412802Y234814D01*
X412790Y234740D01*
X412774Y234667D01*
X412755Y234595D01*
X412732Y234524D01*
X412705Y234455D01*
X412674Y234386D01*
X412640Y234320D01*
X412602Y234256D01*
X412561Y234193D01*
X412517Y234133D01*
X412470Y234075D01*
X412419Y234020D01*
X412366Y233968D01*
X412310Y233918D01*
X412252Y233872D01*
X412191Y233828D01*
X412128Y233788D01*
X412063Y233751D01*
X411997Y233718D01*
X411928Y233688D01*
X411858Y233662D01*
X411787Y233640D01*
X411715Y233621D01*
X411641Y233607D01*
X411568Y233596D01*
X411493Y233589D01*
X411419Y233586D01*
X411344Y233587D01*
X411270Y233592D01*
X411195Y233601D01*
X411122Y233614D01*
X411049Y233630D01*
X410977Y233651D01*
X410907Y233675D01*
X410837Y233703D01*
X410770Y233734D01*
X410704Y233769D01*
X410640Y233808D01*
X410578Y233850D01*
X410518Y233894D01*
X410461Y233943D01*
X410407Y233994D01*
X410355Y234047D01*
X410306Y234104D01*
X410260Y234163D01*
X410218Y234224D01*
X410179Y234288D01*
X410143Y234353D01*
X410110Y234420D01*
X410081Y234489D01*
X410056Y234560D01*
X410035Y234631D01*
X410017Y234704D01*
X410004Y234777D01*
X409994Y234851D01*
X409988Y234925D01*
X409986Y235000D01*
D16*
X460400Y245000D02*
X460400Y275000D01*
X434400Y230000D02*
X417900Y230000D01*
X417900Y282500D02*
X417900Y290000D01*
X434400Y290000D01*
X417900Y237500D02*
X417900Y230000D01*
D17*
X409986Y157000D02*
X409988Y157075D01*
X409994Y157149D01*
X410004Y157223D01*
X410017Y157296D01*
X410035Y157369D01*
X410056Y157440D01*
X410081Y157511D01*
X410110Y157580D01*
X410143Y157647D01*
X410179Y157712D01*
X410218Y157776D01*
X410260Y157837D01*
X410306Y157896D01*
X410355Y157953D01*
X410407Y158006D01*
X410461Y158057D01*
X410518Y158106D01*
X410578Y158150D01*
X410640Y158192D01*
X410704Y158231D01*
X410770Y158266D01*
X410837Y158297D01*
X410907Y158325D01*
X410977Y158349D01*
X411049Y158370D01*
X411122Y158386D01*
X411195Y158399D01*
X411270Y158408D01*
X411344Y158413D01*
X411419Y158414D01*
X411493Y158411D01*
X411568Y158404D01*
X411641Y158393D01*
X411715Y158379D01*
X411787Y158360D01*
X411858Y158338D01*
X411928Y158312D01*
X411997Y158282D01*
X412063Y158249D01*
X412128Y158212D01*
X412191Y158172D01*
X412252Y158128D01*
X412310Y158082D01*
X412366Y158032D01*
X412419Y157980D01*
X412470Y157925D01*
X412517Y157867D01*
X412561Y157807D01*
X412602Y157744D01*
X412640Y157680D01*
X412674Y157614D01*
X412705Y157545D01*
X412732Y157476D01*
X412755Y157405D01*
X412774Y157333D01*
X412790Y157260D01*
X412802Y157186D01*
X412810Y157112D01*
X412814Y157037D01*
X412814Y156963D01*
X412810Y156888D01*
X412802Y156814D01*
X412790Y156740D01*
X412774Y156667D01*
X412755Y156595D01*
X412732Y156524D01*
X412705Y156455D01*
X412674Y156386D01*
X412640Y156320D01*
X412602Y156256D01*
X412561Y156193D01*
X412517Y156133D01*
X412470Y156075D01*
X412419Y156020D01*
X412366Y155968D01*
X412310Y155918D01*
X412252Y155872D01*
X412191Y155828D01*
X412128Y155788D01*
X412063Y155751D01*
X411997Y155718D01*
X411928Y155688D01*
X411858Y155662D01*
X411787Y155640D01*
X411715Y155621D01*
X411641Y155607D01*
X411568Y155596D01*
X411493Y155589D01*
X411419Y155586D01*
X411344Y155587D01*
X411270Y155592D01*
X411195Y155601D01*
X411122Y155614D01*
X411049Y155630D01*
X410977Y155651D01*
X410907Y155675D01*
X410837Y155703D01*
X410770Y155734D01*
X410704Y155769D01*
X410640Y155808D01*
X410578Y155850D01*
X410518Y155894D01*
X410461Y155943D01*
X410407Y155994D01*
X410355Y156047D01*
X410306Y156104D01*
X410260Y156163D01*
X410218Y156224D01*
X410179Y156288D01*
X410143Y156353D01*
X410110Y156420D01*
X410081Y156489D01*
X410056Y156560D01*
X410035Y156631D01*
X410017Y156704D01*
X410004Y156777D01*
X409994Y156851D01*
X409988Y156925D01*
X409986Y157000D01*
D16*
X460400Y167000D02*
X460400Y197000D01*
X434400Y152000D02*
X417900Y152000D01*
X417900Y204500D02*
X417900Y212000D01*
X434400Y212000D01*
X417900Y159500D02*
X417900Y152000D01*
D14*
X140955Y71744D02*
X140955Y15744D01*
X140955Y1744D01*
X210955Y1744D01*
X210955Y15744D01*
X210955Y71744D01*
X140955Y71744D01*
X140955Y15744D02*
X210955Y15744D01*
X393990Y68108D02*
X449990Y68108D01*
X463990Y68108D01*
X463990Y138108D01*
X449990Y138108D01*
X393990Y138108D01*
X393990Y68108D01*
X449990Y68108D02*
X449990Y138108D01*
X63231Y71744D02*
X63231Y15744D01*
X63231Y1744D01*
X133231Y1744D01*
X133231Y15744D01*
X133231Y71744D01*
X63231Y71744D01*
X63231Y15744D02*
X133231Y15744D01*
D11*
X218400Y183428D02*
X340400Y183428D01*
X340400Y61428D01*
X218400Y61428D01*
X218400Y183428D01*
D14*
X307086Y190246D02*
X307086Y359156D01*
X307086Y190246D02*
X205486Y190246D01*
X205486Y359156D01*
X307086Y359156D01*
X354076Y82042D02*
X354076Y54102D01*
X354076Y82042D02*
X366776Y82042D01*
X366776Y54102D01*
X354076Y54102D01*
X364426Y42544D02*
X364426Y26544D01*
X356426Y26544D01*
X356426Y42544D01*
X364426Y42544D01*
X364236Y35814D02*
X356616Y35814D01*
X358521Y34544D01*
X360426Y33274D01*
X362331Y34544D01*
X364236Y35814D01*
X362966Y35179D02*
X357886Y35179D01*
X358521Y34544D02*
X362331Y34544D01*
D11*
X22352Y95016D02*
X22352Y161016D01*
X149352Y161016D01*
X149352Y95016D01*
X22352Y95016D01*
D14*
X336550Y300482D02*
X379730Y300482D01*
X379730Y280162D01*
X336550Y280162D01*
X336550Y300482D01*
X382016Y156972D02*
X382016Y113792D01*
X361696Y113792D01*
X361696Y156972D01*
X382016Y156972D01*
M02*
